<?xml version="1.0" standalone="no"?>
<!DOCTYPE svg PUBLIC "-//W3C//DTD SVG 1.1//EN" "http://www.w3.org/Graphics/SVG/1.1/DTD/svg11.dtd" >
<svg>
<metadata>
Created by FontForge 20090914 at Sun Sep 22 21:07:58 2019
 By www-data
Typeface &#194;&#169; Irfont.ir, 2013. All Rights Reserved
</metadata>
<defs>
<font id="PersianGulf" horiz-adv-x="0" >
  <font-face 
    font-family="Persian Gulf"
    font-weight="900"
    font-stretch="normal"
    units-per-em="2048"
    panose-1="2 11 8 0 4 0 0 2 0 4"
    ascent="1400"
    descent="-648"
    x-height="990.999"
    cap-height="1365"
    bbox="-328 -876 2518 2015"
    underline-thickness="50"
    underline-position="-550"
    unicode-range="U+001D-U+FEFF"
  />
<missing-glyph horiz-adv-x="1024" 
d="M0 1365h860v-1365h-860v1365zM41 1324v-1283h778v1283h-778z" />
    <glyph glyph-name="uniFD3C" unicode="&#xfe8e;&#x64b;" horiz-adv-x="570" arabic-form="final" 
d="M464 0h-335v1409h335v-1409zM451 1693c6.66699 -18 10 -32.333 10 -43c0 -33.333 -21 -58 -63 -74l-147 -58c-49.333 -18.667 -74 -38 -74 -58c0 -3.33301 0.333008 -6 1 -8l-26 -2c-6.66699 18.667 -10 33 -10 43c0 32.667 20.667 58 62 76l147 57
c50.667 20 76 40.333 76 61zM439 1809c6.66699 -18 10 -32.333 10 -43c0 -33.333 -21 -58 -63 -74l-147 -58c-49.333 -18.667 -74 -38 -74 -58c0 -3.33301 0.333008 -6 1 -8l-26 -2c-6.66699 18.667 -10 33 -10 43c0 32.667 20.667 58 62 76l147 57
c50.667 20 76 40.333 76 61z" />
    <glyph glyph-name="uniFD3D" unicode="&#x627;&#x64b;" horiz-adv-x="635" arabic-form="isolated" 
d="M460 549c2 -52 9.66797 -91 23.001 -117c16 -30.667 38.667 -54 68 -70c28.667 -18 59 -27 91 -27v-335c-80 -0 -152.667 14.333 -218 43c-64 28.667 -122 71.667 -174 129c-28.667 32.667 -52 67.667 -70 105c-18.667 36.667 -32.334 78 -41.001 124
c-8.66699 42.667 -13 91.667 -13 147v861h335v-860h-1zM451.001 1693c6.66699 -18 10 -32.333 10 -43c0 -33.333 -21 -58 -63 -74l-147 -58c-49.333 -18.667 -74 -38 -74 -58c0 -3.33301 0.333008 -6 1 -8l-26 -2c-6.66699 18.667 -10 33 -10 43c0 32.667 20.667 58 62 76
l147 57c50.667 20 76 40.333 76 61zM439.001 1809c6.66699 -18 10 -32.333 10 -43c0 -33.333 -21 -58 -63 -74l-147 -58c-49.333 -18.667 -74 -38 -74 -58c0 -3.33301 0.333008 -6 1 -8l-26 -2c-6.66699 18.667 -10 33 -10 43c0 32.667 20.667 58 62 76l147 57
c50.667 20 76 40.333 76 61z" />
    <glyph glyph-name="uniFEF5" unicode="&#xfedf;&#xfe82;" horiz-adv-x="1100" arabic-form="isolated" 
d="M98 0l0.00195312 1340h335v-1005h79c30 0.666992 58.333 9.66699 85 27c29.333 16 52 39.333 68 70c13.333 26 21 65 23 117h-1v791h335v-792c0 -55.333 -4.33301 -104.333 -13 -147c-8.66699 -46 -22.334 -87.333 -41.001 -124c-18 -37.333 -41.333 -72.333 -70 -105
c-52 -57.333 -110 -100.333 -174 -129c-62.667 -27.333 -132.334 -41.666 -209.001 -42.999h-417zM471.002 1565l89.001 -116.001c-26.667 -25.333 -54 -44.666 -82 -57.999c-26.667 -12.667 -60.334 -19 -101.001 -19c-18 0 -35.333 1.33301 -52 4
c-13.333 2.66699 -45 11 -95 25c-28 7.33301 -50.667 11 -68 11c-34.667 0 -68 -12.333 -100 -37l-89 117c44.667 50.667 103.334 76 176.001 76c33.333 0 65.333 -4.66699 96 -14l67 -19c22 -6 42.333 -9 61 -9c21.333 0 40.666 4.33301 57.999 13
c16 7.33301 29.333 16 40 26z" />
    <glyph glyph-name="uniFEF6" unicode="&#xfee0;&#xfe82;" horiz-adv-x="1100" arabic-form="final" 
d="M1032 335l90.002 -0.000976562v-335h-175v183c-2.66699 -4 -5.66699 -7.66699 -9 -11c-52 -57.333 -110 -100.333 -174 -129c-62.667 -27.333 -132.334 -41.666 -209.001 -42.999h-417v1340h335v-1005h79c30 0.666992 58.333 9.66699 85 27c29.333 16 52 39.333 68 70
c13.333 26 21 65 23 117h-1v791h335v-792c0 -55.333 -4.33301 -104.333 -13 -147c-4.66699 -23.333 -10.334 -45.333 -17.001 -66zM501.002 1565l89.001 -116.001c-26.667 -25.333 -54 -44.666 -82 -57.999c-26.667 -12.667 -60.334 -19 -101.001 -19
c-18 0 -35.333 1.33301 -52 4c-13.333 2.66699 -45 11 -95 25c-28 7.33301 -50.667 11 -68 11c-34.667 0 -68 -12.333 -100 -37l-89 117c44.667 50.667 103.334 76 176.001 76c33.333 0 65.333 -4.66699 96 -14l67 -19c22 -6 42.333 -9 61 -9
c21.333 0 40.666 4.33301 57.999 13c16 7.33301 29.333 16 40 26z" />
    <glyph glyph-name="uniFEF7" unicode="&#xfedf;&#xfe84;" horiz-adv-x="1100" arabic-form="isolated" 
d="M98 0l0.00195312 1340h335v-1005h79c30 0.666992 58.333 9.66699 85 27c29.333 16 52 39.333 68 70c13.333 26 21 65 23 117h-1v791h335v-792c0 -55.333 -4.33301 -104.333 -13 -147c-8.66699 -46 -22.334 -87.333 -41.001 -124c-18 -37.333 -41.333 -72.333 -70 -105
c-52 -57.333 -110 -100.333 -174 -129c-62.667 -27.333 -132.334 -41.666 -209.001 -42.999h-417zM429.002 1495l0.00292969 -94.001h-215c-70.667 0 -109.334 41 -116.001 123h46c15.333 -17.333 27.666 -26.333 36.999 -27c-13.333 23.333 -20.333 50 -21 80l1 16
c0 18.667 6.66699 34.334 20 47.001c13.333 13.333 29.666 20 48.999 20h188v-93h-166c2 -18 11.333 -33.667 28 -47c16 -12.667 35.333 -21 58 -25h91z" />
    <glyph glyph-name="uniFEF8" unicode="&#xfee0;&#xfe84;" horiz-adv-x="1035" arabic-form="final" 
d="M967 335l90.002 -0.000976562v-335h-175v183c-2.66699 -4 -5.66699 -7.66699 -9 -11c-52 -57.333 -110 -100.333 -174 -129c-62.667 -27.333 -132.334 -41.666 -209.001 -42.999h-417v1340h335v-1005h79c30 0.666992 58.333 9.66699 85 27c29.333 16 52 39.333 68 70
c13.333 26 21 65 23 117h-1v791h335v-792c0 -55.333 -4.33301 -104.333 -13 -147c-4.66699 -23.333 -10.334 -45.333 -17.001 -66zM404.002 1496l0.00292969 -94.001h-215c-70.667 0 -109.334 41 -116.001 123h46c15.333 -17.333 27.666 -26.333 36.999 -27
c-13.333 23.333 -20.333 50 -21 80l1 16c0 18.667 6.66699 34.334 20 47.001c13.333 13.333 29.666 20 48.999 20h188v-93h-166c2 -18 11.333 -33.667 28 -47c16 -12.667 35.333 -21 58 -25h91z" />
    <glyph glyph-name="uniFEF9" unicode="&#xfedf;&#xfe88;" horiz-adv-x="1100" arabic-form="isolated" 
d="M98 0l0.00195312 1340h335v-1005h79c30 0.666992 58.333 9.66699 85 27c29.333 16 52 39.333 68 70c13.333 26 21 65 23 117h-1v791h335v-792c0 -55.333 -4.33301 -104.333 -13 -147c-8.66699 -46 -22.334 -87.333 -41.001 -124c-18 -37.333 -41.333 -72.333 -70 -105
c-52 -57.333 -110 -100.333 -174 -129c-62.667 -27.333 -132.334 -41.666 -209.001 -42.999h-417zM429.002 -205.001l0.00292969 -94.001h-215c-70.667 0 -109.334 41 -116.001 123h46c15.333 -17.333 27.666 -26.333 36.999 -27c-13.333 23.333 -20.333 50 -21 80l1 16
c0 18.667 6.66699 34.334 20 47.001c13.333 13.333 29.666 20 48.999 20h188v-93h-166c2 -18 11.333 -33.667 28 -47c16 -12.667 35.333 -21 58 -25h91z" />
    <glyph glyph-name="uniFEFA" unicode="&#xfee0;&#xfe88;" horiz-adv-x="1035" arabic-form="final" 
d="M967 335l90.002 -0.000976562v-335h-175v183c-2.66699 -4 -5.66699 -7.66699 -9 -11c-52 -57.333 -110 -100.333 -174 -129c-62.667 -27.333 -132.334 -41.666 -209.001 -42.999h-417v1340h335v-1005h79c30 0.666992 58.333 9.66699 85 27c29.333 16 52 39.333 68 70
c13.333 26 21 65 23 117h-1v791h335v-792c0 -55.333 -4.33301 -104.333 -13 -147c-4.66699 -23.333 -10.334 -45.333 -17.001 -66zM404.002 -205.001l0.00292969 -94.001h-215c-70.667 0 -109.334 41 -116.001 123h46c15.333 -17.333 27.666 -26.333 36.999 -27
c-13.333 23.333 -20.333 50 -21 80l1 16c0 18.667 6.66699 34.334 20 47.001c13.333 13.333 29.666 20 48.999 20h188v-93h-166c2 -18 11.333 -33.667 28 -47c16 -12.667 35.333 -21 58 -25h91z" />
    <glyph glyph-name="uniFEFB" unicode="&#xfedf;&#xfe8e;" horiz-adv-x="1100" arabic-form="isolated" 
d="M98 0l0.00195312 1340h335v-1005h79c30 0.666992 58.333 9.66699 85 27c29.333 16 52 39.333 68 70c13.333 26 21 65 23 117h-1v791h335v-792c0 -55.333 -4.33301 -104.333 -13 -147c-8.66699 -46 -22.334 -87.333 -41.001 -124c-18 -37.333 -41.333 -72.333 -70 -105
c-52 -57.333 -110 -100.333 -174 -129c-62.667 -27.333 -132.334 -41.666 -209.001 -42.999h-417z" />
    <glyph glyph-name="uniFEFC" unicode="&#xfee0;&#xfe8e;" horiz-adv-x="1100" arabic-form="final" 
d="M1032 335l90.002 -0.000976562v-335h-175v183c-2.66699 -4 -5.66699 -7.66699 -9 -11c-52 -57.333 -110 -100.333 -174 -129c-62.667 -27.333 -132.334 -41.666 -209.001 -42.999h-417v1340h335v-1005h79c30 0.666992 58.333 9.66699 85 27c29.333 16 52 39.333 68 70
c13.333 26 21 65 23 117h-1v791h335v-792c0 -55.333 -4.33301 -104.333 -13 -147c-4.66699 -23.333 -10.334 -45.333 -17.001 -66z" />
    <glyph glyph-name="afii57409" unicode="&#x621;" horiz-adv-x="616" arabic-form="isolated" 
d="M598 168v-168.002h-383c-125.333 0 -194 72.667 -206 218h82c26.667 -30.667 48.667 -46.667 66 -48c-24 42.667 -36.333 90.334 -37 143.001l2 28c0 33.333 11.333 61.333 34 84c24 23.333 53.333 35 88 35h335v-164h-296c4 -33.333 20.667 -61.666 50 -84.999
c28 -22.667 62.333 -37 103 -43h162z" />
    <glyph glyph-name="afii57410" unicode="&#x622;" horiz-adv-x="494" arabic-form="isolated" 
d="M458 0h-335v990h335v-990zM-64 1325c41.333 10 90.333 15 147 15c32.667 0 64 -2 94 -6c24.667 -3.33301 82.334 -14.333 173.001 -33c63.333 -16 111 -24 143 -24c52 0 102.667 3.33301 152 10v-241c-40 -8 -83 -12 -129 -12c-60.667 0 -125.334 9 -194.001 27l-121 26
c-40 8 -77 12 -111 12c-38.667 0 -73.667 -3 -105 -9c-18 -6 -34.333 -12 -49 -18v253z" />
    <glyph glyph-name="afii57411" unicode="&#x623;" horiz-adv-x="514" arabic-form="isolated" 
d="M461 0h-335v1240h335v-1240zM417 1375l0.00292969 -94.001h-215c-70.667 0 -109.334 41 -116.001 123h46c15.333 -17.333 27.666 -26.333 36.999 -27c-13.333 23.333 -20.333 50 -21 80l1 16c0 18.667 6.66699 34.334 20 47.001c13.333 13.333 29.666 20 48.999 20h188
v-93h-166c2 -18 11.333 -33.667 28 -47c16 -12.667 35.333 -21 58 -25h91z" />
    <glyph glyph-name="afii57412" unicode="&#x624;" horiz-adv-x="1138" arabic-form="isolated" 
d="M1089 0c-2.66699 -36 -6.99707 -69 -12.9971 -99c-8.66699 -46 -22.334 -87.333 -41.001 -124c-18 -37.333 -41.333 -72.333 -70 -105c-52 -57.333 -110 -100.333 -174 -129c-58.667 -26 -123.334 -40.333 -194.001 -43h-84v335c47.333 0 74.666 0.333008 81.999 1
c24 3.33301 47 12 69 26c29.333 16 52 39.333 68 70c8.66699 17.333 15 40 19 68h-209c-53.333 -0 -100.666 4.33301 -141.999 13c-44.667 8 -84.667 21 -120 39c-36.667 17.333 -70.667 40 -102 68c-55.333 50 -97 105.667 -125 167c-27.333 62 -41 131 -41 207
s13.667 145.333 41 208c28 62 69.667 118 125 168c31.333 28 65.333 50.667 102 68c35.333 18 75.333 31 120 39c41.333 8.66699 88.666 13 141.999 13h547v-990zM453.003 335l301 -0.000976562v331h-211v1c-50.667 -2 -88.334 -9.33301 -113.001 -22
c-30 -16 -52.667 -38 -68 -66c-16.667 -27.333 -25.334 -55.666 -26.001 -84.999c0.666992 -29.333 9.33398 -57.333 26.001 -84c15.333 -28 38 -50 68 -66c6.66699 -3.33301 14.334 -6.33301 23.001 -9zM800.003 1175l0.00292969 -94.001h-215
c-70.667 0 -109.334 41 -116.001 123h46c15.333 -17.333 27.666 -26.333 36.999 -27c-13.333 23.333 -20.333 50 -21 80l1 16c0 18.667 6.66699 34.334 20 47.001c13.333 13.333 29.666 20 48.999 20h188v-93h-166c2 -18 11.333 -33.667 28 -47
c16 -12.667 35.333 -21 58 -25h91z" />
    <glyph glyph-name="afii57413" unicode="&#x625;" horiz-adv-x="528" arabic-form="isolated" 
d="M475 0h-335v1340h335v-1340zM478 -205l0.00292969 -94.001h-215c-70.667 0 -109.334 41 -116.001 123h46c15.333 -17.333 27.666 -26.333 36.999 -27c-13.333 23.333 -20.333 50 -21 80l1 16c0 18.667 6.66699 34.334 20 47.001c13.333 13.333 29.666 20 48.999 20h188
v-93h-166c2 -18 11.333 -33.667 28 -47c16 -12.667 35.333 -21 58 -25h91z" />
    <glyph glyph-name="afii57414" unicode="&#x626;" horiz-adv-x="1400" arabic-form="isolated" 
d="M67 990l323.995 0.00195312v-496c1.33301 -28.667 10 -56.334 26 -83.001c15.333 -28 38 -50 68 -66c24.667 -12.667 62.334 -20 113.001 -22v1h148v-1c50.667 2 88.334 9.33301 113.001 22c30 16 52.667 38 68 66c16.667 27.333 25.334 55.666 26.001 84.999v159h-273
v335h710v-335h-113v-159c0 -76 -13.667 -145.333 -41 -208c-28 -62 -69.667 -118 -125 -168c-31.333 -28 -65.333 -50.667 -102 -68c-35.333 -18 -75.333 -31 -120 -39c-41.333 -8.66699 -88.666 -13 -141.999 -13h-150c-53.333 -0 -100.666 4.33301 -141.999 13
c-44.667 8 -84.667 21 -120 39c-36.667 17.333 -70.667 40 -102 68c-55.333 50 -97 106 -125 168c-27.333 62 -41 130.667 -41 206v496zM382.995 1175l0.00292969 -94.001h-215c-70.667 0 -109.334 41 -116.001 123h46c15.333 -17.333 27.666 -26.333 36.999 -27
c-13.333 23.333 -20.333 50 -21 80l1 16c0 18.667 6.66699 34.334 20 47.001c13.333 13.333 29.666 20 48.999 20h188v-93h-166c2 -18 11.333 -33.667 28 -47c16 -12.667 35.333 -21 58 -25h91z" />
    <glyph glyph-name="afii57415" unicode="&#x627;" horiz-adv-x="553" arabic-form="isolated" 
d="M500 0h-335v1340h335v-1340z" />
    <glyph glyph-name="afii57416" unicode="&#x628;" horiz-adv-x="1700" arabic-form="isolated" 
d="M771 336l581.999 -1v655h335v-990h-492h-365c-270 -0 -472.667 67.833 -608 203.5s-206.333 286.167 -213 451.5h339c34.667 -212.667 175.334 -319 422.001 -319zM1050 -53l223 -223l-223 -224l-224 224z" />
    <glyph glyph-name="afii57417" unicode="&#x629;" horiz-adv-x="1100" arabic-form="isolated" 
d="M12 655v335.001h547c53.333 0 100.666 -4.33301 141.999 -13c44.667 -8 84.667 -21 120 -39c36.667 -17.333 70.667 -40 102 -68c55.333 -50 97 -105.667 125 -167c27.333 -62 41 -131 41 -207s-13.667 -145.333 -41 -208c-28 -62 -69.667 -118 -125 -168
c-31.333 -28 -65.333 -50.667 -102 -68c-35.333 -18 -75.333 -31 -120 -39c-41.333 -8.66699 -88.666 -13 -141.999 -13h-547v594h335v-270h211v-1c50.667 2 88.334 9.33301 113.001 22c30 16 52.667 38 68 66c16.667 27.333 25.334 55.666 26.001 84.999
c-0.666992 29.333 -9.33398 57.333 -26.001 84c-15.333 28 -38 50 -68 66c-6.66699 3.33301 -14.334 6.33301 -23.001 9h-636zM455 1342l222 222l223 -223l-223 -224l-222 223l-223 -223l-223 224l223 223z" />
    <glyph glyph-name="afii57418" unicode="&#x62a;" horiz-adv-x="1700" arabic-form="isolated" 
d="M771 336l581.999 -1v655h335v-990h-492h-365c-270 -0 -472.667 67.833 -608 203.5s-206.333 286.167 -213 451.5h339c34.667 -212.667 175.334 -319 422.001 -319zM1037 1212l223 -223l-223 -224l-224 224zM588.999 1212l224 -223l-224 -224l-223 224z" />
    <glyph glyph-name="afii57419" unicode="&#x62b;" horiz-adv-x="1700" arabic-form="isolated" 
d="M771 336l581.999 -1v655h335v-990h-492h-365c-270 -0 -472.667 67.833 -608 203.5s-206.333 286.167 -213 451.5h339c34.667 -212.667 175.334 -319 422.001 -319zM1037 1212l223 -223l-223 -224l-224 224zM588.999 1212l224 -223l-224 -224l-223 224zM812.999 1535
l223 -223l-223 -224l-224 224z" />
    <glyph glyph-name="afii57420" unicode="&#x62c;" horiz-adv-x="1469" arabic-form="isolated" 
d="M787 335h186c8.66699 2.66699 16.334 5.66699 23.001 9c30 16 52.667 38 68 66c16.667 26.667 25.334 54.667 26.001 84c-0.666992 29.333 -9.33398 57.666 -26.001 84.999c-15.333 28 -38 50 -68 66c-24.667 12.667 -62.334 20 -113.001 22v-1h-462v324h463
c53.333 0 100.666 -4.33301 141.999 -13c44.667 -8 84.667 -21 120 -39c36.667 -17.333 70.667 -40 102 -68c55.333 -50 97 -106 125 -168c27.333 -62.667 41 -132 41 -208s-13.667 -145 -41 -207c-28 -61.333 -69.667 -117 -125 -167c-31.333 -28 -65.333 -50.667 -102 -68
c-35.333 -18 -75.333 -31 -120 -39c-41.333 -8.66699 -88.666 -13 -141.999 -13h-117v1h-286c-8.66699 -2.66699 -16.334 -5.66699 -23.001 -9c-30 -16 -52.667 -38 -68 -66c-16.667 -26.667 -25.334 -54.667 -26.001 -84c0.666992 -29.333 9.33398 -57.666 26.001 -84.999
c15.333 -28 38 -50 68 -66c24.667 -12.667 62.334 -20 113.001 -22v1h462v-324h-463c-53.333 0 -100.666 4.33301 -141.999 13c-44.667 8 -84.667 21 -120 39c-36.667 17.333 -70.667 40 -102 68c-55.333 50 -97 106 -125 168c-27.333 62.667 -41 132 -41 208
s13.667 145 41 207c28 61.333 69.667 117 125 167c31.333 28 65.333 50.667 102 68c35.333 18 75.333 31 120 39c41.333 8.66699 88.666 13 141.999 13h217v-1zM1207 -53l223 -223l-223 -224l-224 224z" />
    <glyph glyph-name="afii57421" unicode="&#x62d;" horiz-adv-x="1400" arabic-form="isolated" 
d="M757 335h186c8.66699 2.66699 16.334 5.66699 23.001 9c30 16 52.667 38 68 66c16.667 26.667 25.334 54.667 26.001 84c-0.666992 29.333 -9.33398 57.666 -26.001 84.999c-15.333 28 -38 50 -68 66c-24.667 12.667 -62.334 20 -113.001 22v-1h-462v324h463
c53.333 0 100.666 -4.33301 141.999 -13c44.667 -8 84.667 -21 120 -39c36.667 -17.333 70.667 -40 102 -68c55.333 -50 97 -106 125 -168c27.333 -62.667 41 -132 41 -208s-13.667 -145 -41 -207c-28 -61.333 -69.667 -117 -125 -167c-31.333 -28 -65.333 -50.667 -102 -68
c-35.333 -18 -75.333 -31 -120 -39c-41.333 -8.66699 -88.666 -13 -141.999 -13h-117v1h-286c-8.66699 -2.66699 -16.334 -5.66699 -23.001 -9c-30 -16 -52.667 -38 -68 -66c-16.667 -26.667 -25.334 -54.667 -26.001 -84c0.666992 -29.333 9.33398 -57.666 26.001 -84.999
c15.333 -28 38 -50 68 -66c24.667 -12.667 62.334 -20 113.001 -22v1h462v-324h-463c-53.333 0 -100.666 4.33301 -141.999 13c-44.667 8 -84.667 21 -120 39c-36.667 17.333 -70.667 40 -102 68c-55.333 50 -97 106 -125 168c-27.333 62.667 -41 132 -41 208
s13.667 145 41 207c28 61.333 69.667 117 125 167c31.333 28 65.333 50.667 102 68c35.333 18 75.333 31 120 39c41.333 8.66699 88.666 13 141.999 13h217v-1z" />
    <glyph glyph-name="afii57422" unicode="&#x62e;" horiz-adv-x="1400" arabic-form="isolated" 
d="M466 1315l224 223l223 -223l-223 -224zM754 335h186c8.66699 2.66699 16.334 5.66699 23.001 9c30 16 52.667 38 68 66c16.667 26.667 25.334 54.667 26.001 84c-0.666992 29.333 -9.33398 57.666 -26.001 84.999c-15.333 28 -38 50 -68 66
c-24.667 12.667 -62.334 20 -113.001 22v-1h-462v324h463c53.333 0 100.666 -4.33301 141.999 -13c44.667 -8 84.667 -21 120 -39c36.667 -17.333 70.667 -40 102 -68c55.333 -50 97 -106 125 -168c27.333 -62.667 41 -132 41 -208s-13.667 -145 -41 -207
c-28 -61.333 -69.667 -117 -125 -167c-31.333 -28 -65.333 -50.667 -102 -68c-35.333 -18 -75.333 -31 -120 -39c-41.333 -8.66699 -88.666 -13 -141.999 -13h-117v1h-286c-8.66699 -2.66699 -16.334 -5.66699 -23.001 -9c-30 -16 -52.667 -38 -68 -66
c-16.667 -26.667 -25.334 -54.667 -26.001 -84c0.666992 -29.333 9.33398 -57.666 26.001 -84.999c15.333 -28 38 -50 68 -66c24.667 -12.667 62.334 -20 113.001 -22v1h462v-324h-463c-53.333 0 -100.666 4.33301 -141.999 13c-44.667 8 -84.667 21 -120 39
c-36.667 17.333 -70.667 40 -102 68c-55.333 50 -97 106 -125 168c-27.333 62.667 -41 132 -41 208s13.667 145 41 207c28 61.333 69.667 117 125 167c31.333 28 65.333 50.667 102 68c35.333 18 75.333 31 120 39c41.333 8.66699 88.666 13 141.999 13h217v-1z" />
    <glyph glyph-name="afii57423" unicode="&#x62f;" horiz-adv-x="999" arabic-form="isolated" 
d="M529 335c8.66699 2.66699 16.334 5.66797 23.001 9.00098c30 16 52.667 38 68 66c16.667 26.667 25.334 54.667 26.001 84c-0.666992 29.333 -9.33398 57.666 -26.001 84.999c-15.333 28 -38 50 -68 66c-24.667 12.667 -62.334 20 -113.001 22v-1h-396v324h397
c53.333 0 100.666 -4.33301 141.999 -13c44.667 -8 84.667 -21 120 -39c36.667 -17.333 70.667 -40 102 -68c55.333 -50 97 -106 125 -168c27.333 -62.667 41 -132 41 -208s-13.667 -145 -41 -207c-28 -61.333 -69.667 -117 -125 -167c-31.333 -28 -65.333 -50.667 -102 -68
c-35.333 -18 -75.333 -31 -120 -39c-41.333 -8.66699 -88.666 -13 -141.999 -13h-399v335h488z" />
    <glyph glyph-name="afii57424" unicode="&#x630;" horiz-adv-x="1199" arabic-form="isolated" 
d="M729 335c8.66699 2.66699 16.334 5.66797 23.001 9.00098c30 16 52.667 38 68 66c16.667 26.667 25.334 54.667 26.001 84c-0.666992 29.333 -9.33398 57.666 -26.001 84.999c-15.333 28 -38 50 -68 66c-24.667 12.667 -62.334 20 -113.001 22v-1h-396v324h397
c53.333 0 100.666 -4.33301 141.999 -13c44.667 -8 84.667 -21 120 -39c36.667 -17.333 70.667 -40 102 -68c55.333 -50 97 -106 125 -168c27.333 -62.667 41 -132 41 -208s-13.667 -145 -41 -207c-28 -61.333 -69.667 -117 -125 -167c-31.333 -28 -65.333 -50.667 -102 -68
c-35.333 -18 -75.333 -31 -120 -39c-41.333 -8.66699 -88.666 -13 -141.999 -13h-399v335h488zM13 1315l224 223l223 -223l-223 -224z" />
    <glyph glyph-name="afii57425" unicode="&#x631;" horiz-adv-x="600" arabic-form="isolated" 
d="M223 990h335.003v-990c-2.66699 -36 -7 -69 -13 -99c-8.66699 -46 -22.334 -87.333 -41.001 -124c-18 -37.333 -41.333 -72.333 -70 -105c-52 -57.333 -110 -100.333 -174 -129c-58.667 -26 -123.334 -40.333 -194.001 -43h-84v335c47.333 0 74.666 0.333008 81.999 1
c24 3.33301 47 12 69 26c29.333 16 52 39.333 68 70c8.66699 17.333 16 40 22 68v990z" />
    <glyph glyph-name="afii57426" unicode="&#x632;" horiz-adv-x="600" arabic-form="isolated" 
d="M229 990h335.003v-990c-2.66699 -36 -7 -69 -13 -99c-8.66699 -46 -22.334 -87.333 -41.001 -124c-18 -37.333 -41.333 -72.333 -70 -105c-52 -57.333 -110 -100.333 -174 -129c-58.667 -26 -123.334 -40.333 -194.001 -43h-84v335c47.333 0 74.666 0.333008 81.999 1
c24 3.33301 47 12 69 26c29.333 16 52 39.333 68 70c8.66699 17.333 16 40 22 68v990zM117.003 1339l224 223l223 -223l-223 -224z" />
    <glyph glyph-name="afii57427" unicode="&#x633;" horiz-adv-x="2152" arabic-form="isolated" 
d="M1600 335c19.333 0 31.3359 0.333008 36.0029 1c24 3.33301 47 12 69 26c29.333 16 52 39.333 68 70c13.333 26 20.666 65 21.999 117v442h335v-443c0 -55.333 -4.33301 -104.333 -13 -147c-8.66699 -46 -22.334 -87.333 -41.001 -124
c-18 -37.333 -41.333 -72.333 -70 -105c-52 -57.333 -110 -100.333 -174 -129c-58.667 -26 -123.334 -40.333 -194.001 -43h-38v335zM1129 336c5.33301 0.666992 9.00293 0.998047 11.0029 0.998047c24 3.33301 47 12 69 26c29.333 16 52 39.333 68 70
c13.333 26 20.666 65 21.999 117v442h335v-443c0 -55.333 -4.33301 -104.333 -13 -147c-4 -23.333 -9.66699 -45.666 -17 -66.999h30v-335h-108v193l-16 -20c-52 -57.333 -110 -100.333 -174 -129c-58.667 -26 -123.334 -40.333 -194.001 -43h-6v-1h-108v53
c-70.667 -86 -178 -148.333 -322 -187l-72 -8h-103c-194 0 -347.333 106.667 -460 320c-21.333 56.667 -32 108.334 -32 155.001v145c0 194.667 112.333 348.667 337 462c55.333 20 116 30 182 30v-305c-142.667 0 -214 -67.333 -214 -202v-108
c26 -133.333 88.333 -200 187 -200h96c99.333 0 161.666 66.667 186.999 200v634h316v-620c0 -11.333 -0.333008 -22.333 -1 -33z" />
    <glyph glyph-name="afii57428" unicode="&#x634;" horiz-adv-x="2200" arabic-form="isolated" 
d="M1600 335c19.333 0 31.3359 0.333008 36.0029 1c24 3.33301 47 12 69 26c29.333 16 52 39.333 68 70c13.333 26 20.666 65 21.999 117v442h335v-443c0 -55.333 -4.33301 -104.333 -13 -147c-8.66699 -46 -22.334 -87.333 -41.001 -124
c-18 -37.333 -41.333 -72.333 -70 -105c-52 -57.333 -110 -100.333 -174 -129c-58.667 -26 -123.334 -40.333 -194.001 -43h-38v335zM1129 336c5.33301 0.666992 9.00293 0.998047 11.0029 0.998047c24 3.33301 47 12 69 26c29.333 16 52 39.333 68 70
c13.333 26 20.666 65 21.999 117v442h335v-443c0 -55.333 -4.33301 -104.333 -13 -147c-4 -23.333 -9.66699 -45.666 -17 -66.999h30v-335h-108v193l-16 -20c-52 -57.333 -110 -100.333 -174 -129c-58.667 -26 -123.334 -40.333 -194.001 -43h-6v-1h-108v53
c-70.667 -86 -178 -148.333 -322 -187l-72 -8h-103c-194 0 -347.333 106.667 -460 320c-21.333 56.667 -32 108.334 -32 155.001v145c0 194.667 112.333 348.667 337 462c55.333 20 116 30 182 30v-305c-142.667 0 -214 -67.333 -214 -202v-108
c26 -133.333 88.333 -200 187 -200h96c99.333 0 161.666 66.667 186.999 200v634h316v-620c0 -11.333 -0.333008 -22.333 -1 -33zM1671.01 1561l223 -223l-223 -224l-224 224zM1223.01 1561l224 -223l-224 -224l-223 224zM1447.01 1884l223 -223l-223 -224l-224 224z" />
    <glyph glyph-name="afii57429" unicode="&#x635;" horiz-adv-x="2383" arabic-form="isolated" 
d="M986 0c-68 -59.333 -158.335 -104.004 -271.002 -134.004l-72 -8h-103c-194 0 -347.333 106.667 -460 320c-21.333 56.667 -32 108.334 -32 155.001v145c0 194.667 112.333 348.667 337 462c55.333 20 116 30 182 30v-305c-142.667 0 -214 -67.333 -214 -202v-108
c26 -133.333 88.333 -200 187 -200h96c99.333 0 161.666 66.667 186.999 200v634h316v-620c0 -11.333 -0.333008 -22.666 -1 -33.999h706c49.333 0 90 14 122 42c32 28.667 48 66 48 112c0 32 -7.66699 60 -23 84c-13.333 24.667 -32.666 43.334 -57.999 56.001
c-25.333 13.333 -66 20 -122 20h-401v-253h-170v594h590c46 0 89.667 -4 131 -12c44.667 -8.66699 84.667 -22 120 -40c36 -18 70 -41 102 -69c56 -50 97.667 -106.333 125 -169c28 -63.333 42 -131.666 42 -204.999c0 -68.667 -12.667 -134 -38 -196
c-25.333 -61.333 -62 -115.333 -110 -162c-51.333 -48.667 -101.666 -83.667 -150.999 -105s-94.666 -32 -135.999 -32h-929z" />
    <glyph glyph-name="afii57430" unicode="&#x636;" horiz-adv-x="2383" arabic-form="isolated" 
d="M1356 1315l224 223l223 -223l-223 -224zM986 0c-68 -59.333 -158.335 -104.004 -271.002 -134.004l-72 -8h-103c-194 0 -347.333 106.667 -460 320c-21.333 56.667 -32 108.334 -32 155.001v145c0 194.667 112.333 348.667 337 462c55.333 20 116 30 182 30v-305
c-142.667 0 -214 -67.333 -214 -202v-108c26 -133.333 88.333 -200 187 -200h96c99.333 0 161.666 66.667 186.999 200v634h316v-620c0 -11.333 -0.333008 -22.666 -1 -33.999h706c49.333 0 90 14 122 42c32 28.667 48 66 48 112c0 32 -7.66699 60 -23 84
c-13.333 24.667 -32.666 43.334 -57.999 56.001c-25.333 13.333 -66 20 -122 20h-401v-253h-170v594h590c46 0 89.667 -4 131 -12c44.667 -8.66699 84.667 -22 120 -40c36 -18 70 -41 102 -69c56 -50 97.667 -106.333 125 -169c28 -63.333 42 -131.666 42 -204.999
c0 -68.667 -12.667 -134 -38 -196c-25.333 -61.333 -62 -115.333 -110 -162c-51.333 -48.667 -101.666 -83.667 -150.999 -105s-94.666 -32 -135.999 -32h-929z" />
    <glyph glyph-name="afii57431" unicode="&#x637;" horiz-adv-x="1751" arabic-form="isolated" 
d="M358 195c-6 -8 -12.335 -15.6689 -19.002 -23.002c-52 -57.333 -110 -100.333 -174 -129c-58.667 -26 -106.667 -40.333 -144 -43c71.333 134 107 250.333 107 349v991h335v-792c0 -55.333 -4.33301 -104.333 -13 -147c-4.66699 -23.333 -10.334 -45.333 -17.001 -66h765
c49.333 0 90 14 122 42c32 28.667 48 66 48 112c0 32 -7.66699 60 -23 84c-13.333 24.667 -32.666 43.334 -57.999 56.001c-25.333 13.333 -66 20 -122 20h-401v-253h-170v594h590c46 0 89.667 -4 131 -12c44.667 -8.66699 84.667 -22 120 -40c36 -18 70 -41 102 -69
c56 -50 97.667 -106.333 125 -169c28 -63.333 42 -131.666 42 -204.999c0 -68.667 -12.667 -134 -38 -196c-25.333 -61.333 -62 -115.333 -110 -162c-51.333 -48.667 -101.666 -83.667 -150.999 -105s-94.666 -32 -135.999 -32h-911v195z" />
    <glyph glyph-name="afii57432" unicode="&#x638;" horiz-adv-x="1751" arabic-form="isolated" 
d="M777 1335l224 223l223 -223l-223 -224zM358 195c-6 -8 -12.335 -15.6689 -19.002 -23.002c-52 -57.333 -110 -100.333 -174 -129c-58.667 -26 -106.667 -40.333 -144 -43c71.333 134 107 250.333 107 349v991h335v-792c0 -55.333 -4.33301 -104.333 -13 -147
c-4.66699 -23.333 -10.334 -45.333 -17.001 -66h765c49.333 0 90 14 122 42c32 28.667 48 66 48 112c0 32 -7.66699 60 -23 84c-13.333 24.667 -32.666 43.334 -57.999 56.001c-25.333 13.333 -66 20 -122 20h-401v-253h-170v594h590c46 0 89.667 -4 131 -12
c44.667 -8.66699 84.667 -22 120 -40c36 -18 70 -41 102 -69c56 -50 97.667 -106.333 125 -169c28 -63.333 42 -131.666 42 -204.999c0 -68.667 -12.667 -134 -38 -196c-25.333 -61.333 -62 -115.333 -110 -162c-51.333 -48.667 -101.666 -83.667 -150.999 -105
s-94.666 -32 -135.999 -32h-911v195z" />
    <glyph glyph-name="afii57433" unicode="&#x639;" horiz-adv-x="1400" arabic-form="isolated" 
d="M532 1l-71 -0.00195312c-8.66699 -2.66699 -16.334 -5.66699 -23.001 -9c-30 -16 -52.667 -38 -68 -66c-16.667 -26.667 -25.334 -54.667 -26.001 -84c0.666992 -29.333 9.33398 -57.666 26.001 -84.999c15.333 -28 38 -50 68 -66c24.667 -12.667 62.334 -20 113.001 -22
v1h462v-324h-463c-53.333 0 -100.666 4.33301 -141.999 13c-44.667 8 -84.667 21 -120 39c-36.667 17.333 -70.667 40 -102 68c-55.333 50 -97 106 -125 168c-27.333 62.667 -41 132 -41 208s13.667 145 41 207c28 61.333 69.667 117 125 167
c31.333 28 65.333 50.667 102 68c35.333 18 75.333 31 120 39c36.667 8 78.334 12.333 125.001 13v-1h46c-15.333 50 -23 103.667 -23 161c0 76 13.667 145 41 207c28 61.333 69.667 117 125 167c31.333 28 65.333 50.667 102 68c35.333 18 75.333 31 120 39
c41.333 8.66699 88.666 13 141.999 13h299v-335h-388c-8.66699 -2.66699 -16.334 -5.66699 -23.001 -9c-30 -16 -52.667 -38 -68 -66c-16.667 -26.667 -25.334 -54.667 -26.001 -84c0.666992 -29.333 9.33398 -57.666 26.001 -84.999c15.333 -28 38 -50 68 -66
c7.33301 -4 16 -7.33301 26 -10h381v-11h2v-324h-851v1z" />
    <glyph glyph-name="afii57434" unicode="&#x63a;" horiz-adv-x="1400" arabic-form="isolated" 
d="M532 1l-71 -0.00195312c-8.66699 -2.66699 -16.334 -5.66699 -23.001 -9c-30 -16 -52.667 -38 -68 -66c-16.667 -26.667 -25.334 -54.667 -26.001 -84c0.666992 -29.333 9.33398 -57.666 26.001 -84.999c15.333 -28 38 -50 68 -66c24.667 -12.667 62.334 -20 113.001 -22
v1h462v-324h-463c-53.333 0 -100.666 4.33301 -141.999 13c-44.667 8 -84.667 21 -120 39c-36.667 17.333 -70.667 40 -102 68c-55.333 50 -97 106 -125 168c-27.333 62.667 -41 132 -41 208s13.667 145 41 207c28 61.333 69.667 117 125 167
c31.333 28 65.333 50.667 102 68c35.333 18 75.333 31 120 39c36.667 8 78.334 12.333 125.001 13v-1h46c-15.333 50 -23 103.667 -23 161c0 76 13.667 145 41 207c28 61.333 69.667 117 125 167c31.333 28 65.333 50.667 102 68c35.333 18 75.333 31 120 39
c41.333 8.66699 88.666 13 141.999 13h299v-335h-388c-8.66699 -2.66699 -16.334 -5.66699 -23.001 -9c-30 -16 -52.667 -38 -68 -66c-16.667 -26.667 -25.334 -54.667 -26.001 -84c0.666992 -29.333 9.33398 -57.666 26.001 -84.999c15.333 -28 38 -50 68 -66
c7.33301 -4 16 -7.33301 26 -10h381v-11h2v-324h-851v1zM920 1337l224 223l223 -223l-223 -224z" />
    <glyph glyph-name="afii57441" unicode="&#x641;" horiz-adv-x="1900" arabic-form="isolated" 
d="M1522 516c-3.33301 39.333 -19.001 73.334 -47.001 102.001c-32.667 32 -71.667 48 -117 48c-47.333 0 -86.666 -16.667 -117.999 -50c-32.667 -32.667 -49 -74 -49 -124c0 -28 6.33301 -59 19 -93h-293c-14 53.333 -21 102.666 -21 147.999
c0 85.333 20.333 162.333 61 231c40 70 94.667 124 164 162c70.667 40 149 60 235 60c90.667 0 178.334 -22.667 263.001 -68c76.667 -44.667 137.334 -105.334 182.001 -182.001c37.333 -62.667 56.666 -130 57.999 -202c0 -55.333 -4.33301 -104.333 -13 -147
c-8.66699 -46 -22.334 -87.333 -41.001 -124c-18 -37.333 -41.333 -72.333 -70 -105c-52 -57.333 -110 -100.333 -174 -129c-58.667 -26 -123.334 -40.333 -194.001 -43h-805c-118.667 0.666992 -215.334 22.667 -290.001 66c-59.333 33.333 -109 81 -149 143
c-40.667 61.333 -67 131.666 -79 210.999c-24 150.667 10 292.334 102 425.001l280 -210c-33.333 -53.333 -46.333 -109 -39 -167c7.33301 -52.667 28 -87.667 62 -105c34.667 -18 94.334 -27.333 179.001 -28h675c39.333 0.666992 72 4 98 10
c11.333 4.66699 22.333 10.334 33 17.001c29.333 16 52 39.333 68 70c10.667 20 17.334 48 20.001 84zM1130 1337l224 223l223 -223l-223 -224z" />
    <glyph glyph-name="afii57442" unicode="&#x642;" horiz-adv-x="1400" arabic-form="isolated" 
d="M1007 246h-1.99805v204c0 62.667 -7.66699 108.667 -23 138c-14 27.333 -33.667 48 -59 62c-24 15.333 -51.667 23 -83 23c-48 0 -88 -16.333 -120 -49c-33.333 -33.333 -50 -72.666 -50 -117.999c0 -48 17.333 -88.333 52 -121c32 -32.667 73.333 -49 124 -49
c29.333 0 60.666 6.66699 93.999 20v-287c-54 -20.667 -103.333 -31 -148 -31c-87.333 0 -165.333 20.333 -234 61c-71.333 40.667 -126.666 96 -165.999 166c-39.333 71.333 -59 151 -59 239c0 91.333 22.667 175.666 68 252.999c44.667 77.333 106 138.666 184 183.999
c77.333 45.333 161 68 251 68c57.333 0 114.333 -9.33301 171 -28c53.333 -20 103.666 -48.667 150.999 -86c44.667 -37.333 82 -80.333 112 -129c24.667 -41.333 42 -83.666 52 -126.999c10 -44.667 15 -102.667 15 -174v-219c0 -116 -28.667 -223.667 -86 -323
c-56.667 -99.333 -135.334 -177.666 -236.001 -234.999c-98.667 -58 -206.334 -87 -323.001 -87c-115.333 0 -223 28.667 -323 86s-178.667 136 -236 236c-57.333 99.333 -86 207 -86 323l330 1v-1c0 -56.667 14.333 -109.334 43 -158.001c28 -48 66 -85.667 114 -113
c48.667 -29.333 101.334 -44 158.001 -44s109.334 14.667 158.001 44c49.333 27.333 87.666 65 114.999 113c28 48 42 100.667 42 158zM1052 1560l223 -223l-223 -224l-224 224zM605.002 1560l223 -223l-223 -224l-224 224z" />
    <glyph glyph-name="afii57443" unicode="&#x643;" horiz-adv-x="2000" arabic-form="isolated" 
d="M1416 0h-579c-270 -0 -472.667 67.833 -608 203.5s-206.333 286.167 -213 451.5h339c34.667 -212.667 175.334 -319 422.001 -319h75v-1h564c32 0 62.333 9 91 27c29.333 16 52 39.333 68 70c13.333 26 21 65 23 117h-1v788h335v-789
c0 -55.333 -4.33301 -104.333 -13 -147c-8.66699 -46 -22.334 -87.333 -41.001 -124c-18 -37.333 -41.333 -72.333 -70 -105c-52 -57.333 -110 -100.333 -174 -129c-65.333 -28.667 -138 -43 -218 -43zM1279 878v-168.002h-383c-125.333 0 -194 72.667 -206 218h82
c26.667 -30.667 48.667 -46.667 66 -48c-24 42.667 -36.333 90.334 -37 143.001l2 28c0 33.333 11.333 61.333 34 84c24 23.333 53.333 35 88 35h335v-164h-296c4 -33.333 20.667 -61.666 50 -84.999c28 -22.667 62.333 -37 103 -43h162z" />
    <glyph glyph-name="afii57444" unicode="&#x644;" horiz-adv-x="1138" arabic-form="isolated" 
d="M1109 369c0 -260 -141.331 -427.668 -423.998 -503.001l-72 -8h-103c-194 0 -347.333 106.667 -460 320c-21.333 56.667 -32 108.334 -32 155.001v75c0 194.667 112.333 348.667 337 462c55.333 20 102.666 30 141.999 30v-305c-116 0 -174 -67.333 -174 -202v-38
c26 -133.333 88.333 -200 187 -200h96c99.333 0 161.666 66.667 186.999 200v986h316v-972z" />
    <glyph glyph-name="afii57445" unicode="&#x645;" horiz-adv-x="1098" arabic-form="isolated" 
d="M746 -495c-36 -3.33301 -68.999 -5 -98.999 -5c-76 0 -144 8 -204 24c-61.333 15.333 -114.333 40 -159 74c-48.667 35.333 -89 78 -121 128c-32 47.333 -54.333 98.333 -67 153c-13.333 52.667 -20 121.334 -20 206.001v351c0 73.333 5 132.666 15 177.999
c10.667 44 28.667 87 54 129c30.667 49.333 68.667 93 114 131c48 38.667 99.333 68 154 88c57.333 19.333 115 29 173 29c92.667 0 178.667 -23 258 -69c78.667 -46 141.334 -108.667 188.001 -188c46 -78.667 69 -165 69 -259c0 -89.333 -20.333 -170 -61 -242
c-40 -72 -96 -128.667 -168 -170c-70.667 -42 -150.334 -63 -239.001 -63c-46 -0 -96.667 7.33301 -152 22v303c34.667 -13.333 66.667 -20 96 -20c52 0 94.333 16.667 127 50c35.333 32.667 53 73.334 53 122.001c0 47.333 -17 87.666 -51 120.999
c-32.667 33.333 -74 50 -124 50c-30.667 0 -58.667 -7.66699 -84 -23c-25.333 -14 -45 -35.333 -59 -64c-16 -29.333 -24 -76 -24 -140v-319c0 -76 6.66699 -131.667 20 -167c17.333 -46.667 47.333 -82.334 90 -107.001c44 -24.667 98.333 -37 163 -37
c33.333 0 61.666 2.66699 84.999 8c27.333 5.33301 56.333 13.333 87 24v-299c-43.333 -9.33301 -81.333 -15.666 -114 -18.999z" />
    <glyph glyph-name="afii57446" unicode="&#x646;" horiz-adv-x="1400" arabic-form="isolated" 
d="M1021 990l334.001 -0.00292969v-354c-2.66699 -111.333 -31.667 -214.666 -87 -309.999c-58 -100 -137.667 -179.333 -239 -238c-99.333 -58.667 -208.333 -88 -327 -88c-117.333 0 -226 29 -326 87c-100.667 58.667 -180.334 138.334 -239.001 239.001
c-56 96.667 -85 201.334 -87 314.001v350h334v-333c2.66699 -51.333 17 -99.333 43 -144c28.667 -48.667 67.334 -87.334 116.001 -116.001c49.333 -28.667 102.333 -43 159 -43c57.333 0 110.666 14.333 159.999 43c50 28.667 89 67.334 117 116.001
c25.333 44.667 39.333 93 42 145v332zM479.001 989.997l224 223l223 -223l-223 -224z" />
    <glyph glyph-name="afii57470" unicode="&#x647;" horiz-adv-x="1100" arabic-form="isolated" 
d="M12 655v335.001h547c53.333 0 100.666 -4.33301 141.999 -13c44.667 -8 84.667 -21 120 -39c36.667 -17.333 70.667 -40 102 -68c55.333 -50 97 -105.667 125 -167c27.333 -62 41 -131 41 -207s-13.667 -145.333 -41 -208c-28 -62 -69.667 -118 -125 -168
c-31.333 -28 -65.333 -50.667 -102 -68c-35.333 -18 -75.333 -31 -120 -39c-41.333 -8.66699 -88.666 -13 -141.999 -13h-547v594h335v-270h211v-1c50.667 2 88.334 9.33301 113.001 22c30 16 52.667 38 68 66c16.667 27.333 25.334 55.666 26.001 84.999
c-0.666992 29.333 -9.33398 57.333 -26.001 84c-15.333 28 -38 50 -68 66c-6.66699 3.33301 -14.334 6.33301 -23.001 9h-636z" />
    <glyph glyph-name="afii57448" unicode="&#x648;" horiz-adv-x="1257" arabic-form="isolated" 
d="M1149 0c-2.66699 -36 -6.99707 -69 -12.9971 -99c-8.66699 -46 -22.334 -87.333 -41.001 -124c-18 -37.333 -41.333 -72.333 -70 -105c-52 -57.333 -110 -100.333 -174 -129c-58.667 -26 -123.334 -40.333 -194.001 -43h-84v335c47.333 0 74.666 0.333008 81.999 1
c24 3.33301 47 12 69 26c29.333 16 52 39.333 68 70c8.66699 17.333 15 40 19 68h-209c-53.333 -0 -100.666 4.33301 -141.999 13c-44.667 8 -84.667 21 -120 39c-36.667 17.333 -70.667 40 -102 68c-55.333 50 -97 105.667 -125 167c-27.333 62 -41 131 -41 207
s13.667 145.333 41 208c28 62 69.667 118 125 168c31.333 28 65.333 50.667 102 68c35.333 18 75.333 31 120 39c41.333 8.66699 88.666 13 141.999 13h547v-990zM513.003 335l301 -0.000976562v331h-211v1c-50.667 -2 -88.334 -9.33301 -113.001 -22
c-30 -16 -52.667 -38 -68 -66c-16.667 -27.333 -25.334 -55.666 -26.001 -84.999c0.666992 -29.333 9.33398 -57.333 26.001 -84c15.333 -28 38 -50 68 -66c6.66699 -3.33301 14.334 -6.33301 23.001 -9z" />
    <glyph glyph-name="afii57449" unicode="&#x649;" horiz-adv-x="1400" arabic-form="isolated" 
d="M67 990l323.995 0.00195312v-496c1.33301 -28.667 10 -56.334 26 -83.001c15.333 -28 38 -50 68 -66c24.667 -12.667 62.334 -20 113.001 -22v1h148v-1c50.667 2 88.334 9.33301 113.001 22c30 16 52.667 38 68 66c16.667 27.333 25.334 55.666 26.001 84.999v159h-273
v335h710v-335h-113v-159c0 -76 -13.667 -145.333 -41 -208c-28 -62 -69.667 -118 -125 -168c-31.333 -28 -65.333 -50.667 -102 -68c-35.333 -18 -75.333 -31 -120 -39c-41.333 -8.66699 -88.666 -13 -141.999 -13h-150c-53.333 -0 -100.666 4.33301 -141.999 13
c-44.667 8 -84.667 21 -120 39c-36.667 17.333 -70.667 40 -102 68c-55.333 50 -97 106 -125 168c-27.333 62 -41 130.667 -41 206v496z" />
    <glyph glyph-name="afii57450" unicode="&#x64a;" horiz-adv-x="1400" arabic-form="isolated" 
d="M67 990l323.995 0.00195312v-496c1.33301 -28.667 10 -56.334 26 -83.001c15.333 -28 38 -50 68 -66c24.667 -12.667 62.334 -20 113.001 -22v1h148v-1c50.667 2 88.334 9.33301 113.001 22c30 16 52.667 38 68 66c16.667 27.333 25.334 55.666 26.001 84.999v159h-273
v335h710v-335h-113v-159c0 -76 -13.667 -145.333 -41 -208c-28 -62 -69.667 -118 -125 -168c-31.333 -28 -65.333 -50.667 -102 -68c-35.333 -18 -75.333 -31 -120 -39c-41.333 -8.66699 -88.666 -13 -141.999 -13h-150c-53.333 -0 -100.666 4.33301 -141.999 13
c-44.667 8 -84.667 21 -120 39c-36.667 17.333 -70.667 40 -102 68c-55.333 50 -97 106 -125 168c-27.333 62 -41 130.667 -41 206v496zM708.995 -268.998l223 223l223 -224l-223 -223l-223 223l-224 -223l-223 223l223 224z" />
    <glyph glyph-name="afii57451" unicode="&#xfe70;" arabic-form="isolated" 
d="M140 649c6.66699 -18 10 -32.333 10 -43c0 -33.333 -21 -58 -63 -74l-147 -58c-49.333 -18.667 -74 -38 -74 -58c0 -3.33301 0.333008 -6 1 -8l-26 -2c-6.66699 18.667 -10 33 -10 43c0 32.667 20.667 58 62 76l147 57c50.667 20 76 40.333 76 61zM128 765
c6.66699 -18 10 -32.333 10 -43c0 -33.333 -21 -58 -63 -74l-147 -58c-49.333 -18.667 -74 -38 -74 -58c0 -3.33301 0.333008 -6 1 -8l-26 -2c-6.66699 18.667 -10 33 -10 43c0 32.667 20.667 58 62 76l147 57c50.667 20 76 40.333 76 61z" />
    <glyph glyph-name="afii57452" unicode="&#xfe72;" arabic-form="isolated" 
d="M-135 516c26 43.333 39 76.334 39 99.001c0 11.333 -5 17 -15 17c-25.333 0 -60.333 -20.333 -105 -61c4.66699 18.667 21.667 41 51 67c30 26 55.333 39 76 39c26.667 0 40 -14.333 40 -43c0 -54.667 -30.333 -108.334 -91 -161.001l-14 12zM112 508.001
c-42 -72.667 -97.332 -108.999 -165.999 -108.999c-51.333 0 -92 22 -122 66l17 16c28 -30.667 57.667 -46 89 -46c56 0 102 32 138 96l1 2c-28 0 -52.333 11 -73 33c-19.333 21.333 -29 44.333 -29 69c0 15.333 3.33301 28.666 10 39.999v-1c30.667 55.333 67 83 109 83
c10 0 23.667 -2.33301 41 -7l74 -42c12 0 24.667 -4 38 -12l-2 -24c-2.66699 1.33301 -6.33398 2 -11.001 2c-11.333 0 -24 -12.667 -38 -38l-30 -54zM85.001 707.002c-20 0 -35.998 -9.33301 -47.998 -28v1c-14 -34.667 -21 -50 -21 -46c0 -10 5.33301 -20.333 16 -31
c11.333 -12.667 24.666 -19 39.999 -19c20 0 46 32 78 96c-48.667 18 -70.334 27 -65.001 27z" />
    <glyph glyph-name="afii57453" unicode="&#xfe74;" arabic-form="isolated" 
d="M144 -248c8.66699 -26 13 -42.999 13 -50.999c0 -37.333 -23 -65 -69 -83l-144 -57c-43.333 -17.333 -65 -36 -65 -56c0 -4 0.333008 -7 1 -9l-43 -1c-8 24 -12 41.333 -12 52c0 37.333 22 64.666 66 81.999l145 57c45.333 18 68 35.333 68 52l-1 6zM144 -104.999
c8.66699 -26 13 -42.999 13 -50.999c0 -37.333 -23 -65 -69 -83l-144 -57c-43.333 -17.333 -65 -36 -65 -56c0 -4 0.333008 -7 1 -9l-43 -1c-8 24 -12 41.333 -12 52c0 37.333 22 64.666 66 81.999l145 57c45.333 18 68 35.333 68 52l-1 6z" />
    <glyph glyph-name="afii57454" unicode="&#xfe76;" arabic-form="isolated" 
d="M144 657c8.66699 -26 13 -43.334 13 -52.001c0 -37.333 -23 -65 -69 -83l-144 -57c-43.333 -17.333 -65 -35.666 -65 -54.999c0 -4 0.333008 -7 1 -9l-43 -2c-8 24 -12 41.333 -12 52c0 38 22 65.667 66 83l145 57c45.333 18 68 35 68 51l-1 6z" />
    <glyph glyph-name="afii57455" unicode="&#xfe78;" arabic-form="isolated" 
d="M-88 399c-51.333 0 -95.667 24.999 -133 74.999l30 29c28.667 -32.667 57.667 -49 87 -49c48.667 0 88.667 26 120 78c-27.333 5.33301 -50 19 -68 41c-16.667 20.667 -25 43.334 -25 68.001c0 14 3.33301 28.333 10 43v-1c28.667 58 67.667 87 117 87
c2 0 11.333 -4.33301 28 -13c24 -12.667 53 -24.667 87 -36c13.333 -1.33301 28 -6 44 -14l-2 -45c-6 2.66699 -11.667 4 -17 4c-11.333 0 -22 -9.66699 -32 -29c0 0.666992 -10 -17.333 -30 -54c-72 -122.667 -144 -184 -216 -184zM93.999 683.999v-1c-22 12 -37 18 -45 18
c-18 0 -31 -7.66699 -39 -23v1c-12.667 -30.667 -19 -44 -19 -40c0 -8 4 -16 12 -24c9.33301 -10 20 -15 32 -15c13.333 0 35 27 65 81z" />
    <glyph glyph-name="afii57456" unicode="&#xfe7a;" arabic-form="isolated" 
d="M144 -62c8.66699 -26 13 -42.999 13 -50.999c0 -37.333 -23 -65 -69 -83l-144 -57c-43.333 -17.333 -65 -36 -65 -56c0 -4 0.333008 -7 1 -9l-43 -1c-8 24 -12 41.333 -12 52c0 37.333 22 64.666 66 81.999l145 57c45.333 18 68 35.333 68 52l-1 6z" />
    <glyph glyph-name="afii57457" unicode="&#xfe7c;" arabic-form="isolated" 
d="M-262 751l68.999 26.001l51 -131c9.33301 -24.667 24.333 -37 45 -37c6.66699 0 11.667 0.666992 15 2l-1 -1c19.333 8.66699 29 22.667 29 42c0 6 -0.666992 10.667 -2 14l-55 142l68 26l51 -131c8.66699 -24.667 24.334 -37 47.001 -37c12 0 22.333 4.33301 31 13
c8 8.66699 12 18.667 12 30c0 6 -1 11.333 -3 16l-28 73c-2.66699 6 -4.66699 18 -6 36c0 30.667 24.333 56.667 73 78l1 -44c-4.66699 -2.66699 -7 -7.66699 -7 -15c0 -8 4.66699 -23.333 14 -46l22 -57c4 -16 6 -29 6 -39c0 -30.667 -10.667 -57.334 -32 -80.001
c-22 -24 -49.333 -36 -82 -36c-12 0 -27.667 3 -47 9c-20 -44.667 -57.333 -67 -112 -67c-48.667 0 -82.667 21 -102 63z" />
    <glyph glyph-name="afii57458" unicode="&#xfe7e;" arabic-form="isolated" 
d="M23 619c8.66699 8.66699 13 18.667 13 30v74h-36c-15.333 0 -28.333 -4.66699 -39 -14c-10 -9.33301 -15 -21 -15 -35v-35c0 -8.66699 4.66699 -16 14 -22c9.33301 -6.66699 20.666 -10 33.999 -10c10.667 0 20.334 4 29.001 12zM71 794
c12.667 5.33301 31.333 9.00098 56 11.001v-44c-14 -1.33301 -21 -19.333 -21 -54v-59c0 -30.667 -11 -57 -33 -79s-48.333 -33 -79 -33c-33.333 0 -61.333 9.66699 -84 29c-24 19.333 -36 43.666 -36 72.999v36c0 31.333 12 59 36 83c24 24.667 52 37 84 37h77z" />
    <glyph glyph-name="uni0671" unicode="&#x671;" horiz-adv-x="525" arabic-form="isolated" 
d="M468 0h-335v1332h335v-1332z" />
    <glyph glyph-name="afii57511" unicode="&#x679;" horiz-adv-x="1700" arabic-form="isolated" 
d="M771 336l581.999 -1v655h335v-990h-492h-365c-270 -0 -472.667 67.833 -608 203.5s-206.333 286.167 -213 451.5h339c34.667 -212.667 175.334 -319 422.001 -319zM843.999 893c16.667 7.33301 36.333 11 59 11c28.667 0 53.667 -6.33301 75 -19s38.333 -29.667 51 -51
c12 -22.667 18 -46.667 18 -72v-116h-337l36 86h216v32c0 13.333 -5.33301 25.333 -16 36c-10 10.667 -24.333 16 -43 16s-33 -5.66699 -43 -17c-10 -9.33301 -15.333 -21.333 -16 -36v-6h-86v252h86v-116z" />
    <glyph glyph-name="afii57506" unicode="&#x67e;" horiz-adv-x="1700" arabic-form="isolated" 
d="M771 336l581.999 -1v655h335v-990h-492h-365c-270 -0 -472.667 67.833 -608 203.5s-206.333 286.167 -213 451.5h339c34.667 -212.667 175.334 -319 422.001 -319zM788.999 -593l224 224l223 -224l-223 -223zM1014 -269l223 223l223 -224l-223 -223l-223 223l-224 -223
l-223 223l223 224z" />
    <glyph glyph-name="afii57507" unicode="&#x686;" horiz-adv-x="1531" arabic-form="isolated" 
d="M817 335h186c8.66699 2.66699 16.334 5.66699 23.001 9c30 16 52.667 38 68 66c16.667 26.667 25.334 54.667 26.001 84c-0.666992 29.333 -9.33398 57.666 -26.001 84.999c-15.333 28 -38 50 -68 66c-24.667 12.667 -62.334 20 -113.001 22v-1h-462v324h463
c53.333 0 100.666 -4.33301 141.999 -13c44.667 -8 84.667 -21 120 -39c36.667 -17.333 70.667 -40 102 -68c55.333 -50 97 -106 125 -168c27.333 -62.667 41 -132 41 -208s-13.667 -145 -41 -207c-28 -61.333 -69.667 -117 -125 -167c-31.333 -28 -65.333 -50.667 -102 -68
c-35.333 -18 -75.333 -31 -120 -39c-41.333 -8.66699 -88.666 -13 -141.999 -13h-117v1h-286c-8.66699 -2.66699 -16.334 -5.66699 -23.001 -9c-30 -16 -52.667 -38 -68 -66c-16.667 -26.667 -25.334 -54.667 -26.001 -84c0.666992 -29.333 9.33398 -57.666 26.001 -84.999
c15.333 -28 38 -50 68 -66c24.667 -12.667 62.334 -20 113.001 -22v1h32v-324h-33c-53.333 0 -100.666 4.33301 -141.999 13c-44.667 8 -84.667 21 -120 39c-36.667 17.333 -70.667 40 -102 68c-55.333 50 -97 106 -125 168c-27.333 62.667 -41 132 -41 208
s13.667 145 41 207c28 61.333 69.667 117 125 167c31.333 28 65.333 50.667 102 68c35.333 18 75.333 31 120 39c41.333 8.66699 88.666 13 141.999 13h217v-1zM862 -653l224 224l223 -224l-223 -223zM1085 -329l223 223l223 -224l-223 -223l-223 222l-223 -222l-223 223
l223 224z" />
    <glyph glyph-name="afii57512" unicode="&#x688;" horiz-adv-x="999" arabic-form="isolated" 
d="M529 335c8.66699 2.66699 16.334 5.66797 23.001 9.00098c30 16 52.667 38 68 66c16.667 26.667 25.334 54.667 26.001 84c-0.666992 29.333 -9.33398 57.666 -26.001 84.999c-15.333 28 -38 50 -68 66c-24.667 12.667 -62.334 20 -113.001 22v-1h-396v324h397
c53.333 0 100.666 -4.33301 141.999 -13c44.667 -8 84.667 -21 120 -39c36.667 -17.333 70.667 -40 102 -68c55.333 -50 97 -106 125 -168c27.333 -62.667 41 -132 41 -208s-13.667 -145 -41 -207c-28 -61.333 -69.667 -117 -125 -167c-31.333 -28 -65.333 -50.667 -102 -68
c-35.333 -18 -75.333 -31 -120 -39c-41.333 -8.66699 -88.666 -13 -141.999 -13h-399v335h488zM154 1293c16.667 7.33301 36.333 11 59 11c28.667 0 53.667 -6.33301 75 -19s38.333 -29.667 51 -51c12 -22.667 18 -46.667 18 -72v-116h-337l36 86h216v32
c0 13.333 -5.33301 25.333 -16 36c-10 10.667 -24.333 16 -43 16s-33 -5.66699 -43 -17c-10 -9.33301 -15.333 -21.333 -16 -36v-6h-86v252h86v-116z" />
    <glyph glyph-name="afii57513" unicode="&#x691;" horiz-adv-x="600" arabic-form="isolated" 
d="M223 990h335.003v-990c-2.66699 -36 -7 -69 -13 -99c-8.66699 -46 -22.334 -87.333 -41.001 -124c-18 -37.333 -41.333 -72.333 -70 -105c-52 -57.333 -110 -100.333 -174 -129c-58.667 -26 -123.334 -40.333 -194.001 -43h-84v335c47.333 0 74.666 0.333008 81.999 1
c24 3.33301 47 12 69 26c29.333 16 52 39.333 68 70c8.66699 17.333 16 40 22 68v990zM354.003 1293c16.667 7.33301 36.333 11 59 11c28.667 0 53.667 -6.33301 75 -19s38.333 -29.667 51 -51c12 -22.667 18 -46.667 18 -72v-116h-337l36 86h216v32
c0 13.333 -5.33301 25.333 -16 36c-10 10.667 -24.333 16 -43 16s-33 -5.66699 -43 -17c-10 -9.33301 -15.333 -21.333 -16 -36v-6h-86v252h86v-116z" />
    <glyph glyph-name="afii57508" unicode="&#x698;" horiz-adv-x="889" arabic-form="isolated" 
d="M313 990h335.003v-990c-2.66699 -36 -7 -69 -13 -99c-8.66699 -46 -22.334 -87.333 -41.001 -124c-18 -37.333 -41.333 -72.333 -70 -105c-52 -57.333 -110 -100.333 -174 -129c-58.667 -26 -123.334 -40.333 -194.001 -43h-84v335c47.333 0 74.666 0.333008 81.999 1
c24 3.33301 47 12 69 26c29.333 16 52 39.333 68 70c8.66699 17.333 16 40 22 68v990zM447.003 1880l223 -223l-223 -224l-224 224zM448.003 1334l223 223l223 -223l-223 -224l-223 224l-224 -224l-223 224l223 223z" />
    <glyph glyph-name="afii57505" unicode="&#x6a4;" horiz-adv-x="1900" arabic-form="isolated" 
d="M1522 516c-3.33301 39.333 -19.001 73.334 -47.001 102.001c-32.667 32 -71.667 48 -117 48c-47.333 0 -86.666 -16.667 -117.999 -50c-32.667 -32.667 -49 -74 -49 -124c0 -28 6.33301 -59 19 -93h-293c-14 53.333 -21 102.666 -21 147.999
c0 85.333 20.333 162.333 61 231c40 70 94.667 124 164 162c70.667 40 149 60 235 60c90.667 0 178.334 -22.667 263.001 -68c76.667 -44.667 137.334 -105.334 182.001 -182.001c37.333 -62.667 56.666 -130 57.999 -202c0 -55.333 -4.33301 -104.333 -13 -147
c-8.66699 -46 -22.334 -87.333 -41.001 -124c-18 -37.333 -41.333 -72.333 -70 -105c-52 -57.333 -110 -100.333 -174 -129c-58.667 -26 -123.334 -40.333 -194.001 -43h-805c-118.667 0.666992 -215.334 22.667 -290.001 66c-59.333 33.333 -109 81 -149 143
c-40.667 61.333 -67 131.666 -79 210.999c-24 150.667 10 292.334 102 425.001l280 -210c-33.333 -53.333 -46.333 -109 -39 -167c7.33301 -52.667 28 -87.667 62 -105c34.667 -18 94.334 -27.333 179.001 -28h675c39.333 0.666992 72 4 98 10
c11.333 4.66699 22.333 10.334 33 17.001c29.333 16 52 39.333 68 70c10.667 20 17.334 48 20.001 84zM1357 1880l223 -223l-223 -224l-224 224zM1358 1334l223 223l223 -223l-223 -224l-223 224l-224 -224l-223 224l223 223z" />
    <glyph glyph-name="uni06A9" unicode="&#x6a9;" horiz-adv-x="2400" arabic-form="isolated" 
d="M2351 959c-173.333 0 -361.667 45.667 -565 137c-138 54 -267.667 81 -389 81c-141.333 0 -307 -38 -497 -114v277c190 75.333 355.333 113 496 113c122 0 251.667 -26.667 389 -80c204 -91.333 392.667 -137 566 -137v-277zM851.999 335h924.998c60 0 103.667 7 131 21
c26.667 14 47.334 34 62.001 60c16 26 24 57.333 24 94c0 35.333 -17 68.333 -51 99c-34 30 -77.667 45 -131 45h-914v394h304v-59h574c94 0 173.667 -11.333 239 -34s125.333 -60.334 180 -113.001c51.333 -49.333 90.666 -107 118 -173c27.333 -66 41 -122.333 41 -169
c0 -58.667 -15 -122 -45 -190c-29.333 -66.667 -74 -127 -134 -181c-34 -30 -70.333 -54.333 -109 -73c-38 -19.333 -81 -33.666 -129 -42.999c-44 -8.66699 -97.667 -13 -161 -13h-939c-270 -0 -472.667 67.833 -608 203.5s-206.333 286.167 -213 451.5h339
c34.667 -212.667 175.334 -319 422.001 -319h75v-1z" />
    <glyph glyph-name="afii57509" unicode="&#x6af;" horiz-adv-x="2370" arabic-form="isolated" 
d="M852 335h923.999c60 0 103.667 7 131 21c26.667 14 47.334 34 62.001 60c16 26 24 57.333 24 94c0 35.333 -17 68.333 -51 99c-34 30 -77.667 45 -131 45h-913v394h304v-59h573c94 0 173.667 -11.333 239 -34s125.333 -60.334 180 -113.001
c51.333 -49.333 90.666 -107 117.999 -173s41 -122.333 41 -169c0 -58.667 -15 -122 -45 -190c-29.333 -66.667 -74 -127 -134 -181c-34 -30 -70.333 -54.333 -109 -73c-38 -19.333 -81 -33.666 -129 -42.999c-44 -8.66699 -97.667 -13 -161 -13h-938
c-270 -0 -472.667 67.833 -608 203.5s-206.333 286.167 -213 451.5h339c34.667 -212.667 175.334 -319 422.001 -319h75v-1zM2351 1173c-174 0 -362.333 45.667 -565 137c-138 54 -267.667 81 -389 81c-141.333 0 -307 -38 -497 -114v166c190 75.333 355.333 113 496 113
c122 0 251.667 -26.667 389 -80c203.333 -91.333 392 -137 566 -137v-166zM2351 971c-173.333 0 -361.667 45.667 -565 137c-138 54 -267.667 81 -389 81c-141.333 0 -307 -38 -497 -114v166c190 75.333 355.333 113 496 113c122 0 251.667 -26.667 389 -80
c204 -91.333 392.667 -137 566 -137v-166z" />
    <glyph glyph-name="uni06CC" unicode="&#x6cc;" horiz-adv-x="1400" arabic-form="isolated" 
d="M67 990l323.995 0.00195312v-496c1.33301 -28.667 10 -56.334 26 -83.001c15.333 -28 38 -50 68 -66c24.667 -12.667 62.334 -20 113.001 -22v1h148v-1c50.667 2 88.334 9.33301 113.001 22c30 16 52.667 38 68 66c16.667 27.333 25.334 55.666 26.001 84.999v159h-273
v335h710v-335h-113v-159c0 -76 -13.667 -145.333 -41 -208c-28 -62 -69.667 -118 -125 -168c-31.333 -28 -65.333 -50.667 -102 -68c-35.333 -18 -75.333 -31 -120 -39c-41.333 -8.66699 -88.666 -13 -141.999 -13h-150c-53.333 -0 -100.666 4.33301 -141.999 13
c-44.667 8 -84.667 21 -120 39c-36.667 17.333 -70.667 40 -102 68c-55.333 50 -97 106 -125 168c-27.333 62 -41 130.667 -41 206v496z" />
    <glyph glyph-name="uniFB51" unicode="&#x671;" horiz-adv-x="636" arabic-form="final" 
d="M467 549c2 -52 9.66797 -91 23.001 -117c16 -30.667 38.667 -54 68 -70c28.667 -18 59 -27 91 -27v-335c-80 -0 -152.667 14.333 -218 43c-64 28.667 -122 71.667 -174 129c-28.667 32.667 -52 67.667 -70 105c-18.667 36.667 -32.334 78 -41.001 124
c-8.66699 42.667 -13 91.667 -13 147v784h335v-783h-1z" />
    <glyph glyph-name="uniFB57" unicode="&#x67e;" horiz-adv-x="1722" arabic-form="final" 
d="M831 0c-270 0 -472.668 67.833 -608.001 203.5s-206.333 286.167 -213 451.5h339c34.667 -212.667 175.334 -319 422.001 -319l582 -1v655h335v-655h40v-335h-897zM1014 -269l223 223l223 -224l-223 -223l-223 223l-224 -223l-223 223l223 224zM788.999 -593l224 224
l223 -224l-223 -223z" />
    <glyph glyph-name="uniFB58" unicode="&#x67e;" horiz-adv-x="951" arabic-form="initial" 
d="M219 -593l224 224l223 -224l-223 -223zM457 362c29.333 16 52.0029 39.333 68.0029 70c13.333 26 20.666 65 21.999 117v442h335v-443c0 -55.333 -4.33301 -104.333 -13 -147c-8.66699 -46 -22.334 -87.333 -41.001 -124c-18 -37.333 -41.333 -72.333 -70 -105
c-52 -57.333 -110 -100.333 -174 -129c-58.667 -26 -123.334 -40.333 -194.001 -43h-394v335c254 0 384.667 0.333008 392 1c24 3.33301 47 12 69 26zM444.003 -269l223 223l223 -224l-223 -223l-223 223l-224 -223l-223 223l223 224z" />
    <glyph glyph-name="uniFB59" unicode="&#x67e;" horiz-adv-x="900" arabic-form="medial" 
d="M554 204c-8 -10.667 -16.6641 -21.333 -25.9971 -32c-52 -57.333 -110 -100.333 -174 -129c-58.667 -26 -123.334 -40.333 -194.001 -43h-164v335c100.667 0 154.667 0.333008 162 1c24 3.33301 47 12 69 26c29.333 16 52 39.333 68 70c13.333 26 20.666 65 21.999 117
v442h335v-443c0 -55.333 -4.33301 -104.333 -13 -147c-4.66699 -23.333 -10.334 -45.333 -17.001 -66h289v-335h-357v204zM444.003 -268.999l223 223l223 -224l-223 -223l-223 223l-224 -223l-223 223l223 224zM219.003 -592.999l224 224l223 -224l-223 -223z" />
    <glyph glyph-name="uniFB67" unicode="&#x679;" horiz-adv-x="1722" arabic-form="final" 
d="M831 0c-270 0 -472.668 67.833 -608.001 203.5s-206.333 286.167 -213 451.5h339c34.667 -212.667 175.334 -319 422.001 -319l582 -1v655h335v-655h40v-335h-897zM843.999 893c16.667 7.33301 36.333 11 59 11c28.667 0 53.667 -6.33301 75 -19s38.333 -29.667 51 -51
c12 -22.667 18 -46.667 18 -72v-116h-337l36 86h216v32c0 13.333 -5.33301 25.333 -16 36c-10 10.667 -24.333 16 -43 16s-33 -5.66699 -43 -17c-10 -9.33301 -15.333 -21.333 -16 -36v-6h-86v252h86v-116z" />
    <glyph glyph-name="uniFB68" unicode="&#x679;" horiz-adv-x="571" arabic-form="initial" 
d="M147 362c29.333 16 52.0039 39.333 68.0039 70c13.333 26 20.666 65 21.999 117v442h335v-443c0 -55.333 -4.33301 -104.333 -13 -147c-8.66699 -46 -22.334 -87.333 -41.001 -124c-18 -37.333 -41.333 -72.333 -70 -105c-52 -57.333 -110 -100.333 -174 -129
c-58.667 -26 -123.334 -40.333 -194.001 -43h-84v335c47.333 0 74.666 0.333008 81.999 1c24 3.33301 47 12 69 26zM154.004 1293c16.667 7.33301 36.333 11 59 11c28.667 0 53.667 -6.33301 75 -19s38.333 -29.667 51 -51c12 -22.667 18 -46.667 18 -72v-116h-337l36 86
h216v32c0 13.333 -5.33301 25.333 -16 36c-10 10.667 -24.333 16 -43 16s-33 -5.66699 -43 -17c-10 -9.33301 -15.333 -21.333 -16 -36v-6h-86v252h86v-116z" />
    <glyph glyph-name="uniFB69" unicode="&#x679;" horiz-adv-x="571" arabic-form="medial" 
d="M464 191c-5.33301 -6.66699 -10.6631 -13 -15.9961 -19c-52 -57.333 -110 -100.333 -174 -129c-58.667 -26 -123.334 -40.333 -194.001 -43h-84v335c47.333 0 74.666 0.333008 81.999 1c24 3.33301 47 12 69 26c29.333 16 52 39.333 68 70
c13.333 26 20.666 65 21.999 117v442h335v-443c0 -55.333 -4.33301 -104.333 -13 -147c-4.66699 -23.333 -10.334 -45.333 -17.001 -66h30v-335h-108v191zM154.003 1293c16.667 7.33301 36.333 11 59 11c28.667 0 53.667 -6.33301 75 -19s38.333 -29.667 51 -51
c12 -22.667 18 -46.667 18 -72v-116h-337l36 86h216v32c0 13.333 -5.33301 25.333 -16 36c-10 10.667 -24.333 16 -43 16s-33 -5.66699 -43 -17c-10 -9.33301 -15.333 -21.333 -16 -36v-6h-86v252h86v-116z" />
    <glyph glyph-name="uniFB6B" unicode="&#x6a4;" horiz-adv-x="1900" arabic-form="final" 
d="M1358 1334l-224 -224l-223 224l223 223zM1357 1880l223 -223l-223 -224l-224 224zM1751 191c-5.33301 -6.66699 -10.668 -12.999 -16.001 -18.999c-52 -57.333 -110 -100.333 -174 -129c-58.667 -26 -123.334 -40.333 -194.001 -43h-805
c-118.667 0.666992 -215.334 22.667 -290.001 66c-59.333 33.333 -109 81 -149 143c-40.667 61.333 -67 131.666 -79 210.999c-24 150.667 10 292.334 102 425.001l280 -210c-33.333 -53.333 -46.333 -109 -39 -167c7.33301 -52.667 28 -87.667 62 -105
c34.667 -18 94.334 -27.333 179.001 -28h675c39.333 0.666992 72 4 98 10c11.333 4.66699 22.333 10.334 33 17.001c29.333 16 52 39.333 68 70c10.667 20 17.334 48 20.001 84c-3.33301 39.333 -19 73.333 -47 102c-32.667 32 -71.667 48 -117 48
c-47.333 0 -86.666 -16.667 -117.999 -50c-32.667 -32.667 -49 -74 -49 -124c0 -28 6.33301 -59 19 -93h-293c-14 53.333 -21 102.666 -21 147.999c0 85.333 20.333 162.333 61 231c40 70 94.667 124 164 162c70.667 40 149 60 235 60c90.667 0 178.334 -22.667 263.001 -68
c76.667 -44.667 137.334 -105.334 182.001 -182.001c37.333 -62.667 56.666 -130 57.999 -202c0 -55.333 -4.33301 -104.333 -13 -147c-4.66699 -23.333 -10.334 -45.333 -17.001 -66h85v-335h-163v191zM1358 1334l223 223l223 -223l-223 -224z" />
    <glyph glyph-name="uniFB6C" unicode="&#x6a4;" horiz-adv-x="1074" arabic-form="initial" 
d="M-13 335l483.999 0.000976562c39.333 0.666992 72 4 98 10c11.333 4.66699 22.333 10.334 33 17.001c29.333 16 52 39.333 68 70c10.667 20 17.334 48 20.001 84c-3.33301 39.333 -19 73.333 -47 102c-32.667 32 -71.667 48 -117 48
c-47.333 0 -86.666 -16.667 -117.999 -50c-32.667 -32.667 -49 -74 -49 -124c0 -28 6.33301 -59 19 -93h-293c-14 53.333 -21 102.666 -21 147.999c0 85.333 20.333 162.333 61 231c40 70 94.667 124 164 162c70.667 40 149 60 235 60c90.667 0 178.334 -22.667 263.001 -68
c76.667 -44.667 137.334 -105.334 182.001 -182.001c37.333 -62.667 56.666 -130 57.999 -202c0 -55.333 -4.33301 -104.333 -13 -147c-8.66699 -46 -22.334 -87.333 -41.001 -124c-18 -37.333 -41.333 -72.333 -70 -105c-52 -57.333 -110 -100.333 -174 -129
c-58.667 -26 -123.334 -40.333 -194.001 -43h-548v335zM516.999 1880l223 -223l-223 -224l-224 224zM517.999 1334l223 223l223 -223l-223 -224l-223 224l-224 -224l-223 224l223 223z" />
    <glyph glyph-name="uniFB6D" unicode="&#x6a4;" horiz-adv-x="1074" arabic-form="medial" 
d="M518 1334l-224 -224l-223 224l223 223zM517 1880l223 -223l-223 -224l-224 224zM919 191c-5.33301 -6.66699 -10.668 -12.999 -16.001 -18.999c-52 -57.333 -110 -100.333 -174 -129c-58.667 -26 -123.334 -40.333 -194.001 -43h-548v335h484c39.333 0.666992 72 4 98 10
c11.333 4.66699 22.333 10.334 33 17.001c29.333 16 52 39.333 68 70c10.667 20 17.334 48 20.001 84c-3.33301 39.333 -19 73.333 -47 102c-32.667 32 -71.667 48 -117 48c-47.333 0 -86.666 -16.667 -117.999 -50c-32.667 -32.667 -49 -74 -49 -124
c0 -28 6.33301 -59 19 -93h-293c-14 53.333 -21 102.666 -21 147.999c0 85.333 20.333 162.333 61 231c40 70 94.667 124 164 162c70.667 40 149 60 235 60c90.667 0 178.334 -22.667 263.001 -68c76.667 -44.667 137.334 -105.334 182.001 -182.001
c37.333 -62.667 56.666 -130 57.999 -202c0 -55.333 -4.33301 -104.333 -13 -147c-4.66699 -23.333 -10.334 -45.333 -17.001 -66h100v-335h-178v191zM517.998 1334l223 223l223 -223l-223 -224z" />
    <glyph glyph-name="uniFB7B" unicode="&#x686;" horiz-adv-x="1531" arabic-form="final" 
d="M1421 335h117v-335h-200v183c-18 -22 -38 -43 -60 -63c-31.333 -28 -65.333 -50.667 -102 -68c-35.333 -18 -75.333 -31 -120 -39c-41.333 -8.66699 -88.666 -13 -141.999 -13h-117v1h-286c-8.66699 -2.66699 -16.334 -5.66699 -23.001 -9c-30 -16 -52.667 -38 -68 -66
c-16.667 -26.667 -25.334 -54.667 -26.001 -84c0.666992 -29.333 9.33398 -57.666 26.001 -84.999c15.333 -28 38 -50 68 -66c24.667 -12.667 62.334 -20 113.001 -22v1h32v-324h-33c-53.333 0 -100.666 4.33301 -141.999 13c-44.667 8 -84.667 21 -120 39
c-36.667 17.333 -70.667 40 -102 68c-55.333 50 -97 106 -125 168c-27.333 62.667 -41 132 -41 208s13.667 145 41 207c28 61.333 69.667 117 125 167c31.333 28 65.333 50.667 102 68c35.333 18 75.333 31 120 39c41.333 8.66699 88.666 13 141.999 13h217v-1h186
c8.66699 2.66699 16.334 5.66699 23.001 9c30 16 52.667 38 68 66c16.667 26.667 25.334 54.667 26.001 84c-0.666992 29.333 -9.33398 57.666 -26.001 84.999c-15.333 28 -38 50 -68 66c-24.667 12.667 -62.334 20 -113.001 22v-1h-462v324h463
c53.333 0 100.666 -4.33301 141.999 -13c44.667 -8 84.667 -21 120 -39c36.667 -17.333 70.667 -40 102 -68c55.333 -50 97 -106 125 -168c27.333 -62.667 41 -132 41 -208c0 -56.667 -7.66699 -109.667 -23 -159zM1085 -329l223 223l223 -224l-223 -223l-223 222l-223 -222
l-223 223l223 224zM862 -653l224 224l223 -224l-223 -223z" />
    <glyph glyph-name="uniFB7C" unicode="&#x686;" horiz-adv-x="1273" arabic-form="initial" 
d="M777 335c8.66699 2.66699 16.334 5.66797 23.001 9.00098c30 16 52.667 38 68 66c16.667 26.667 25.334 54.667 26.001 84c-0.666992 29.333 -9.33398 57.666 -26.001 84.999c-15.333 28 -38 50 -68 66c-24.667 12.667 -62.334 20 -113.001 22v-1h-462v324h463
c53.333 0 100.666 -4.33301 141.999 -13c44.667 -8 84.667 -21 120 -39c36.667 -17.333 70.667 -40 102 -68c55.333 -50 97 -106 125 -168c27.333 -62.667 41 -132 41 -208s-13.667 -145 -41 -207c-28 -61.333 -69.667 -117 -125 -167c-31.333 -28 -65.333 -50.667 -102 -68
c-35.333 -18 -75.333 -31 -120 -39c-41.333 -8.66699 -88.666 -13 -141.999 -13h-717v335h806zM644 -329.999l224 224l223 -224l-223 -223zM197 -329.999l223 224l224 -224l-224 -223zM420 -652.999l224 224l223 -224l-223 -223z" />
    <glyph glyph-name="uniFB7D" unicode="&#x686;" horiz-adv-x="1273" arabic-form="medial" 
d="M1195 335l97.999 0.000976562v-335h-183v180c-17.333 -20.667 -36.666 -40.667 -57.999 -60c-31.333 -28 -65.333 -50.667 -102 -68c-35.333 -18 -75.333 -31 -120 -39c-41.333 -8.66699 -88.666 -13 -141.999 -13h-717v335h806c8.66699 2.66699 16.334 5.66699 23.001 9
c30 16 52.667 38 68 66c16.667 26.667 25.334 54.667 26.001 84c-0.666992 29.333 -9.33398 57.666 -26.001 84.999c-15.333 28 -38 50 -68 66c-24.667 12.667 -62.334 20 -113.001 22v-1h-462v324h463c53.333 0 100.666 -4.33301 141.999 -13c44.667 -8 84.667 -21 120 -39
c36.667 -17.333 70.667 -40 102 -68c55.333 -50 97 -106 125 -168c27.333 -62.667 41 -132 41 -208c0 -56.667 -7.66699 -109.667 -23 -159zM419.999 -652.999l224 224l223 -224l-223 -223zM196.999 -329.999l223 224l224 -224l-224 -223zM643.999 -329.999l224 224
l223 -224l-223 -223z" />
    <glyph glyph-name="uniFB89" unicode="&#x688;" horiz-adv-x="999" arabic-form="final" 
d="M862 180c-17.333 -20.667 -36.667 -40.666 -58 -59.999c-31.333 -28 -65.333 -50.667 -102 -68c-35.333 -18 -75.333 -31 -120 -39c-41.333 -8.66699 -88.666 -13 -141.999 -13h-399v335h488c8.66699 2.66699 16.334 5.66699 23.001 9c30 16 52.667 38 68 66
c16.667 26.667 25.334 54.667 26.001 84c-0.666992 29.333 -9.33398 57.666 -26.001 84.999c-15.333 28 -38 50 -68 66c-24.667 12.667 -62.334 20 -113.001 22v-1h-396v324h397c53.333 0 100.666 -4.33301 141.999 -13c44.667 -8 84.667 -21 120 -39
c36.667 -17.333 70.667 -40 102 -68c55.333 -50 97 -106 125 -168c27.333 -62.667 41 -132 41 -208c0 -56.667 -7.66699 -109.667 -23 -159h78v-335h-163v180zM153.999 1293c16.667 7.33301 36.333 11 59 11c28.667 0 53.667 -6.33301 75 -19s38.333 -29.667 51 -51
c12 -22.667 18 -46.667 18 -72v-116h-337l36 86h216v32c0 13.333 -5.33301 25.333 -16 36c-10 10.667 -24.333 16 -43 16s-33 -5.66699 -43 -17c-10 -9.33301 -15.333 -21.333 -16 -36v-6h-86v252h86v-116z" />
    <glyph glyph-name="uniFB8B" unicode="&#x698;" horiz-adv-x="897" arabic-form="final" 
d="M303 990h335.003v-655h280v-335h-281c-2 -36 -6 -69 -12 -99c-8.66699 -46 -22.334 -87.333 -41.001 -124c-18 -37.333 -41.333 -72.333 -70 -105c-52 -57.333 -110 -100.333 -174 -129c-58.667 -26 -123.334 -40.333 -194.001 -43h-84v335
c47.333 0 74.666 0.333008 81.999 1c24 3.33301 47 12 69 26c29.333 16 52 39.333 68 70c8.66699 17.333 16 40 22 68v990zM447.003 1880l223 -223l-223 -224l-224 224zM448.003 1334l223 223l223 -223l-223 -224l-223 224l-224 -224l-223 224l223 223z" />
    <glyph glyph-name="uniFB8D" unicode="&#x691;" horiz-adv-x="600" arabic-form="final" 
d="M233 990h335.003v-655h70v-335h-71c-2 -36 -6 -69 -12 -99c-8.66699 -46 -22.334 -87.333 -41.001 -124c-18 -37.333 -41.333 -72.333 -70 -105c-52 -57.333 -110 -100.333 -174 -129c-58.667 -26 -123.334 -40.333 -194.001 -43h-84v335
c47.333 0 74.666 0.333008 81.999 1c24 3.33301 47 12 69 26c29.333 16 52 39.333 68 70c8.66699 17.333 16 40 22 68v990zM354.003 1293c16.667 7.33301 36.333 11 59 11c28.667 0 53.667 -6.33301 75 -19s38.333 -29.667 51 -51c12 -22.667 18 -46.667 18 -72v-116h-337
l36 86h216v32c0 13.333 -5.33301 25.333 -16 36c-10 10.667 -24.333 16 -43 16s-33 -5.66699 -43 -17c-10 -9.33301 -15.333 -21.333 -16 -36v-6h-86v252h86v-116z" />
    <glyph glyph-name="uniFB8F" unicode="&#x6a9;" horiz-adv-x="2391" arabic-form="final" 
d="M2351 959c-173.333 0 -361.667 45.667 -565 137c-138 54 -267.667 81 -389 81c-141.333 0 -307 -38 -497 -114v277c190 75.333 355.333 113 496 113c122 0 251.667 -26.667 389 -80c204 -91.333 392.667 -137 566 -137v-277zM2246 205
c-20.667 -26.667 -44.335 -52 -71.001 -76c-34 -30 -70.333 -54.333 -109 -73c-38 -19.333 -81 -33.666 -129 -42.999c-44 -8.66699 -97.667 -13 -161 -13h-939c-270 0 -472.667 67.833 -608 203.5s-206.333 286.167 -213 451.5h339
c34.667 -212.667 175.334 -319 422.001 -319h75v-1h925c60 0 103.667 7 131 21c26.667 14 47.334 34 62.001 60c16 26 24 57.333 24 94c0 35.333 -17 68.333 -51 99c-34 30 -77.667 45 -131 45h-914v394h304v-59h574c94 0 173.667 -11.333 239 -34
s125.333 -60.334 180 -113.001c51.333 -49.333 90.666 -107 117.999 -173s41 -122.333 41 -169c0 -51.333 -11.667 -106.333 -35 -165h79v-335h-152v205z" />
    <glyph glyph-name="uniFB90" unicode="&#x6a9;" horiz-adv-x="1532" arabic-form="initial" 
d="M350 989h574c94 0 173.667 -11.333 239 -34s125.333 -60.334 180 -113.001c51.333 -49.333 90.666 -107 117.999 -173s41 -122.333 41 -169c0 -58.667 -15 -122 -45 -190c-29.333 -66.667 -74 -127 -134 -181c-34 -30 -70.333 -54.333 -109 -73
c-38 -19.333 -81 -33.666 -129 -42.999c-44 -8.66699 -97.667 -13 -161 -13h-938v335h939c60 0 103.667 7 131 21c26.667 14 47.334 34 62.001 60c16 26 24 57.333 24 94c0 35.333 -17 68.333 -51 99c-34 30 -77.667 45 -131 45h-914v394h304v-59zM1499 959
c-173.333 0 -361.667 45.667 -565 137c-138 54 -267.667 81 -389 81c-141.333 0 -307 -38 -497 -114v277c190 75.333 355.333 113 496 113c122 0 251.667 -26.667 389 -80c204 -91.333 392.667 -137 566 -137v-277z" />
    <glyph glyph-name="uniFB91" unicode="&#x6a9;" horiz-adv-x="1532" arabic-form="medial" 
d="M1499 959c-173.333 0 -361.667 45.667 -565 137c-138 54 -267.667 81 -389 81c-141.333 0 -307 -38 -497 -114v277c190 75.333 355.333 113 496 113c122 0 251.667 -26.667 389 -80c204 -91.333 392.667 -137 566 -137v-277zM1391 205
c-20.667 -26.667 -44.333 -52 -71 -76c-34 -30 -70.333 -54.333 -109 -73c-38 -19.333 -81 -33.666 -129 -42.999c-44 -8.66699 -97.667 -13 -161 -13h-935v335h936c60 0 103.667 7 131 21c26.667 14 47.334 34 62.001 60c16 26 24 57.333 24 94c0 35.333 -17 68.333 -51 99
c-34 30 -77.667 45 -131 45h-911v394h304v-59h571c94 0 173.667 -11.333 239 -34s125.333 -60.334 180 -113.001c51.333 -49.333 90.666 -107 117.999 -173s41 -122.333 41 -169c0 -51.333 -11.667 -106.333 -35 -165h79v-335h-152v205z" />
    <glyph glyph-name="uniFB93" unicode="&#x6af;" horiz-adv-x="2370" arabic-form="final" 
d="M2245 205c-20.667 -26.667 -44.3359 -52 -71.002 -76c-34 -30 -70.333 -54.333 -109 -73c-38 -19.333 -81 -33.666 -129 -42.999c-44 -8.66699 -97.667 -13 -161 -13h-938c-270 0 -472.667 67.833 -608 203.5s-206.333 286.167 -213 451.5h339
c34.667 -212.667 175.334 -319 422.001 -319h75v-1h924c60 0 103.667 7 131 21c26.667 14 47.334 34 62.001 60c16 26 24 57.333 24 94c0 35.333 -17 68.333 -51 99c-34 30 -77.667 45 -131 45h-913v394h304v-59h573c94 0 173.667 -11.333 239 -34
s125.333 -60.334 180 -113.001c51.333 -49.333 90.666 -107 118 -173c27.333 -66 41 -122.333 41 -169c0 -51.333 -11.667 -106.333 -35 -165h79v-335h-152v205zM2351 971c-173.333 0 -361.667 45.667 -565 137c-138 54 -267.667 81 -389 81c-141.333 0 -307 -38 -497 -114
v166c190 75.333 355.333 113 496 113c122 0 251.667 -26.667 389 -80c204 -91.333 392.667 -137 566 -137v-166zM2351 1173c-174 0 -362.333 45.667 -565 137c-138 54 -267.667 81 -389 81c-141.333 0 -307 -38 -497 -114v166c190 75.333 355.333 113 496 113
c122 0 251.667 -26.667 389 -80c203.333 -91.333 392 -137 566 -137v-166z" />
    <glyph glyph-name="uniFB94" unicode="&#x6af;" horiz-adv-x="1501" arabic-form="initial" 
d="M350 989h573c94 0 173.667 -11.333 239 -34s125.333 -60.334 180 -113.001c51.333 -49.333 90.666 -107 117.999 -173s41 -122.333 41 -169c0 -58.667 -15 -122 -45 -190c-29.333 -66.667 -74 -127 -134 -181c-34 -30 -70.333 -54.333 -109 -73
c-38 -19.333 -81 -33.666 -129 -42.999c-44 -8.66699 -97.667 -13 -161 -13h-937v335h938c60 0 103.667 7 131 21c26.667 14 47.334 34 62.001 60c16 26 24 57.333 24 94c0 35.333 -17 68.333 -51 99c-34 30 -77.667 45 -131 45h-913v394h304v-59zM1499 1173
c-174 0 -362.333 45.667 -565 137c-138 54 -267.667 81 -389 81c-141.333 0 -307 -38 -497 -114v166c190 75.333 355.333 113 496 113c122 0 251.667 -26.667 389 -80c203.333 -91.333 392 -137 566 -137v-166zM1499 971c-173.333 0 -361.667 45.667 -565 137
c-138 54 -267.667 81 -389 81c-141.333 0 -307 -38 -497 -114v166c190 75.333 355.333 113 496 113c122 0 251.667 -26.667 389 -80c204 -91.333 392.667 -137 566 -137v-166z" />
    <glyph glyph-name="uniFB95" unicode="&#x6af;" horiz-adv-x="1501" arabic-form="medial" 
d="M1499 1173c-174 0 -362.333 45.667 -565 137c-138 54 -267.667 81 -389 81c-141.333 0 -307 -38 -497 -114v166c190 75.333 355.333 113 496 113c122 0 251.667 -26.667 389 -80c203.333 -91.333 392 -137 566 -137v-166zM1393 205c-20.667 -26.667 -44.333 -52 -71 -76
c-34 -30 -70.333 -54.333 -109 -73c-38 -19.333 -81 -33.666 -129 -42.999c-44 -8.66699 -97.667 -13 -161 -13h-937v335h938c60 0 103.667 7 131 21c26.667 14 47.334 34 62.001 60c16 26 24 57.333 24 94c0 35.333 -17 68.333 -51 99c-34 30 -77.667 45 -131 45h-913v394
h304v-59h573c94 0 173.667 -11.333 239 -34s125.333 -60.334 180 -113.001c51.333 -49.333 90.666 -107 117.999 -173s41 -122.333 41 -169c0 -51.333 -11.667 -106.333 -35 -165h79v-335h-152v205zM1499 971c-173.333 0 -361.667 45.667 -565 137
c-138 54 -267.667 81 -389 81c-141.333 0 -307 -38 -497 -114v166c190 75.333 355.333 113 496 113c122 0 251.667 -26.667 389 -80c204 -91.333 392.667 -137 566 -137v-166z" />
    <glyph glyph-name="uniFBFD" unicode="&#x6cc;" horiz-adv-x="1556" arabic-form="final" 
d="M805 990l234 -0.00195312c188 0 320.333 -84.667 397 -254c17.333 -47.333 26 -91.666 26 -132.999v-156c0 -70.667 31.667 -108 95 -112h7v-340h-22c-217.333 0 -326 103 -326 309v221c0 116.667 -22.667 175 -68 175h-8v-700h-557
c-53.333 0 -100.666 4.33301 -141.999 13c-44.667 8 -84.667 21 -120 39c-36.667 17.333 -70.667 40 -102 68c-55.333 50 -97 106 -125 168c-27.333 62.667 -41 132 -41 208s13.667 145 41 207c28 61.333 69.667 117 125 167c31.333 28 65.333 50.667 102 68
c35.333 18 75.333 31 120 39c41.333 8.66699 88.666 13 141.999 13h107v-335h-196c-8.66699 -2.66699 -16.334 -5.66699 -23.001 -9c-30 -16 -52.667 -38 -68 -66c-16.667 -26.667 -25.334 -54.667 -26.001 -84c0.666992 -29.333 9.33398 -57.666 26.001 -84.999
c15.333 -28 38 -50 68 -66c24.667 -12.667 62.334 -20 113.001 -22v1h221v666z" />
    <glyph glyph-name="uniFBFE" unicode="&#x6cc;" horiz-adv-x="958" arabic-form="initial" 
d="M457 362c29.333 16 52.0029 39.333 68.0029 70c13.333 26 20.666 65 21.999 117v442h335v-443c0 -55.333 -4.33301 -104.333 -13 -147c-8.66699 -46 -22.334 -87.333 -41.001 -124c-18 -37.333 -41.333 -72.333 -70 -105c-52 -57.333 -110 -100.333 -174 -129
c-58.667 -26 -123.334 -40.333 -194.001 -43h-394v335c254 0 384.667 0.333008 392 1c24 3.33301 47 12 69 26zM444.003 -269l223 223l223 -224l-223 -223l-223 223l-224 -223l-223 223l223 224z" />
    <glyph glyph-name="uniFBFF" unicode="&#x6cc;" horiz-adv-x="900" arabic-form="medial" 
d="M554 204c-8 -10.667 -16.6641 -21.333 -25.9971 -32c-52 -57.333 -110 -100.333 -174 -129c-58.667 -26 -123.334 -40.333 -194.001 -43h-164v335c100.667 0 154.667 0.333008 162 1c24 3.33301 47 12 69 26c29.333 16 52 39.333 68 70c13.333 26 20.666 65 21.999 117
v442h335v-443c0 -55.333 -4.33301 -104.333 -13 -147c-4.66699 -23.333 -10.334 -45.333 -17.001 -66h289v-335h-357v204zM444.003 -268.999l223 223l223 -224l-223 -223l-223 223l-224 -223l-223 223l223 224z" />
    <glyph glyph-name="uniFC5E" unicode="&#xfc5e;" arabic-form="isolated" 
d="M-262 750l68 26l51 -131c9.33301 -24.667 25.333 -37 48 -37c6 0 10.333 0.666992 13 2l-1 -1c19.333 8.66699 29 22.667 29 42c0 6 -0.666992 10.667 -2 14l-55 142l67 26l51 -131c9.33301 -24.667 25.333 -37 48 -37c12 0 22.333 4.33301 31 13c8 8.66699 12 19 12 31
c0 5.33301 -1 10.333 -3 15l-28 73c-4.66699 12 -7 24 -7 36c0 30.667 24.667 56.667 74 78l1 -44c-4.66699 -2.66699 -7 -7.66699 -7 -15c0 -9.33301 4.33301 -24.666 13 -45.999l22 -57c4.66699 -18.667 7 -31.667 7 -39c0 -30.667 -11 -57.334 -33 -80.001
c-22 -24 -49 -36 -81 -36c-10.667 0 -26.667 3 -48 9c-20 -44.667 -57 -67 -111 -67c-48.667 0 -82.667 21 -102 63zM-240 1036c24 38 36 68.668 36 92.001c0 4.66699 -1.33301 7 -4 7c-20 0 -60 -26 -120 -78c6.66699 25.333 26.334 54.666 59.001 87.999
c33.333 35.333 60.666 53 81.999 53c32.667 0 49 -17.333 49 -52c0 -56.667 -31.667 -112 -95 -166l-27 24zM40 967.001h1c-40.667 -74.667 -97.667 -112 -171 -112c-53.333 0 -97.666 25.333 -132.999 76l30 28c27.333 -32.667 56 -49 86 -49c48 0 88.667 26 122 78
c-26.667 4.66699 -49.334 18 -68.001 40c-18 21.333 -27 44.333 -27 69c0 16 3.66699 30.333 11 43v-1c29.333 58 68 87 116 87c10 0 48.667 -16 116 -48c12.667 -1.33301 27 -6.33301 43 -15l-2 -45c-8 3.33301 -13.667 5 -17 5c-10 0 -20.667 -10 -32 -30l-30 -54z
M52 1140l-0.000976562 -1.00098c-21.333 12.667 -36.333 19 -45 19c-16.667 0 -30 -7.66699 -40 -23l1 1c-12.667 -25.333 -19 -38.666 -19 -39.999c0 -8 4 -16.333 12 -25c8.66699 -9.33301 19.334 -14 32.001 -14c12 0 24.333 10 37 30c4 6 9 14.667 15 26l13 24z" />
    <glyph glyph-name="uniFC5F" unicode="&#xfc5f;" arabic-form="isolated" 
d="M-262 1150l69 26.001l51 -131c9.33301 -24.667 24.666 -37 45.999 -37c4.66699 0 9.33398 1 14.001 3l-1 -1c19.333 7.33301 29 21 29 41c0 6 -0.666992 10.667 -2 14l-55 143l68 26l51 -131c10 -26 26 -38.333 48 -37c12 0 22 4.66699 30 14c8 8 12 17.667 12 29
c0 5.33301 -1 10.333 -3 15l-28 73c-4 14 -6 26.333 -6 37c0 30.667 24.333 56.667 73 78l1 -44c-4.66699 -2.66699 -7 -7.66699 -7 -15c0 -8 4.66699 -23.333 14 -46l22 -58c4 -10.667 6 -23.334 6 -38.001c0 -30.667 -10.667 -57.667 -32 -81c-22.667 -24 -50 -36 -82 -36
c-14 0 -29.667 3.33301 -47 10c-20 -45.333 -57.333 -68 -112 -68c-48 0 -82 21.333 -102 64zM103 784.001l1 -5.99902c0 -16 -22.667 -33 -68 -51l-145 -57c-44 -19.333 -66 -47 -66 -83c0 -10.667 4 -28 12 -52l43 2c-0.666992 2 -1 5 -1 9
c0 19.333 21.667 37.666 65 54.999l144 57c46 18 69 45.667 69 83c0 8.66699 -4.33301 26 -13 52zM103 941.002l1 -5.99902c0 -16 -22.667 -33 -68 -51l-145 -57c-44 -17.333 -66 -45 -66 -83c0 -10.667 4 -28 12 -52l43 2c-0.666992 2 -1 5 -1 9
c0 19.333 21.667 37.666 65 54.999l144 57c46 18 69 45.667 69 83c0 8.66699 -4.33301 26 -13 52z" />
    <glyph glyph-name="uniFC60" unicode="&#xfc60;" arabic-form="isolated" 
d="M74 1060c8 -29.333 11.999 -46.667 11.999 -52c0 -37.333 -22.667 -65 -68 -83l-145 -57c-43.333 -17.333 -64.666 -35.666 -63.999 -54.999c0 -4 0.333008 -7 1 -9l-43 -2c-8.66699 26 -13 43.333 -13 52c0 37.333 22 64.666 66 81.999l146 57
c44.667 20 67 37.333 67 52l-1 6zM-262.001 750.999l69 26.001l51 -131c9.33301 -26 25 -38.333 47 -37c6 0 10.333 0.666992 13 2l-1 -1c19.333 8.66699 29 22.667 29 42c0 6 -0.666992 10.667 -2 14l-55 142l68 26l51 -131c10 -24.667 25.667 -37 47 -37
c12 0 22.333 4.33301 31 13c8 8.66699 12 18.667 12 30c0 6 -1 11.333 -3 16l-28 73c-2.66699 6 -4.66699 18 -6 36c0 30.667 24.333 56.667 73 78l1 -44c-4.66699 -2.66699 -7 -7.66699 -7 -15c0 -8 4.66699 -23.333 14 -46l22 -57c2.66699 -8 4.66699 -21 6 -39
c0 -30.667 -10.667 -57.334 -32 -80.001c-22 -24 -49.333 -36 -82 -36c-12 0 -27.667 3 -47 9c-20 -44.667 -57.333 -67 -112 -67c-48.667 0 -82.667 21 -102 63z" />
    <glyph glyph-name="uniFC61" unicode="&#xfc61;" arabic-form="isolated" 
d="M-262 751l68 26l51 -131c9.33301 -24.667 25.333 -37 48 -37c6 0 10.333 0.666992 13 2l-1 -1c19.333 8.66699 29 22.667 29 42c0 6 -0.666992 10.667 -2 14l-55 142l67 26l51 -131c9.33301 -24.667 25.333 -37 48 -37c12 0 22.333 4.33301 31 13c8 8.66699 12 19 12 31
c0 5.33301 -1 10.333 -3 15l-28 73c-4.66699 12 -7 24 -7 36c0 30.667 24.333 56.667 73 78l1 -44c-4 -2.66699 -6 -7.66699 -6 -15c0 -9.33301 4.33301 -24.666 13 -45.999l22 -57c4.66699 -18.667 7 -31.667 7 -39c0 -30.667 -11 -57.334 -33 -80.001
c-22 -24 -49 -36 -81 -36c-10.667 0 -26.667 3 -48 9c-20 -44.667 -57 -67 -111 -67c-48.667 0 -82.667 21 -102 63zM3 954h1c-42 -74.667 -99.333 -112 -172 -112c-51.333 0 -95.666 25 -132.999 75l30 29c28.667 -32.667 57.667 -49 87 -49c48.667 0 89 26 121 78
c-28 4.66699 -50.667 18 -68 40c-17.333 20.667 -26 43.667 -26 69c0 14 3.33301 28.333 10 43v-1c28.667 58 67.667 87 117 87c9.33301 0 47.666 -16.333 114.999 -49c13.333 -1.33301 28 -6 44 -14l-2 -45c-6 2.66699 -11.667 4 -17 4c-11.333 0 -22 -9.66699 -32 -29
l-30 -54zM14 1127l-0.000976562 -1c-22 12 -37 18 -45 18c-17.333 0 -30.666 -7.66699 -39.999 -23l1 1c-12.667 -30.667 -19 -44 -19 -40c0 -8 4 -16 12 -24c9.33301 -10 20 -15 32 -15c13.333 0 35 27 65 81z" />
    <glyph glyph-name="uniFC62" unicode="&#xfc62;" arabic-form="isolated" 
d="M-262 960l69 26.002l51 -131c9.33301 -24.667 24.666 -37 45.999 -37c4.66699 0 9.33398 1 14.001 3l-1 -1c19.333 7.33301 29 21 29 41c0 6 -0.666992 10.667 -2 14l-55 143l68 26l51 -131c10 -26 26 -38.333 48 -37c12 0 22 4.66699 30 14c8 8 12 17.667 12 29
c0 5.33301 -1 10.333 -3 15l-28 73c-4 14 -6 26.333 -6 37c0 30.667 24.333 56.667 73 78l1 -45c-4.66699 -2.66699 -7 -7.33398 -7 -14.001c0 -8 4.66699 -23.333 14 -46l22 -58c4 -10.667 6 -23.334 6 -38.001c0 -31.333 -10.667 -58.333 -32 -81
c-22.667 -24 -50 -36 -82 -36c-14 0 -29.667 3.33301 -47 10c-20 -45.333 -57.333 -68 -112 -68c-48 0 -82 21.333 -102 64zM103 785.002l1 -5.99902c0 -16 -22.667 -33 -68 -51l-145 -57c-44 -19.333 -66 -47 -66 -83c0 -10.667 4 -28 12 -52l43 2c-0.666992 2 -1 5 -1 9
c0 19.333 21.667 37.666 65 54.999l144 57c46 18 69 45.667 69 83c0 8.66699 -4.33301 26 -13 52z" />
    <glyph glyph-name="uniFC63" unicode="&#xfc63;" arabic-form="isolated" 
d="M-212 544l69 26.001l51 -131c9.33301 -26 25 -38.333 47 -37c6 0 10.333 0.666992 13 2l-1 -1c19.333 8.66699 29 22.667 29 42c0 6 -0.666992 10.667 -2 14l-55 142l68 26l51 -131c10 -24.667 25.667 -37 47 -37c12 0 22.333 4.33301 31 13c8 8.66699 12 18.667 12 30
c0 6 -1 11.333 -3 16l-28 73c-2.66699 6 -4.66699 18 -6 36c0 30.667 24.333 56.667 73 78l1 -44c-4.66699 -2.66699 -7 -7.66699 -7 -15c0 -8 4.66699 -23.333 14 -46l22 -57c2.66699 -8 4.66699 -21 6 -39c0 -30.667 -10.667 -57.334 -32 -80.001
c-22 -24 -49.333 -36 -82 -36c-12 0 -27.667 3 -47 9c-20 -44.667 -57.333 -67 -112 -67c-48.667 0 -82.667 21 -102 63zM-33 892.001c0 24.667 -4 37.999 -12 39.999l8 36c50 -1.33301 75 -22.666 75 -63.999v-250h-71v238z" />
    <glyph glyph-name="uniFDF2" unicode="&#xfdf2;" horiz-adv-x="2150" arabic-form="isolated" 
d="M1463 0l0.00292969 190.999c-5.33301 -6.66699 -10.666 -13 -15.999 -19c-52 -57.333 -110 -100.333 -174 -129c-52.667 -23.333 -110.334 -37 -173.001 -41v-2h-404v504c-3.33301 25.333 -7.33301 49 -12 71c-14 27.333 -33 48 -57 62
c-24.667 14.667 -55.334 22 -92.001 22c-54.667 0 -98 -16 -130 -48c-32.667 -32.667 -49 -75 -49 -127c0 -54 17 -97 51 -129c32 -32 76.333 -48 133 -48c35.333 0 63 -0.333008 83 -1v-303c-46.667 -0.666992 -92.334 -1 -137.001 -1c-92.667 0 -173 20.333 -241 61
c-70 40 -124.333 94.667 -163 164c-39.333 76.667 -59 161.667 -59 255c0 97.333 22.333 184 67 260c45.333 76.667 106 137.334 182 182.001c76.667 44.667 163 67 259 67c63.333 0 122.666 -9.33301 177.999 -28c52.667 -19.333 102.334 -47.666 149.001 -84.999
c44 -36.667 80.667 -79 110 -127c24.667 -40.667 42 -82.334 52 -125.001c7.33301 -40 12 -81 14 -123v-168h21c32 0 62.333 9 91 27c29.333 16 52 39.333 68 70c13.333 26 21 65 23 117h-1v788h335v-789c0 -55.333 -4.33301 -104.333 -13 -147
c-4.66699 -23.333 -10.334 -45.333 -17.001 -66h59c32 0 62.333 9 91 27c29.333 16 52 39.333 68 70c13.333 26 21 65 23 117h-1v788h335v-789c0 -55.333 -4.33301 -104.333 -13 -147c-8.66699 -46 -22.334 -87.333 -41 -124c-18 -37.333 -41.333 -72.333 -70 -105
c-52 -57.333 -110 -100.333 -174 -129c-54 -23.333 -112.667 -37.333 -176 -42v-1h-179zM1436 1528c12 1.33301 22.335 6.33301 31.002 15c12.667 14.667 19 30.667 19 48v66c0 13.333 4.66699 25 14 35c4 4.66699 9.33301 8.5 16 11.5s19.667 5.83301 39 8.5v-121
c0 -15.333 -2.83301 -30 -8.5 -44s-15.167 -27.667 -28.5 -41c-23.333 -22.667 -53.333 -34 -90 -34h-56c-30 0 -59.333 10.333 -88 31c-12.667 10 -20.834 18.167 -24.501 24.5s-6.83398 18.833 -9.50098 37.5v149c17.333 -4 28.833 -7.5 34.5 -10.5
s10.167 -6.16699 13.5 -9.5c11.333 -11.333 17 -23.666 17 -36.999v-66c0 -18 6 -33.667 18 -47c10.667 -10.667 22.667 -16.334 36 -17.001v130c0 14.667 5.33301 27 16 37c3.33301 3.33301 7.83301 6.5 13.5 9.5s18.167 5.83301 37.5 8.5v-184zM1427 1763
c-22 3.33301 -35.334 7.33301 -40.001 12c-3.33301 4 -5.66602 8.66699 -6.99902 14s-2 12 -2 20v205l26 1c0.666992 -1.33301 3.33398 -2.33301 8.00098 -3c3.33301 -4 6.66602 -8.66699 9.99902 -14s5 -12 5 -20v-215z" />
    <glyph glyph-name="uniFDFA" unicode="&#xfdfa;" horiz-adv-x="2200" arabic-form="isolated" 
d="M1764 -24l35.0049 76.0029c19.333 -45.333 29 -83.666 29 -114.999c0 -42.667 -8.66699 -76.667 -26 -102c-18.667 -25.333 -43 -38 -73 -38c-21.333 0 -54.666 13 -99.999 39c-32.667 -38 -75 -57 -127 -57c-66.667 0 -102.334 19 -107.001 57
c-87.333 -50.667 -219 -76 -395 -76c-155.333 0 -266 23.333 -332 70c-66 47.333 -103.333 129.333 -112 246v19c-45.333 -72.667 -79 -115 -101 -127c16 -39.333 24 -68.666 24 -87.999c0 -32 -7.33301 -58.333 -22 -79c-16 -20.667 -36.333 -31 -61 -31
c-20.667 0 -38.667 4.66699 -54 14l-44 19l-31 17c-40 -73.333 -88 -110 -144 -110h-20c-2.66699 0 -7.66699 -0.666992 -15 -2l-11 -5l-23 -6h-8c-1.33301 0 -3.33301 1.33301 -6 4v7c2.66699 6 29 19.667 79 41l26 11l85 60c10.667 8 17.334 13.333 20.001 16
c-14.667 24 -22 50 -22 78c0 32 12.667 64 38 96c24.667 31.333 50 47 76 47c2.66699 0 14.667 -4.33301 36 -13c20.667 -9.33301 34.667 -14 42 -14c21.333 0 41 11 59 33l17 22c5.33301 3.33301 14.333 18.666 27 45.999l13 26c1.33301 1.33301 4 5.66602 8 12.999
c-6.66699 2 -11 4 -13 6l-37 11c-73.333 24.667 -120 78.667 -140 162l-12 63l-5 2l-6 -9c-47.333 -66.667 -100 -100 -158 -100c-30.667 0 -59.667 5.33301 -87 16c-28 10 -42 20.667 -42 32c0 28 25 63.333 75 106c48.667 42.667 101.334 74.667 158.001 96l45 17v29
c0 2.66699 -1 5.33398 -3 8.00098l42 67l2 -9l2 -35c10 -130 25.667 -218 47 -264c21.333 -46.667 60.333 -77 117 -91c-2 17.333 -3.33301 26 -4 26l-7 88c-9.33301 52 -14 108.667 -14 170l38 94v-23l10 -83l24 -259c0.666992 -10.667 1.66699 -18.667 3 -24l25 -4l152 -9
h48c148.667 0 270.334 29 365.001 87l14 42c9.33301 26 18.333 39 27 39c4 0 6 -5.33301 6 -16v-14l-6 -32v-12c12.667 -17.333 32.667 -34 60 -50c27.333 -16.667 49.666 -25 66.999 -25c35.333 0 65 31.333 89 94l-12 156c-2 4 -4 24 -6 60l-4 61
c-2.66699 23.333 -4 46.666 -4 69.999l-15 -2c-44 0 -82.667 15.333 -116 46c-33.333 30 -53.666 68.667 -60.999 116h-2c-2.66699 -4.66699 -4 -9.33398 -4 -14.001c-23.333 -82 -52 -129 -86 -141v-5h57c26 0 48.667 -7.66699 68 -23c20 -16 30 -36 30 -60
c0 -47.333 -25.333 -85.666 -76 -114.999l-46 -26c-100.667 -59.333 -192.334 -88.666 -275.001 -87.999c-68 0 -122.333 18 -163 54c-40.667 34.667 -61 80.667 -61 138c0 46.667 11.333 95.667 34 147c-42.667 12.667 -69.334 43.334 -80.001 92.001h-5l-7 -14
c-34.667 -64.667 -71.667 -96.667 -111 -96c-69.333 0 -104 54.667 -104 164c-5.33301 -2.66699 -9.33301 -5.33398 -12 -8.00098l-19 -19c-26.667 -25.333 -59.334 -38.333 -98.001 -39c-78.667 0 -118 13 -118 39c0 22 16.667 54.667 50 98
c15.333 20 43.666 39.333 84.999 58l33 15c36.667 15.333 62.334 27.666 77.001 36.999v24l39 74v-54l6 -83v-102l5 -46c4 -44 25 -66 63 -66c43.333 0 73.666 16.667 90.999 50l9 16c0 1.33301 0.666992 2.66602 2 3.99902l-2 8c0 2 -0.666992 3.66699 -2 5l-5 43l-27 194
l41 81l32 -187c12 -76.667 19.667 -121 23 -133l4 -27c12 -29.333 36.333 -44 73 -44c30 0 46.333 9 49 27v2c-1.33301 28 -8.66602 65.333 -21.999 112l-50 165c0 6.66699 -1.33301 14.334 -4 23.001l25 69c1.33301 -4 5.33301 -17.667 12 -41l19 -64
c38 -124.667 57 -204.334 57 -239.001c0 -34 -8.66699 -67.333 -26 -100c-18 -31.333 -35.333 -47 -52 -47l-18 2c-10 -20.667 -15 -48 -15 -82c0 -50 17 -89.667 51 -119c34.667 -28.667 83 -43 145 -43c108.667 0 208.334 32.667 299.001 98l13 8v6
c0 8.66699 -39.333 18.334 -118 29.001c-44.667 6 -72 10.333 -82 13c-12 3.33301 -18 10 -18 20v9l11 29c8 18.667 29 36 63 52c40.667 18 67 34.333 79 49c12.667 16 19 42.667 19 80v40c0 9.33301 -0.666992 20.333 -2 33l-11 156l-18 165
c-6.66699 63.333 -10.667 97.666 -12 102.999l39 118c3.33301 -22.667 4.66602 -33.334 3.99902 -32.001l11 -101l27 -218c15.333 -128.667 35.666 -215.667 60.999 -261c26.667 -46 70.667 -72.667 132 -80c-2.66699 22 -4 46.333 -4 73v23c0 6.66699 -0.666992 15 -2 25
l-2 87l44 96c4 -39.333 6 -65 6 -77l2 -72l7 -80v-24c0 -4.66699 0.666992 -13.334 2 -26.001l2 -23c4.66699 3.33301 10.667 5 18 5c43.333 14.667 81.666 35 114.999 61l16 11c46 -46 95.333 -72.333 148 -79c139.333 133.333 236.666 200 291.999 200
c29.333 0 61 -11.667 95 -35c32.667 -23.333 49 -43.333 49 -60c0 -23.333 -10.667 -52.666 -32 -87.999c-30.667 -45.333 -73 -76.333 -127 -93c-48 -14.667 -121.333 -22 -220 -22c-28 0 -53.667 1.33301 -77 4c-32.667 -66.667 -59.334 -100 -80.001 -100
c-6.66699 0 -10 4.33301 -10 13c0 13.333 8.33301 33.666 25 60.999l13 26c3.33301 4 6 8.33301 8 13l-15 7l-21 11c-31.333 13.333 -54 26.666 -68 39.999c-33.333 -22.667 -55 -36 -65 -40l-50 -16h-10v-27l5 -51l3 -63c8 -128 27.333 -213.667 58 -257
c30.667 -42.667 88.334 -66.334 173.001 -71.001v5c-28 18.667 -42 49 -42 91c0 58 20.333 111.667 61 161c40.667 50 85.667 75 135 75c35.333 0 71 -9.66699 107 -29c35.333 -19.333 56 -39.666 62 -60.999v-15c-36.667 14.667 -74 22 -112 22
c-48.667 0 -93.334 -9.66699 -134.001 -29c-41.333 -19.333 -62 -39.666 -62 -60.999c0 -22 19 -52 57 -90c38.667 -38.667 69 -58 91 -58h4c0 -2 9 0 27 6c115.333 27.333 202.666 56 261.999 86l-35 -78c-150 -77.333 -287 -116 -411 -116
c-131.333 0 -218 48.667 -260 146l-4 13c-38.667 -94.667 -79.334 -142 -122.001 -142s-90.667 32 -144 96c-105.333 -81.333 -242 -122 -410 -122c-68.667 0 -124.667 3.66699 -168 11l7 -40c12 -88.667 30.667 -147.334 56 -176.001c23.333 -28 73.333 -51.667 150 -71
c74.667 -18.667 152.667 -28 234 -28c154 0 273.333 22.333 358 67c22.667 54.667 43.334 82 62.001 82c5.33301 0 8 -5.66699 8 -17c0 -26 -8 -57.333 -24 -94c6 -20.667 24.667 -31 56 -31c26 0 51 3.66699 75 11c26 8 39 18 39 30l13 40c20 54 36.667 83 50 87h2
c6.66699 0 10 -4.33301 10 -13v-16c0 -22 -4.66699 -43.667 -14 -65l-7 -20c32.667 -20 64.667 -30 96 -30c10.667 0 16 5 16 15c0 -1.33301 -3.66699 15.334 -11 50.001zM2095 -71.9971c-30 -38 -57 -57 -81 -57c-20.667 0 -39 9.66699 -55 29
c-14.667 19.333 -22 42 -22 68c0 31.333 11.333 68.333 34 111c22 42.667 42 64 60 64c22 0 47 -21.667 75 -65c27.333 -42.667 41 -79.334 41 -110.001c0 -81.333 -30.667 -164.666 -92 -249.999c-62 -86 -123 -129 -183 -129c-23.333 0 -62 10.667 -116 32
c-54.667 22 -85.334 39 -92.001 51v7c2.66699 2.66699 6.33398 4 11.001 4l83 -23c15.333 -6 33.333 -9 54 -9c95.333 0 194.333 77 297 231zM2057 1334c-104 -40.667 -202.667 -86.668 -296 -138.001c-92.667 -50 -139 -83 -139 -99c0 -10.667 17 -26.667 51 -48l6 -4
l-17 -52c-48.667 20.667 -73 50.334 -73 89.001c0 40.667 20 72.667 60 96l57 33c101.333 59.333 233 121.333 395 186l-20 -53zM956.005 851.002l-26.998 274.999l-15 168l46 117c3.33301 -31.333 6.66602 -74.666 9.99902 -129.999l24 -344l2 -9l-2 -25
c-6.66699 -79.333 -15.334 -124.333 -26.001 -135zM1108.01 45.001l-62 -75l-107 77l61 75l106 -77l56 73l107 -81l-57 -67zM2122.01 866.001c0 10 -13 22.335 -39 37.002c-24.667 13.333 -44.334 20 -59.001 20c-20 0 -55.667 -14.333 -107 -43
c-50.667 -28.667 -90.667 -56.334 -120 -83.001c12.667 -2 21.334 -3 26.001 -3h20c64.667 0 125.667 7.33301 183 22c57.333 13.333 89.333 28.666 96 45.999v4zM1295.01 1230l7 56l445 200l-11 -50zM1333.01 -350.997c0 -32 -19 -48 -57 -48
c-9.33301 0 -19.666 3.66699 -30.999 11c-23.333 -24 -45.333 -36 -66 -36c-11.333 0 -22 5 -32 15l-14 14c-5.33301 6 -11 9 -17 9c-12.667 0 -33.667 -9.66699 -63 -29c-48 -32 -99 -48 -153 -48h-35c-49.333 0 -74 6 -74 18c0 11.333 24 17 72 17h41
c36 0 81 13.333 135 40c52.667 26 80.667 39 84 39c17.333 0 38.666 -11.667 63.999 -35h8c20.667 2 32 11.667 34 29v8c0 10 7 18.667 21 26l4 2c5.33301 0 8 -4.33301 8 -13l-2 -11c-1.33301 -1.33301 -2 -4.66602 -2 -9.99902v-6c6 -5.33301 12 -8 18 -8
c17.333 0 28 10 32 30c4.66699 21.333 13 32.666 25 33.999v-48zM641.007 1411l-6.99902 38v8l16 25c9.33301 -32 14 -59.667 14 -83c0 -46.667 -15.667 -70 -47 -70c-14 0 -28.667 5.66699 -44 17c-28.667 -22 -47.667 -33 -57 -33c-34.667 0 -52 19 -52 57
c0 21.333 2.33301 42 7 62l14 12l-2 -14v-11c0 -35.333 12.667 -53 38 -53c16 0 29.667 11 41 33l-2 7l-2 31l-2 10l21 28l9 -61c3.33301 -23.333 13.666 -35 30.999 -35c16 0 24 7.33301 24 22v10zM329.008 526.003c-42.667 -16 -84.001 -35.333 -124.001 -58
c-42.667 -24.667 -64 -42 -64 -52c0 -2.66699 0.666992 -4.66699 2 -6l11 -9c6.66699 -4 21.334 -6 44.001 -6c54 0 99.667 16.667 137 50zM372.007 1013c-4.66699 -2.66699 -9 -4 -13 -4l-30 -16l-44 -17c-49.333 -22 -74 -39.667 -74 -53c0 -16 19.333 -24 58 -24
c34.667 0 70 9.66699 106 29zM418.007 -137.997c7.33301 0 11 4.66699 11 14c0 19.333 -15 41.333 -45 66c-30.667 25.333 -58.667 38 -84 38c-19.333 0 -29 -8.66699 -29 -26c0 -16 17 -35.333 51 -58c33.333 -22.667 62.333 -34 87 -34h9zM2026.01 47.0029
c-19.333 0 -33 -18 -41 -54c12 -24.667 34.667 -37 68 -37c12 0 22 8 30 24c-10.667 44.667 -29.667 67 -57 67z" />
    <glyph glyph-name="uniFE82" unicode="&#x622;" horiz-adv-x="666" arabic-form="final" 
d="M487 549c2 -52 9.66797 -91 23.001 -117c16 -30.667 38.667 -54 68 -70c28.667 -18 59 -27 91 -27v-335c-80 -0 -152.667 14.333 -218 43c-64 28.667 -122 71.667 -174 129c-28.667 32.667 -52 67.667 -70 105c-18.667 36.667 -32.334 78 -41.001 124
c-8.66699 42.667 -13 91.667 -13 147v442h335v-441h-1zM-30.999 1325c41.333 10 90.333 15 147 15c32.667 0 64 -2 94 -6c24.667 -3.33301 82.334 -14.333 173.001 -33c63.333 -16 111 -24 143 -24c52 0 102.667 3.33301 152 10v-241c-40 -8 -83 -12 -129 -12
c-60.667 0 -125.334 9 -194.001 27l-121 26c-40 8 -77 12 -111 12c-38.667 0 -73.667 -3 -105 -9c-18 -6 -34.333 -12 -49 -18v253z" />
    <glyph glyph-name="uniFE84" unicode="&#x623;" horiz-adv-x="619" arabic-form="final" 
d="M440 549c2 -52 9.66797 -91 23.001 -117c16 -30.667 38.667 -54 68 -70c28.667 -18 59 -27 91 -27v-335c-80 -0 -152.667 14.333 -218 43c-64 28.667 -122 71.667 -174 129c-28.667 32.667 -52 67.667 -70 105c-18.667 36.667 -32.334 78 -41.001 124
c-8.66699 42.667 -13 91.667 -13 147v662h335v-661h-1zM437.001 1375l0.00292969 -94.001h-215c-70.667 0 -109.334 41 -116.001 123h46c15.333 -17.333 27.666 -26.333 36.999 -27c-13.333 23.333 -20.333 50 -21 80l1 16c0 18.667 6.66699 34.334 20 47.001
c13.333 13.333 29.666 20 48.999 20h188v-93h-166c2 -18 11.333 -33.667 28 -47c16 -12.667 35.333 -21 58 -25h91z" />
    <glyph glyph-name="uniFE86" unicode="&#x624;" horiz-adv-x="1138" arabic-form="final" 
d="M1089 335h70.0029v-335h-71c-2 -36 -6 -69 -12 -99c-8.66699 -46 -22.334 -87.333 -41.001 -124c-18 -37.333 -41.333 -72.333 -70 -105c-52 -57.333 -110 -100.333 -174 -129c-58.667 -26 -123.334 -40.333 -194.001 -43h-84v335c47.333 0 74.666 0.333008 81.999 1
c24 3.33301 47 12 69 26c29.333 16 52 39.333 68 70c8.66699 17.333 15 40 19 68h-209c-53.333 -0 -100.666 4.33301 -141.999 13c-44.667 8 -84.667 21 -120 39c-36.667 17.333 -70.667 40 -102 68c-55.333 50 -97 105.667 -125 167c-27.333 62 -41 131 -41 207
s13.667 145.333 41 208c28 62 69.667 118 125 168c31.333 28 65.333 50.667 102 68c35.333 18 75.333 31 120 39c41.333 8.66699 88.666 13 141.999 13h547v-655zM453.003 335l301 -0.000976562v331h-211v1c-50.667 -2 -88.334 -9.33301 -113.001 -22
c-30 -16 -52.667 -38 -68 -66c-16.667 -27.333 -25.334 -55.666 -26.001 -84.999c0.666992 -29.333 9.33398 -57.333 26.001 -84c15.333 -28 38 -50 68 -66c6.66699 -3.33301 14.334 -6.33301 23.001 -9zM800.003 1175l0.00292969 -94.001h-215
c-70.667 0 -109.334 41 -116.001 123h46c15.333 -17.333 27.666 -26.333 36.999 -27c-13.333 23.333 -20.333 50 -21 80l1 16c0 18.667 6.66699 34.334 20 47.001c13.333 13.333 29.666 20 48.999 20h188v-93h-166c2 -18 11.333 -33.667 28 -47
c16 -12.667 35.333 -21 58 -25h91z" />
    <glyph glyph-name="uniFE88" unicode="&#x625;" horiz-adv-x="638" arabic-form="final" 
d="M462 549c2 -52 9.66797 -91 23.001 -117c16 -30.667 38.667 -54 68 -70c28.667 -18 59 -27 91 -27v-335c-80 -0 -152.667 14.333 -218 43c-64 28.667 -122 71.667 -174 129c-28.667 32.667 -52 67.667 -70 105c-18.667 36.667 -32.334 78 -41.001 124
c-8.66699 42.667 -13 91.667 -13 147v792h335v-791h-1zM500.001 -205l0.00292969 -94.001h-215c-70.667 0 -109.334 41 -116.001 123h46c15.333 -17.333 27.666 -26.333 36.999 -27c-13.333 23.333 -20.333 50 -21 80l1 16c0 18.667 6.66699 34.334 20 47.001
c13.333 13.333 29.666 20 48.999 20h188v-93h-166c2 -18 11.333 -33.667 28 -47c16 -12.667 35.333 -21 58 -25h91z" />
    <glyph glyph-name="uniFE8A" unicode="&#x626;" horiz-adv-x="1556" arabic-form="final" 
d="M805 990l234 -0.00195312c188 0 320.333 -84.667 397 -254c17.333 -47.333 26 -91.666 26 -132.999v-156c0 -70.667 31.667 -108 95 -112h7v-340h-22c-217.333 0 -326 103 -326 309v221c0 116.667 -22.667 175 -68 175h-8v-700h-557
c-53.333 0 -100.666 4.33301 -141.999 13c-44.667 8 -84.667 21 -120 39c-36.667 17.333 -70.667 40 -102 68c-55.333 50 -97 106 -125 168c-27.333 62.667 -41 132 -41 208s13.667 145 41 207c28 61.333 69.667 117 125 167c31.333 28 65.333 50.667 102 68
c35.333 18 75.333 31 120 39c41.333 8.66699 88.666 13 141.999 13h107v-335h-196c-8.66699 -2.66699 -16.334 -5.66699 -23.001 -9c-30 -16 -52.667 -38 -68 -66c-16.667 -26.667 -25.334 -54.667 -26.001 -84c0.666992 -29.333 9.33398 -57.666 26.001 -84.999
c15.333 -28 38 -50 68 -66c24.667 -12.667 62.334 -20 113.001 -22v1h221v666zM690 1175l0.00292969 -94.001h-215c-70.667 0 -109.334 41 -116.001 123h46c15.333 -17.333 27.666 -26.333 36.999 -27c-13.333 23.333 -20.333 50 -21 80l1 16
c0 18.667 6.66699 34.334 20 47.001c13.333 13.333 29.666 20 48.999 20h188v-93h-166c2 -18 11.333 -33.667 28 -47c16 -12.667 35.333 -21 58 -25h91z" />
    <glyph glyph-name="uniFE8B" unicode="&#x626;" horiz-adv-x="571" arabic-form="initial" 
d="M147 362c29.333 16 52.0039 39.333 68.0039 70c13.333 26 20.666 65 21.999 117v442h335v-443c0 -55.333 -4.33301 -104.333 -13 -147c-8.66699 -46 -22.334 -87.333 -41.001 -124c-18 -37.333 -41.333 -72.333 -70 -105c-52 -57.333 -110 -100.333 -174 -129
c-58.667 -26 -123.334 -40.333 -194.001 -43h-84v335c47.333 0 74.666 0.333008 81.999 1c24 3.33301 47 12 69 26zM327.004 1175l0.00292969 -94.001h-215c-70.667 0 -109.334 41 -116.001 123h46c15.333 -17.333 27.666 -26.333 36.999 -27
c-13.333 23.333 -20.333 50 -21 80l1 16c0 18.667 6.66699 34.334 20 47.001c13.333 13.333 29.666 20 48.999 20h188v-93h-166c2 -18 11.333 -33.667 28 -47c16 -12.667 35.333 -21 58 -25h91z" />
    <glyph glyph-name="uniFE8C" unicode="&#x626;" horiz-adv-x="571" arabic-form="medial" 
d="M464 191c-5.33301 -6.66699 -10.6631 -13 -15.9961 -19c-52 -57.333 -110 -100.333 -174 -129c-58.667 -26 -123.334 -40.333 -194.001 -43h-84v335c47.333 0 74.666 0.333008 81.999 1c24 3.33301 47 12 69 26c29.333 16 52 39.333 68 70
c13.333 26 20.666 65 21.999 117v442h335v-443c0 -55.333 -4.33301 -104.333 -13 -147c-4.66699 -23.333 -10.334 -45.333 -17.001 -66h30v-335h-108v191zM327.003 1175l0.00292969 -94.001h-215c-70.667 0 -109.334 41 -116.001 123h46
c15.333 -17.333 27.666 -26.333 36.999 -27c-13.333 23.333 -20.333 50 -21 80l1 16c0 18.667 6.66699 34.334 20 47.001c13.333 13.333 29.666 20 48.999 20h188v-93h-166c2 -18 11.333 -33.667 28 -47c16 -12.667 35.333 -21 58 -25h91z" />
    <glyph glyph-name="uniFE8E" unicode="&#x627;" horiz-adv-x="638" arabic-form="final" 
d="M462 549c2 -52 9.66797 -91 23.001 -117c16 -30.667 38.667 -54 68 -70c28.667 -18 59 -27 91 -27v-335c-80 -0 -152.667 14.333 -218 43c-64 28.667 -122 71.667 -174 129c-28.667 32.667 -52 67.667 -70 105c-18.667 36.667 -32.334 78 -41.001 124
c-8.66699 42.667 -13 91.667 -13 147v792h335v-791h-1z" />
    <glyph glyph-name="uniFE90" unicode="&#x628;" horiz-adv-x="1722" arabic-form="final" 
d="M831 0c-270 0 -472.668 67.833 -608.001 203.5s-206.333 286.167 -213 451.5h339c34.667 -212.667 175.334 -319 422.001 -319l582 -1v655h335v-655h40v-335h-897zM1050 -53l223 -223l-223 -224l-224 224z" />
    <glyph glyph-name="uniFE91" unicode="&#x628;" horiz-adv-x="571" arabic-form="initial" 
d="M147 362c29.333 16 52.0039 39.333 68.0039 70c13.333 26 20.666 65 21.999 117v442h335v-443c0 -55.333 -4.33301 -104.333 -13 -147c-8.66699 -46 -22.334 -87.333 -41.001 -124c-18 -37.333 -41.333 -72.333 -70 -105c-52 -57.333 -110 -100.333 -174 -129
c-58.667 -26 -123.334 -40.333 -194.001 -43h-84v335c47.333 0 74.666 0.333008 81.999 1c24 3.33301 47 12 69 26zM221.004 -53l223 -223l-223 -224l-224 224z" />
    <glyph glyph-name="uniFE92" unicode="&#x628;" horiz-adv-x="571" arabic-form="medial" 
d="M464 191c-5.33301 -6.66699 -10.6631 -13 -15.9961 -19c-52 -57.333 -110 -100.333 -174 -129c-58.667 -26 -123.334 -40.333 -194.001 -43h-84v335c47.333 0 74.666 0.333008 81.999 1c24 3.33301 47 12 69 26c29.333 16 52 39.333 68 70
c13.333 26 20.666 65 21.999 117v442h335v-443c0 -55.333 -4.33301 -104.333 -13 -147c-4.66699 -23.333 -10.334 -45.333 -17.001 -66h30v-335h-108v191zM221.003 -53l223 -223l-223 -224l-224 224z" />
    <glyph glyph-name="uniFE94" unicode="&#x629;" horiz-adv-x="1073" arabic-form="final" 
d="M1034 335l66.002 -0.000976562v-335h-404v504c-3.33301 25.333 -7.33301 49 -12 71c-14 27.333 -33 48 -57 62c-24.667 14.667 -55.334 22 -92.001 22c-54.667 0 -98 -16 -130 -48c-32.667 -32.667 -49 -75 -49 -127c0 -54 17 -97 51 -129c32 -32 76.333 -48 133 -48
c35.333 0 63 -0.333008 83 -1v-303c-46.667 -0.666992 -92.334 -1 -137.001 -1c-92.667 0 -173 20.333 -241 61c-70 40 -124.333 94.667 -163 164c-39.333 76.667 -59 161.667 -59 255c0 97.333 22.333 184 67 260c45.333 76.667 106 137.334 182 182.001
c76.667 44.667 163 67 259 67c63.333 0 122.666 -9.33301 177.999 -28c52.667 -19.333 102.334 -47.666 149.001 -84.999c44 -36.667 80.667 -79 110 -127c24.667 -40.667 42 -82.334 52 -125.001c7.33301 -40 12 -81 14 -123v-168zM535.002 1342l222 222l223 -223
l-223 -224l-222 223l-223 -223l-223 224l223 223z" />
    <glyph glyph-name="uniFE96" unicode="&#x62a;" horiz-adv-x="1722" arabic-form="final" 
d="M831 0c-270 0 -472.668 67.833 -608.001 203.5s-206.333 286.167 -213 451.5h339c34.667 -212.667 175.334 -319 422.001 -319l582 -1v655h335v-655h50v-335h-907zM588.999 1212l224 -223l-224 -224l-223 224zM1037 1212l223 -223l-223 -224l-224 224z" />
    <glyph glyph-name="uniFE97" unicode="&#x62a;" horiz-adv-x="832" arabic-form="initial" 
d="M448 1334l223 223l223 -223l-223 -224l-223 224l-224 -224l-223 224l223 223zM327 362c29.333 16 52.0039 39.333 68.0039 70c13.333 26 20.666 65 21.999 117v442h335v-443c0 -55.333 -4.33301 -104.333 -13 -147c-8.66699 -46 -22.334 -87.333 -41.001 -124
c-18 -37.333 -41.333 -72.333 -70 -105c-52 -57.333 -110 -100.333 -174 -129c-58.667 -26 -123.334 -40.333 -194.001 -43h-264v335c167.333 0 254.666 0.333008 261.999 1c24 3.33301 47 12 69 26z" />
    <glyph glyph-name="uniFE98" unicode="&#x62a;" horiz-adv-x="900" arabic-form="medial" 
d="M448 1334l-224 -224l-223 224l223 223zM554 204c-8 -10.667 -16.6641 -21.333 -25.9971 -32c-52 -57.333 -110 -100.333 -174 -129c-58.667 -26 -123.334 -40.333 -194.001 -43h-164v335c100.667 0 154.667 0.333008 162 1c24 3.33301 47 12 69 26
c29.333 16 52 39.333 68 70c13.333 26 20.666 65 21.999 117v442h335v-443c0 -55.333 -4.33301 -104.333 -13 -147c-4.66699 -23.333 -10.334 -45.333 -17.001 -66h289v-335h-357v204zM448.003 1334l223 223l223 -223l-223 -224z" />
    <glyph glyph-name="uniFE9A" unicode="&#x62b;" horiz-adv-x="1722" arabic-form="final" 
d="M831 0c-270 0 -472.668 67.833 -608.001 203.5s-206.333 286.167 -213 451.5h339c34.667 -212.667 175.334 -319 422.001 -319l582 -1v655h335v-655h40v-335h-897zM812.999 1535l223 -223l-223 -224l-224 224zM588.999 1212l224 -223l-224 -224l-223 224zM1037 1212
l223 -223l-223 -224l-224 224z" />
    <glyph glyph-name="uniFE9B" unicode="&#x62b;" horiz-adv-x="832" arabic-form="initial" 
d="M327 362c29.333 16 52.0039 39.333 68.0039 70c13.333 26 20.666 65 21.999 117v442h335v-443c0 -55.333 -4.33301 -104.333 -13 -147c-8.66699 -46 -22.334 -87.333 -41.001 -124c-18 -37.333 -41.333 -72.333 -70 -105c-52 -57.333 -110 -100.333 -174 -129
c-58.667 -26 -123.334 -40.333 -194.001 -43h-264v335c167.333 0 254.666 0.333008 261.999 1c24 3.33301 47 12 69 26zM447.004 1880l223 -223l-223 -224l-224 224zM448.004 1334l223 223l223 -223l-223 -224l-223 224l-224 -224l-223 224l223 223z" />
    <glyph glyph-name="uniFE9C" unicode="&#x62b;" horiz-adv-x="900" arabic-form="medial" 
d="M448 1334l-224 -224l-223 224l223 223zM447 1880l223 -223l-223 -224l-224 224zM554 204c-8 -10.667 -16.6641 -21.333 -25.9971 -32c-52 -57.333 -110 -100.333 -174 -129c-58.667 -26 -123.334 -40.333 -194.001 -43h-164v335c100.667 0 154.667 0.333008 162 1
c24 3.33301 47 12 69 26c29.333 16 52 39.333 68 70c13.333 26 20.666 65 21.999 117v442h335v-443c0 -55.333 -4.33301 -104.333 -13 -147c-4.66699 -23.333 -10.334 -45.333 -17.001 -66h289v-335h-357v204zM448.003 1334l223 223l223 -223l-223 -224z" />
    <glyph glyph-name="uniFE9E" unicode="&#x62c;" horiz-adv-x="1501" arabic-form="final" 
d="M1423 335h97.999v-335h-183v180c-17.333 -20.667 -36.666 -40.667 -57.999 -60c-31.333 -28 -65.333 -50.667 -102 -68c-35.333 -18 -75.333 -31 -120 -39c-41.333 -8.66699 -88.666 -13 -141.999 -13h-117v1h-286c-8.66699 -2.66699 -16.334 -5.66699 -23.001 -9
c-30 -16 -52.667 -38 -68 -66c-16.667 -26.667 -25.334 -54.667 -26.001 -84c0.666992 -29.333 9.33398 -57.666 26.001 -84.999c15.333 -28 38 -50 68 -66c24.667 -12.667 62.334 -20 113.001 -22v1h462v-324h-463c-53.333 0 -100.666 4.33301 -141.999 13
c-44.667 8 -84.667 21 -120 39c-36.667 17.333 -70.667 40 -102 68c-55.333 50 -97 106 -125 168c-27.333 62.667 -41 132 -41 208s13.667 145 41 207c28 61.333 69.667 117 125 167c31.333 28 65.333 50.667 102 68c35.333 18 75.333 31 120 39
c41.333 8.66699 88.666 13 141.999 13h217v-1h186c8.66699 2.66699 16.334 5.66699 23.001 9c30 16 52.667 38 68 66c16.667 26.667 25.334 54.667 26.001 84c-0.666992 29.333 -9.33398 57.666 -26.001 84.999c-15.333 28 -38 50 -68 66
c-24.667 12.667 -62.334 20 -113.001 22v-1h-462v324h463c53.333 0 100.666 -4.33301 141.999 -13c44.667 -8 84.667 -21 120 -39c36.667 -17.333 70.667 -40 102 -68c55.333 -50 97 -106 125 -168c27.333 -62.667 41 -132 41 -208c0 -56.667 -7.66699 -109.667 -23 -159z
M1237 -53l223 -223l-223 -224l-224 224z" />
    <glyph glyph-name="uniFE9F" unicode="&#x62c;" horiz-adv-x="1273" arabic-form="initial" 
d="M777 335c8.66699 2.66699 16.334 5.66797 23.001 9.00098c30 16 52.667 38 68 66c16.667 26.667 25.334 54.667 26.001 84c-0.666992 29.333 -9.33398 57.666 -26.001 84.999c-15.333 28 -38 50 -68 66c-24.667 12.667 -62.334 20 -113.001 22v-1h-462v324h463
c53.333 0 100.666 -4.33301 141.999 -13c44.667 -8 84.667 -21 120 -39c36.667 -17.333 70.667 -40 102 -68c55.333 -50 97 -106 125 -168c27.333 -62.667 41 -132 41 -208s-13.667 -145 -41 -207c-28 -61.333 -69.667 -117 -125 -167c-31.333 -28 -65.333 -50.667 -102 -68
c-35.333 -18 -75.333 -31 -120 -39c-41.333 -8.66699 -88.666 -13 -141.999 -13h-717v335h806zM541 -52.999l223 -223l-223 -224l-224 224z" />
    <glyph glyph-name="uniFEA0" unicode="&#x62c;" horiz-adv-x="1273" arabic-form="medial" 
d="M1195 335l97.999 0.000976562v-335h-183v180c-17.333 -20.667 -36.666 -40.667 -57.999 -60c-31.333 -28 -65.333 -50.667 -102 -68c-35.333 -18 -75.333 -31 -120 -39c-41.333 -8.66699 -88.666 -13 -141.999 -13h-717v335h806c8.66699 2.66699 16.334 5.66699 23.001 9
c30 16 52.667 38 68 66c16.667 26.667 25.334 54.667 26.001 84c-0.666992 29.333 -9.33398 57.666 -26.001 84.999c-15.333 28 -38 50 -68 66c-24.667 12.667 -62.334 20 -113.001 22v-1h-462v324h463c53.333 0 100.666 -4.33301 141.999 -13c44.667 -8 84.667 -21 120 -39
c36.667 -17.333 70.667 -40 102 -68c55.333 -50 97 -106 125 -168c27.333 -62.667 41 -132 41 -208c0 -56.667 -7.66699 -109.667 -23 -159zM540.999 -52.999l223 -223l-223 -224l-224 224z" />
    <glyph glyph-name="uniFEA2" unicode="&#x62d;" horiz-adv-x="1452" arabic-form="final" 
d="M1374 335h97.999v-335h-183v180c-17.333 -20.667 -36.666 -40.667 -57.999 -60c-31.333 -28 -65.333 -50.667 -102 -68c-35.333 -18 -75.333 -31 -120 -39c-41.333 -8.66699 -88.666 -13 -141.999 -13h-117v1h-286c-8.66699 -2.66699 -16.334 -5.66699 -23.001 -9
c-30 -16 -52.667 -38 -68 -66c-16.667 -26.667 -25.334 -54.667 -26.001 -84c0.666992 -29.333 9.33398 -57.666 26.001 -84.999c15.333 -28 38 -50 68 -66c24.667 -12.667 62.334 -20 113.001 -22v1h462v-324h-463c-53.333 0 -100.666 4.33301 -141.999 13
c-44.667 8 -84.667 21 -120 39c-36.667 17.333 -70.667 40 -102 68c-55.333 50 -97 106 -125 168c-27.333 62.667 -41 132 -41 208s13.667 145 41 207c28 61.333 69.667 117 125 167c31.333 28 65.333 50.667 102 68c35.333 18 75.333 31 120 39
c41.333 8.66699 88.666 13 141.999 13h217v-1h186c8.66699 2.66699 16.334 5.66699 23.001 9c30 16 52.667 38 68 66c16.667 26.667 25.334 54.667 26.001 84c-0.666992 29.333 -9.33398 57.666 -26.001 84.999c-15.333 28 -38 50 -68 66
c-24.667 12.667 -62.334 20 -113.001 22v-1h-462v324h463c53.333 0 100.666 -4.33301 141.999 -13c44.667 -8 84.667 -21 120 -39c36.667 -17.333 70.667 -40 102 -68c55.333 -50 97 -106 125 -168c27.333 -62.667 41 -132 41 -208c0 -56.667 -7.66699 -109.667 -23 -159z
" />
    <glyph glyph-name="uniFEA3" unicode="&#x62d;" horiz-adv-x="1240" arabic-form="initial" 
d="M777 335c8.66699 2.66699 16.334 5.66797 23.001 9.00098c30 16 52.667 38 68 66c16.667 26.667 25.334 54.667 26.001 84c-0.666992 29.333 -9.33398 57.666 -26.001 84.999c-15.333 28 -38 50 -68 66c-24.667 12.667 -62.334 20 -113.001 22v-1h-462v324h463
c53.333 0 100.666 -4.33301 141.999 -13c44.667 -8 84.667 -21 120 -39c36.667 -17.333 70.667 -40 102 -68c55.333 -50 97 -106 125 -168c27.333 -62.667 41 -132 41 -208s-13.667 -145 -41 -207c-28 -61.333 -69.667 -117 -125 -167c-31.333 -28 -65.333 -50.667 -102 -68
c-35.333 -18 -75.333 -31 -120 -39c-41.333 -8.66699 -88.666 -13 -141.999 -13h-717v335h806z" />
    <glyph glyph-name="uniFEA4" unicode="&#x62d;" horiz-adv-x="1273" arabic-form="medial" 
d="M1195 335l97.999 0.000976562v-335h-183v180c-17.333 -20.667 -36.666 -40.667 -57.999 -60c-31.333 -28 -65.333 -50.667 -102 -68c-35.333 -18 -75.333 -31 -120 -39c-41.333 -8.66699 -88.666 -13 -141.999 -13h-717v335h806c8.66699 2.66699 16.334 5.66699 23.001 9
c30 16 52.667 38 68 66c16.667 26.667 25.334 54.667 26.001 84c-0.666992 29.333 -9.33398 57.666 -26.001 84.999c-15.333 28 -38 50 -68 66c-24.667 12.667 -62.334 20 -113.001 22v-1h-462v324h463c53.333 0 100.666 -4.33301 141.999 -13c44.667 -8 84.667 -21 120 -39
c36.667 -17.333 70.667 -40 102 -68c55.333 -50 97 -106 125 -168c27.333 -62.667 41 -132 41 -208c0 -56.667 -7.66699 -109.667 -23 -159z" />
    <glyph glyph-name="uniFEA6" unicode="&#x62e;" horiz-adv-x="1501" arabic-form="final" 
d="M1423 335h97.999v-335h-183v180c-17.333 -20.667 -36.666 -40.667 -57.999 -60c-31.333 -28 -65.333 -50.667 -102 -68c-35.333 -18 -75.333 -31 -120 -39c-41.333 -8.66699 -88.666 -13 -141.999 -13h-117v1h-286c-8.66699 -2.66699 -16.334 -5.66699 -23.001 -9
c-30 -16 -52.667 -38 -68 -66c-16.667 -26.667 -25.334 -54.667 -26.001 -84c0.666992 -29.333 9.33398 -57.666 26.001 -84.999c15.333 -28 38 -50 68 -66c24.667 -12.667 62.334 -20 113.001 -22v1h462v-324h-463c-53.333 0 -100.666 4.33301 -141.999 13
c-44.667 8 -84.667 21 -120 39c-36.667 17.333 -70.667 40 -102 68c-55.333 50 -97 106 -125 168c-27.333 62.667 -41 132 -41 208s13.667 145 41 207c28 61.333 69.667 117 125 167c31.333 28 65.333 50.667 102 68c35.333 18 75.333 31 120 39
c41.333 8.66699 88.666 13 141.999 13h217v-1h186c8.66699 2.66699 16.334 5.66699 23.001 9c30 16 52.667 38 68 66c16.667 26.667 25.334 54.667 26.001 84c-0.666992 29.333 -9.33398 57.666 -26.001 84.999c-15.333 28 -38 50 -68 66
c-24.667 12.667 -62.334 20 -113.001 22v-1h-462v324h463c53.333 0 100.666 -4.33301 141.999 -13c44.667 -8 84.667 -21 120 -39c36.667 -17.333 70.667 -40 102 -68c55.333 -50 97 -106 125 -168c27.333 -62.667 41 -132 41 -208c0 -56.667 -7.66699 -109.667 -23 -159z
M530.999 1315l224 223l223 -223l-223 -224z" />
    <glyph glyph-name="uniFEA7" unicode="&#x62e;" horiz-adv-x="1240" arabic-form="initial" 
d="M777 335c8.66699 2.66699 16.334 5.66797 23.001 9.00098c30 16 52.667 38 68 66c16.667 26.667 25.334 54.667 26.001 84c-0.666992 29.333 -9.33398 57.666 -26.001 84.999c-15.333 28 -38 50 -68 66c-24.667 12.667 -62.334 20 -113.001 22v-1h-462v324h463
c53.333 0 100.666 -4.33301 141.999 -13c44.667 -8 84.667 -21 120 -39c36.667 -17.333 70.667 -40 102 -68c55.333 -50 97 -106 125 -168c27.333 -62.667 41 -132 41 -208s-13.667 -145 -41 -207c-28 -61.333 -69.667 -117 -125 -167c-31.333 -28 -65.333 -50.667 -102 -68
c-35.333 -18 -75.333 -31 -120 -39c-41.333 -8.66699 -88.666 -13 -141.999 -13h-717v335h806zM233 1315l224 223l223 -223l-223 -224z" />
    <glyph glyph-name="uniFEA8" unicode="&#x62e;" horiz-adv-x="1273" arabic-form="medial" 
d="M233 1315l224 223l223 -223l-223 -224zM1195 335l97.999 0.000976562v-335h-183v180c-17.333 -20.667 -36.666 -40.667 -57.999 -60c-31.333 -28 -65.333 -50.667 -102 -68c-35.333 -18 -75.333 -31 -120 -39c-41.333 -8.66699 -88.666 -13 -141.999 -13h-717v335h806
c8.66699 2.66699 16.334 5.66699 23.001 9c30 16 52.667 38 68 66c16.667 26.667 25.334 54.667 26.001 84c-0.666992 29.333 -9.33398 57.666 -26.001 84.999c-15.333 28 -38 50 -68 66c-24.667 12.667 -62.334 20 -113.001 22v-1h-462v324h463
c53.333 0 100.666 -4.33301 141.999 -13c44.667 -8 84.667 -21 120 -39c36.667 -17.333 70.667 -40 102 -68c55.333 -50 97 -106 125 -168c27.333 -62.667 41 -132 41 -208c0 -56.667 -7.66699 -109.667 -23 -159z" />
    <glyph glyph-name="uniFEAA" unicode="&#x62f;" horiz-adv-x="1093" arabic-form="final" 
d="M956 180c-17.333 -20.667 -36.667 -40.666 -58 -59.999c-31.333 -28 -65.333 -50.667 -102 -68c-35.333 -18 -75.333 -31 -120 -39c-41.333 -8.66699 -88.666 -13 -141.999 -13h-399v335h488c8.66699 2.66699 16.334 5.66699 23.001 9c30 16 52.667 38 68 66
c16.667 26.667 25.334 54.667 26.001 84c-0.666992 29.333 -9.33398 57.666 -26.001 84.999c-15.333 28 -38 50 -68 66c-24.667 12.667 -62.334 20 -113.001 22v-1h-396v324h397c53.333 0 100.666 -4.33301 141.999 -13c44.667 -8 84.667 -21 120 -39
c36.667 -17.333 70.667 -40 102 -68c55.333 -50 97 -106 125 -168c27.333 -62.667 41 -132 41 -208c0 -56.667 -7.66699 -109.667 -23 -159h78v-335h-163v180z" />
    <glyph glyph-name="uniFEAC" unicode="&#x630;" horiz-adv-x="1199" arabic-form="final" 
d="M1062 180c-17.333 -20.667 -36.667 -40.666 -58 -59.999c-31.333 -28 -65.333 -50.667 -102 -68c-35.333 -18 -75.333 -31 -120 -39c-41.333 -8.66699 -88.666 -13 -141.999 -13h-399v335h488c8.66699 2.66699 16.334 5.66699 23.001 9c30 16 52.667 38 68 66
c16.667 26.667 25.334 54.667 26.001 84c-0.666992 29.333 -9.33398 57.666 -26.001 84.999c-15.333 28 -38 50 -68 66c-24.667 12.667 -62.334 20 -113.001 22v-1h-396v324h397c53.333 0 100.666 -4.33301 141.999 -13c44.667 -8 84.667 -21 120 -39
c36.667 -17.333 70.667 -40 102 -68c55.333 -50 97 -106 125 -168c27.333 -62.667 41 -132 41 -208c0 -56.667 -7.66699 -109.667 -23 -159h78v-335h-163v180zM12.999 1315l224 223l223 -223l-223 -224z" />
    <glyph glyph-name="uniFEAE" unicode="&#x631;" horiz-adv-x="600" arabic-form="final" 
d="M233 990h335.003v-655h70v-335h-71c-2 -36 -6 -69 -12 -99c-8.66699 -46 -22.334 -87.333 -41.001 -124c-18 -37.333 -41.333 -72.333 -70 -105c-52 -57.333 -110 -100.333 -174 -129c-58.667 -26 -123.334 -40.333 -194.001 -43h-84v335
c47.333 0 74.666 0.333008 81.999 1c24 3.33301 47 12 69 26c29.333 16 52 39.333 68 70c8.66699 17.333 16 40 22 68v990z" />
    <glyph glyph-name="uniFEB0" unicode="&#x632;" horiz-adv-x="600" arabic-form="final" 
d="M219 990h335.003v-655h70v-335h-71c-2 -36 -6 -69 -12 -99c-8.66699 -46 -22.334 -87.333 -41.001 -124c-18 -37.333 -41.333 -72.333 -70 -105c-52 -57.333 -110 -100.333 -174 -129c-58.667 -26 -123.334 -40.333 -194.001 -43h-84v335
c47.333 0 74.666 0.333008 81.999 1c24 3.33301 47 12 69 26c29.333 16 52 39.333 68 70c8.66699 17.333 16 40 22 68v990zM107.003 1339l224 223l223 -223l-223 -224z" />
    <glyph glyph-name="uniFEB2" unicode="&#x633;" horiz-adv-x="2167" arabic-form="final" 
d="M1129 336c5.33301 0.666992 9.00293 0.998047 11.0029 0.998047c24 3.33301 47 12 69 26c29.333 16 52 39.333 68 70c13.333 26 20.666 65 21.999 117v442h335v-443c0 -55.333 -4.33301 -104.333 -13 -147c-4 -23.333 -9.66699 -45.666 -17 -66.999h30v-335h-108v193
l-16 -20c-52 -57.333 -110 -100.333 -174 -129c-58.667 -26 -123.334 -40.333 -194.001 -43h-6v-1h-108v53c-70.667 -86 -178 -148.333 -322 -187l-72 -8h-103c-194 0 -347.333 106.667 -460 320c-21.333 56.667 -32 108.334 -32 155.001v145
c0 194.667 112.333 348.667 337 462c55.333 20 116 30 182 30v-305c-142.667 0 -214 -67.333 -214 -202v-108c26 -133.333 88.333 -200 187 -200h96c99.333 0 161.666 66.667 186.999 200v634h316v-620c0 -11.333 -0.333008 -22.333 -1 -33zM2022 190.998
c-5.33301 -6.66699 -10.6641 -13 -15.9971 -19c-52 -57.333 -110 -100.333 -174 -129c-58.667 -26 -123.334 -40.333 -194.001 -43h-38v335c19.333 0 31.333 0.333008 36 1c24 3.33301 47 12 69 26c29.333 16 52 39.333 68 70c13.333 26 20.666 65 21.999 117v442h335v-443
c0 -55.333 -4.33301 -104.333 -13 -147c-4.66699 -23.333 -10.334 -45.333 -17.001 -66h86v-335h-164v191z" />
    <glyph glyph-name="uniFEB3" unicode="&#x633;" horiz-adv-x="1563" arabic-form="initial" 
d="M999 335c19.333 0 31.3359 0.333008 36.0029 1c24 3.33301 47 12 69 26c29.333 16 52 39.333 68 70c13.333 26 20.666 65 21.999 117v442h335v-443c0 -55.333 -4.33301 -104.333 -13 -147c-8.66699 -46 -22.334 -87.333 -41.001 -124
c-18 -37.333 -41.333 -72.333 -70 -105c-52 -57.333 -110 -100.333 -174 -129c-58.667 -26 -123.334 -40.333 -194.001 -43h-38v335zM535.003 1l0.00488281 -1.00098h-108v192c-5.33301 -6.66699 -10.666 -13 -15.999 -19c-52 -57.333 -110 -100.333 -174 -129
c-58.667 -26 -123.334 -40.333 -194.001 -43h-84v335c47.333 0 74.666 0.333008 81.999 1c24 3.33301 47 12 69 26c29.333 16 52 39.333 68 70c13.333 26 20.666 65 21.999 117v442h335v-443c0 -55.333 -4.33301 -104.333 -13 -147
c-4.66699 -22.667 -10.334 -44.667 -17.001 -66c18.667 0 30 0.333008 34 1c24 3.33301 47 12 69 26c29.333 16 52 39.333 68 70c13.333 26 20.666 65 21.999 117v442h335v-443c0 -55.333 -4.33301 -104.333 -13 -147c-4 -23.333 -9.66699 -45.666 -17 -66.999h30v-335h-108
v193l-16 -20c-52 -57.333 -110 -100.333 -174 -129c-58.667 -26 -123.334 -40.333 -194.001 -43h-6z" />
    <glyph glyph-name="uniFEB4" unicode="&#x633;" horiz-adv-x="1585" arabic-form="medial" 
d="M535 1l0.00488281 -1.00098h-108v192c-5.33301 -6.66699 -10.666 -13 -15.999 -19c-52 -57.333 -110 -100.333 -174 -129c-58.667 -26 -123.334 -40.333 -194.001 -43h-84v335c47.333 0 74.666 0.333008 81.999 1c24 3.33301 47 12 69 26c29.333 16 52 39.333 68 70
c13.333 26 20.666 65 21.999 117v442h335v-443c0 -55.333 -4.33301 -104.333 -13 -147c-4.66699 -22.667 -10.334 -44.667 -17.001 -66c18.667 0 30 0.333008 34 1c24 3.33301 47 12 69 26c29.333 16 52 39.333 68 70c13.333 26 20.666 65 21.999 117v442h335v-443
c0 -55.333 -4.33301 -104.333 -13 -147c-4 -23.333 -9.66699 -45.666 -17 -66.999h30v-335h-108v193l-16 -20c-52 -57.333 -110 -100.333 -174 -129c-58.667 -26 -123.334 -40.333 -194.001 -43h-6zM1421 190.999c-5.33301 -6.66699 -10.6641 -13 -15.9971 -19
c-52 -57.333 -110 -100.333 -174 -129c-58.667 -26 -123.334 -40.333 -194.001 -43h-38v335c19.333 0 31.333 0.333008 36 1c24 3.33301 47 12 69 26c29.333 16 52 39.333 68 70c13.333 26 20.666 65 21.999 117v442h335v-443c0 -55.333 -4.33301 -104.333 -13 -147
c-4.66699 -23.333 -10.334 -45.333 -17.001 -66h106v-335h-184v191z" />
    <glyph glyph-name="uniFEB6" unicode="&#x634;" horiz-adv-x="2174" arabic-form="final" 
d="M1129 336c5.33301 0.666992 9.00293 0.998047 11.0029 0.998047c24 3.33301 47 12 69 26c29.333 16 52 39.333 68 70c13.333 26 20.666 65 21.999 117v442h335v-443c0 -55.333 -4.33301 -104.333 -13 -147c-4 -23.333 -9.66699 -45.666 -17 -66.999h30v-335h-108v193
l-16 -20c-52 -57.333 -110 -100.333 -174 -129c-58.667 -26 -123.334 -40.333 -194.001 -43h-6v-1h-108v53c-70.667 -86 -178 -148.333 -322 -187l-72 -8h-103c-194 0 -347.333 106.667 -460 320c-21.333 56.667 -32 108.334 -32 155.001v145
c0 194.667 112.333 348.667 337 462c55.333 20 116 30 182 30v-305c-142.667 0 -214 -67.333 -214 -202v-108c26 -133.333 88.333 -200 187 -200h96c99.333 0 161.666 66.667 186.999 200v634h316v-620c0 -11.333 -0.333008 -22.333 -1 -33zM1671 1561l223 -223l-223 -224
l-224 224zM1223 1561l224 -223l-224 -224l-223 224zM1447 1884l223 -223l-223 -224l-224 224zM2022 190.998c-5.33301 -6.66699 -10.6641 -13 -15.9971 -19c-52 -57.333 -110 -100.333 -174 -129c-58.667 -26 -123.334 -40.333 -194.001 -43h-38v335
c19.333 0 31.333 0.333008 36 1c24 3.33301 47 12 69 26c29.333 16 52 39.333 68 70c13.333 26 20.666 65 21.999 117v442h335v-443c0 -55.333 -4.33301 -104.333 -13 -147c-4.66699 -23.333 -10.334 -45.333 -17.001 -66h86v-335h-164v191z" />
    <glyph glyph-name="uniFEB7" unicode="&#x634;" horiz-adv-x="1600" arabic-form="initial" 
d="M999 335c19.333 0 31.3359 0.333008 36.0029 1c24 3.33301 47 12 69 26c29.333 16 52 39.333 68 70c13.333 26 20.666 65 21.999 117v442h335v-443c0 -55.333 -4.33301 -104.333 -13 -147c-8.66699 -46 -22.334 -87.333 -41.001 -124
c-18 -37.333 -41.333 -72.333 -70 -105c-52 -57.333 -110 -100.333 -174 -129c-58.667 -26 -123.334 -40.333 -194.001 -43h-38v335zM535.003 1l0.00488281 -1.00098h-108v192c-5.33301 -6.66699 -10.666 -13 -15.999 -19c-52 -57.333 -110 -100.333 -174 -129
c-58.667 -26 -123.334 -40.333 -194.001 -43h-84v335c47.333 0 74.666 0.333008 81.999 1c24 3.33301 47 12 69 26c29.333 16 52 39.333 68 70c13.333 26 20.666 65 21.999 117v442h335v-443c0 -55.333 -4.33301 -104.333 -13 -147
c-4.66699 -22.667 -10.334 -44.667 -17.001 -66c18.667 0 30 0.333008 34 1c24 3.33301 47 12 69 26c29.333 16 52 39.333 68 70c13.333 26 20.666 65 21.999 117v442h335v-443c0 -55.333 -4.33301 -104.333 -13 -147c-4 -23.333 -9.66699 -45.666 -17 -66.999h30v-335h-108
v193l-16 -20c-52 -57.333 -110 -100.333 -174 -129c-58.667 -26 -123.334 -40.333 -194.001 -43h-6zM1071.01 1561l223 -223l-223 -224l-224 224zM623.008 1561l224 -223l-224 -224l-223 224zM847.008 1884l223 -223l-223 -224l-224 224z" />
    <glyph glyph-name="uniFEB8" unicode="&#x634;" horiz-adv-x="1600" arabic-form="medial" 
d="M535 1l0.00488281 -1.00098h-108v192c-5.33301 -6.66699 -10.666 -13 -15.999 -19c-52 -57.333 -110 -100.333 -174 -129c-58.667 -26 -123.334 -40.333 -194.001 -43h-84v335c47.333 0 74.666 0.333008 81.999 1c24 3.33301 47 12 69 26c29.333 16 52 39.333 68 70
c13.333 26 20.666 65 21.999 117v442h335v-443c0 -55.333 -4.33301 -104.333 -13 -147c-4.66699 -22.667 -10.334 -44.667 -17.001 -66c18.667 0 30 0.333008 34 1c24 3.33301 47 12 69 26c29.333 16 52 39.333 68 70c13.333 26 20.666 65 21.999 117v442h335v-443
c0 -55.333 -4.33301 -104.333 -13 -147c-4 -23.333 -9.66699 -45.666 -17 -66.999h30v-335h-108v193l-16 -20c-52 -57.333 -110 -100.333 -174 -129c-58.667 -26 -123.334 -40.333 -194.001 -43h-6zM1071 1561l223 -223l-223 -224l-224 224zM623.005 1561l224 -223
l-224 -224l-223 224zM847.005 1884l223 -223l-223 -224l-224 224zM1421 190.999c-5.33301 -6.66699 -10.6641 -13 -15.9971 -19c-52 -57.333 -110 -100.333 -174 -129c-58.667 -26 -123.334 -40.333 -194.001 -43h-38v335c19.333 0 31.333 0.333008 36 1
c24 3.33301 47 12 69 26c29.333 16 52 39.333 68 70c13.333 26 20.666 65 21.999 117v442h335v-443c0 -55.333 -4.33301 -104.333 -13 -147c-4.66699 -23.333 -10.334 -45.333 -17.001 -66h126v-335h-204v191z" />
    <glyph glyph-name="uniFEBA" unicode="&#x635;" horiz-adv-x="2383" arabic-form="final" 
d="M986 0c-68 -59.333 -158.335 -104.005 -271.002 -134.005l-72 -8h-103c-194 0 -347.333 106.667 -460 320c-21.333 56.667 -32 108.334 -32 155.001v145c0 194.667 112.333 348.667 337 462c55.333 20 116 30 182 30v-305c-142.667 0 -214 -67.333 -214 -202v-108
c26 -133.333 88.333 -200 187 -200h96c99.333 0 161.666 66.667 186.999 200v634h316v-620c0 -11.333 -0.333008 -22.666 -1 -33.999h706c49.333 0 90 14 122 42c32 28.667 48 66 48 112c0 32 -7.66699 60 -23 84c-13.333 24.667 -32.666 43.334 -57.999 56.001
c-25.333 13.333 -66 20 -122 20h-401v-253h-170v594h590c46 0 89.667 -4 131 -12c44.667 -8.66699 84.667 -22 120 -40c36 -18 70 -41 102 -69c56 -50 97.667 -106.333 125 -169c28 -63.333 42 -131.666 42 -204.999c0 -55.333 -8.33301 -108.666 -25 -159.999h73v-335h-156
v181c-12 -15.333 -25.333 -30 -40 -44c-51.333 -48.667 -101.666 -83.667 -150.999 -105s-94.666 -32 -135.999 -32h-929z" />
    <glyph glyph-name="uniFEBB" unicode="&#x635;" horiz-adv-x="1800" arabic-form="initial" 
d="M404 191c-5.33301 -6.66699 -10.667 -13.002 -16 -19.002c-52 -57.333 -110 -100.333 -174 -129c-58.667 -26 -123.334 -40.333 -194.001 -43h-44v335c20.667 0 34.667 0.333008 42 1c24 3.33301 47 12 69 26c29.333 16 52 39.333 68 70c13.333 26 20.666 65 21.999 117
v442h335v-443c0 -55.333 -4.33301 -104.333 -13 -147c-4.66699 -23.333 -10.334 -45.333 -17.001 -66h762c49.333 0 90 14 122 42c32 28.667 48 66 48 112c0 32 -7.66699 60 -23 84c-13.333 24.667 -32.666 43.334 -57.999 56.001c-25.333 13.333 -66 20 -122 20h-401v-253
h-170v594h590c46 0 89.667 -4 131 -12c44.667 -8.66699 84.667 -22 120 -40c36 -18 70 -41 102 -69c56 -50 97.667 -106.333 125 -169c28 -63.333 42 -131.666 42 -204.999c0 -68.667 -12.667 -134 -38 -196c-25.333 -61.333 -62 -115.333 -110 -162
c-51.333 -48.667 -101.666 -83.667 -150.999 -105s-94.666 -32 -135.999 -32h-911v191z" />
    <glyph glyph-name="uniFEBC" unicode="&#x635;" horiz-adv-x="1800" arabic-form="medial" 
d="M404 191c-5.33301 -6.66699 -10.668 -13.0029 -16.001 -19.0029c-52 -57.333 -110 -100.333 -174 -129c-58.667 -26 -123.334 -40.333 -194.001 -43h-44v335c20.667 0 34.667 0.333008 42 1c24 3.33301 47 12 69 26c29.333 16 52 39.333 68 70
c13.333 26 20.666 65 21.999 117v442h335v-443c0 -55.333 -4.33301 -104.333 -13 -147c-4.66699 -23.333 -10.334 -45.333 -17.001 -66h762c49.333 0 90 14 122 42c32 28.667 48 66 48 112c0 32 -7.66699 60 -23 84c-13.333 24.667 -32.666 43.334 -57.999 56.001
c-25.333 13.333 -66 20 -122 20h-401v-253h-170v594h590c46 0 89.667 -4 131 -12c44.667 -8.66699 84.667 -22 120 -40c36 -18 70 -41 102 -69c56 -50 97.667 -106.333 125 -169c28 -63.333 42 -131.666 42 -204.999c0 -55.333 -8.33301 -108.666 -25 -159.999h93v-335h-173
v185c-13.333 -16.667 -27.666 -32.667 -42.999 -48c-51.333 -48.667 -101.666 -83.667 -150.999 -105s-94.666 -32 -135.999 -32h-911v191z" />
    <glyph glyph-name="uniFEBE" unicode="&#x636;" horiz-adv-x="2383" arabic-form="final" 
d="M1356 1315l224 223l223 -223l-223 -224zM986 0c-68 -59.333 -158.335 -104.005 -271.002 -134.005l-72 -8h-103c-194 0 -347.333 106.667 -460 320c-21.333 56.667 -32 108.334 -32 155.001v145c0 194.667 112.333 348.667 337 462c55.333 20 116 30 182 30v-305
c-142.667 0 -214 -67.333 -214 -202v-108c26 -133.333 88.333 -200 187 -200h96c99.333 0 161.666 66.667 186.999 200v634h316v-620c0 -11.333 -0.333008 -22.666 -1 -33.999h706c49.333 0 90 14 122 42c32 28.667 48 66 48 112c0 32 -7.66699 60 -23 84
c-13.333 24.667 -32.666 43.334 -57.999 56.001c-25.333 13.333 -66 20 -122 20h-401v-253h-170v594h590c46 0 89.667 -4 131 -12c44.667 -8.66699 84.667 -22 120 -40c36 -18 70 -41 102 -69c56 -50 97.667 -106.333 125 -169c28 -63.333 42 -131.666 42 -204.999
c0 -55.333 -8.33301 -108.666 -25 -159.999h73v-335h-156v181c-12 -15.333 -25.333 -30 -40 -44c-51.333 -48.667 -101.666 -83.667 -150.999 -105s-94.666 -32 -135.999 -32h-929z" />
    <glyph glyph-name="uniFEBF" unicode="&#x636;" horiz-adv-x="1800" arabic-form="initial" 
d="M676 1315l224 223l223 -223l-223 -224zM404 191c-5.33301 -6.66699 -10.667 -13.002 -16 -19.002c-52 -57.333 -110 -100.333 -174 -129c-58.667 -26 -123.334 -40.333 -194.001 -43h-44v335c20.667 0 34.667 0.333008 42 1c24 3.33301 47 12 69 26
c29.333 16 52 39.333 68 70c13.333 26 20.666 65 21.999 117v442h335v-443c0 -55.333 -4.33301 -104.333 -13 -147c-4.66699 -23.333 -10.334 -45.333 -17.001 -66h762c49.333 0 90 14 122 42c32 28.667 48 66 48 112c0 32 -7.66699 60 -23 84
c-13.333 24.667 -32.666 43.334 -57.999 56.001c-25.333 13.333 -66 20 -122 20h-401v-253h-170v594h590c46 0 89.667 -4 131 -12c44.667 -8.66699 84.667 -22 120 -40c36 -18 70 -41 102 -69c56 -50 97.667 -106.333 125 -169c28 -63.333 42 -131.666 42 -204.999
c0 -68.667 -12.667 -134 -38 -196c-25.333 -61.333 -62 -115.333 -110 -162c-51.333 -48.667 -101.666 -83.667 -150.999 -105s-94.666 -32 -135.999 -32h-911v191z" />
    <glyph glyph-name="uniFEC0" unicode="&#x636;" horiz-adv-x="1800" arabic-form="medial" 
d="M676 1315l224 223l223 -223l-223 -224zM404 191c-5.33301 -6.66699 -10.668 -13.0029 -16.001 -19.0029c-52 -57.333 -110 -100.333 -174 -129c-58.667 -26 -123.334 -40.333 -194.001 -43h-44v335c20.667 0 34.667 0.333008 42 1c24 3.33301 47 12 69 26
c29.333 16 52 39.333 68 70c13.333 26 20.666 65 21.999 117v442h335v-443c0 -55.333 -4.33301 -104.333 -13 -147c-4.66699 -23.333 -10.334 -45.333 -17.001 -66h762c49.333 0 90 14 122 42c32 28.667 48 66 48 112c0 32 -7.66699 60 -23 84
c-13.333 24.667 -32.666 43.334 -57.999 56.001c-25.333 13.333 -66 20 -122 20h-401v-253h-170v594h590c46 0 89.667 -4 131 -12c44.667 -8.66699 84.667 -22 120 -40c36 -18 70 -41 102 -69c56 -50 97.667 -106.333 125 -169c28 -63.333 42 -131.666 42 -204.999
c0 -55.333 -8.33301 -108.666 -25 -159.999h93v-335h-173v185c-13.333 -16.667 -27.666 -32.667 -42.999 -48c-51.333 -48.667 -101.666 -83.667 -150.999 -105s-94.666 -32 -135.999 -32h-911v191z" />
    <glyph glyph-name="uniFEC2" unicode="&#x637;" horiz-adv-x="1761" arabic-form="final" 
d="M368 195c-6 -8 -12.335 -15.6699 -19.002 -23.0029c-52 -57.333 -110 -100.333 -174 -129c-58.667 -26 -106.667 -40.333 -144 -43c71.333 134 107 250.333 107 349v991h335v-792c0 -55.333 -4.33301 -104.333 -13 -147c-4.66699 -23.333 -10.334 -45.333 -17.001 -66
h765c49.333 0 90 14 122 42c32 28.667 48 66 48 112c0 32 -7.66699 60 -23 84c-13.333 24.667 -32.666 43.334 -57.999 56.001c-25.333 13.333 -66 20 -122 20h-401v-253h-170v594h590c46 0 89.667 -4 131 -12c44.667 -8.66699 84.667 -22 120 -40c36 -18 70 -41 102 -69
c56 -50 97.667 -106.333 125 -169c28 -63.333 42 -131.666 42 -204.999c0 -55.333 -8.33301 -108.666 -25 -159.999h90v-335h-173v181c-12 -15.333 -25.333 -30 -40 -44c-51.333 -48.667 -101.666 -83.667 -150.999 -105s-94.666 -32 -135.999 -32h-911v195z" />
    <glyph glyph-name="uniFEC3" unicode="&#x637;" horiz-adv-x="1800" arabic-form="initial" 
d="M378 161c-49.333 -52 -104 -91.335 -164 -118.002c-58.667 -26 -123.334 -40.333 -194.001 -43h-44v335c20.667 0 34.667 0.333008 42 1c24 3.33301 47 12 69 26c29.333 16 52 39.333 68 70c13.333 26 20.666 65 21.999 117v791h335v-792
c0 -55.333 -4.33301 -104.333 -13 -147c-4.66699 -23.333 -10.334 -45.333 -17.001 -66h736c49.333 0 90 14 122 42c32 28.667 48 66 48 112c0 32 -7.66699 60 -23 84c-13.333 24.667 -32.666 43.334 -57.999 56.001c-25.333 13.333 -66 20 -122 20h-401v-253h-170v594h590
c46 0 89.667 -4 131 -12c44.667 -8.66699 84.667 -22 120 -40c36 -18 70 -41 102 -69c56 -50 97.667 -106.333 125 -169c28 -63.333 42 -131.666 42 -204.999c0 -68.667 -12.667 -134 -38 -196c-25.333 -61.333 -62 -115.333 -110 -162
c-51.333 -48.667 -101.666 -83.667 -150.999 -105s-94.666 -32 -135.999 -32h-911v161z" />
    <glyph glyph-name="uniFEC4" unicode="&#x637;" horiz-adv-x="1800" arabic-form="medial" 
d="M398 184l-10 -12.0039c-52 -57.333 -110 -100.333 -174 -129c-58.667 -26 -123.334 -40.333 -194.001 -43h-44v335c20.667 0 34.667 0.333008 42 1c24 3.33301 47 12 69 26c29.333 16 52 39.333 68 70c13.333 26 20.666 65 21.999 117v791h335v-792
c0 -55.333 -4.33301 -104.333 -13 -147c-4.66699 -23.333 -10.334 -45.333 -17.001 -66h756c49.333 0 90 14 122 42c32 28.667 48 66 48 112c0 32 -7.66699 60 -23 84c-13.333 24.667 -32.666 43.334 -57.999 56.001c-25.333 13.333 -66 20 -122 20h-401v-253h-170v594h590
c46 0 89.667 -4 131 -12c44.667 -8.66699 84.667 -22 120 -40c36 -18 70 -41 102 -69c56 -50 97.667 -106.333 125 -169c28 -63.333 42 -131.666 42 -204.999c0 -55.333 -8.33301 -108.666 -25 -159.999h99v-335h-173v192c-14.667 -19.333 -31 -37.666 -49 -54.999
c-51.333 -48.667 -101.666 -83.667 -150.999 -105s-94.666 -32 -135.999 -32h-911v184z" />
    <glyph glyph-name="uniFEC6" unicode="&#x638;" horiz-adv-x="1751" arabic-form="final" 
d="M777 1335l224 223l223 -223l-223 -224zM358 195c-6 -8 -12.335 -15.6699 -19.002 -23.0029c-52 -57.333 -110 -100.333 -174 -129c-58.667 -26 -106.667 -40.333 -144 -43c71.333 134 107 250.333 107 349v991h335v-792c0 -55.333 -4.33301 -104.333 -13 -147
c-4.66699 -23.333 -10.334 -45.333 -17.001 -66h765c49.333 0 90 14 122 42c32 28.667 48 66 48 112c0 32 -7.66699 60 -23 84c-13.333 24.667 -32.666 43.334 -57.999 56.001c-25.333 13.333 -66 20 -122 20h-401v-253h-170v594h590c46 0 89.667 -4 131 -12
c44.667 -8.66699 84.667 -22 120 -40c36 -18 70 -41 102 -69c56 -50 97.667 -106.333 125 -169c28 -63.333 42 -131.666 42 -204.999c0 -55.333 -8.33301 -108.666 -25 -159.999h90v-335h-173v181c-12 -15.333 -25.333 -30 -40 -44
c-51.333 -48.667 -101.666 -83.667 -150.999 -105s-94.666 -32 -135.999 -32h-911v195z" />
    <glyph glyph-name="uniFEC7" unicode="&#x638;" horiz-adv-x="1800" arabic-form="initial" 
d="M826 1335l224 223l223 -223l-223 -224zM398 184l-10 -12.002c-52 -57.333 -110 -100.333 -174 -129c-58.667 -26 -123.334 -40.333 -194.001 -43h-44v335c20.667 0 34.667 0.333008 42 1c24 3.33301 47 12 69 26c29.333 16 52 39.333 68 70
c13.333 26 20.666 65 21.999 117v791h335v-792c0 -55.333 -4.33301 -104.333 -13 -147c-4.66699 -23.333 -10.334 -45.333 -17.001 -66h756c49.333 0 90 14 122 42c32 28.667 48 66 48 112c0 32 -7.66699 60 -23 84c-13.333 24.667 -32.666 43.334 -57.999 56.001
c-25.333 13.333 -66 20 -122 20h-401v-253h-170v594h590c46 0 89.667 -4 131 -12c44.667 -8.66699 84.667 -22 120 -40c36 -18 70 -41 102 -69c56 -50 97.667 -106.333 125 -169c28 -63.333 42 -131.666 42 -204.999c0 -68.667 -12.667 -134 -38 -196
c-25.333 -61.333 -62 -115.333 -110 -162c-51.333 -48.667 -101.666 -83.667 -150.999 -105s-94.666 -32 -135.999 -32h-911v184z" />
    <glyph glyph-name="uniFEC8" unicode="&#x638;" horiz-adv-x="1800" arabic-form="medial" 
d="M826 1335l224 223l223 -223l-223 -224zM398 184l-10 -12.0039c-52 -57.333 -110 -100.333 -174 -129c-58.667 -26 -123.334 -40.333 -194.001 -43h-44v335c20.667 0 34.667 0.333008 42 1c24 3.33301 47 12 69 26c29.333 16 52 39.333 68 70
c13.333 26 20.666 65 21.999 117v791h335v-792c0 -55.333 -4.33301 -104.333 -13 -147c-4.66699 -23.333 -10.334 -45.333 -17.001 -66h756c49.333 0 90 14 122 42c32 28.667 48 66 48 112c0 32 -7.66699 60 -23 84c-13.333 24.667 -32.666 43.334 -57.999 56.001
c-25.333 13.333 -66 20 -122 20h-401v-253h-170v594h590c46 0 89.667 -4 131 -12c44.667 -8.66699 84.667 -22 120 -40c36 -18 70 -41 102 -69c56 -50 97.667 -106.333 125 -169c28 -63.333 42 -131.666 42 -204.999c0 -55.333 -8.33301 -108.666 -25 -159.999h99v-335h-173
v192c-14.667 -19.333 -31 -37.666 -49 -54.999c-51.333 -48.667 -101.666 -83.667 -150.999 -105s-94.666 -32 -135.999 -32h-911v184z" />
    <glyph glyph-name="uniFECA" unicode="&#x639;" horiz-adv-x="1395" arabic-form="final" 
d="M875 645l-0.000976562 -8l123 -302h14c78.667 0 128.334 41.333 149.001 124v62c0 88.667 -43 133 -129 133h-148c-6 -0.666992 -9 -3.66699 -9 -9zM1307 335h119.998v-335h-195v226c-19.333 -24 -40.333 -48.333 -63 -73c-98 -102 -227.667 -153 -389 -153h-264v1h-55
c-8.66699 -2.66699 -16.334 -5.66699 -23.001 -9c-30 -16 -52.667 -38 -68 -66c-16.667 -26.667 -25.334 -54.667 -26.001 -84c0.666992 -29.333 9.33398 -57.666 26.001 -84.999c15.333 -28 38 -50 68 -66c24.667 -12.667 62.334 -20 113.001 -22v1h462v-324h-463
c-53.333 0 -100.666 4.33301 -141.999 13c-44.667 8 -84.667 21 -120 39c-36.667 17.333 -70.667 40 -102 68c-55.333 50 -97 106 -125 168c-27.333 62.667 -41 132 -41 208s13.667 145 41 207c28 61.333 69.667 117 125 167c31.333 28 65.333 50.667 102 68
c35.333 18 75.333 31 120 39c36.667 8 78.334 12.333 125.001 13v-1h231l-224 560v4c0 60.667 34.667 91 104 91h293c156.667 0 269 -41 337 -123c70.667 -90 106 -177.667 106 -263v-21c0 -80.667 -24.333 -163.334 -73 -248.001z" />
    <glyph glyph-name="uniFECB" unicode="&#x639;" horiz-adv-x="905" arabic-form="initial" 
d="M54 335c-15.333 50 -22.998 103.666 -22.998 160.999c0 76 13.667 145 41 207c28 61.333 69.667 117 125 167c31.333 28 65.333 50.667 102 68c35.333 18 75.333 31 120 39c41.333 8.66699 88.666 13 141.999 13h299v-335h-388
c-8.66699 -2.66699 -16.334 -5.66699 -23.001 -9c-30 -16 -52.667 -38 -68 -66c-16.667 -26.667 -25.334 -54.667 -26.001 -84c0.666992 -29.333 9.33398 -57.666 26.001 -84.999c15.333 -28 38 -50 68 -66c7.33301 -4 16 -7.33301 26 -10h381v-11h2v-324h-868v335h64z" />
    <glyph glyph-name="uniFECC" unicode="&#x639;" horiz-adv-x="875" arabic-form="medial" 
d="M355 645l-0.000976562 -8l123 -302h14c78.667 0 128.334 41.333 149.001 124v62c0 88.667 -43 133 -129 133h-148c-6 -0.666992 -9 -3.66699 -9 -9zM711.999 226c-19.333 -24 -40.333 -48.332 -63 -72.999c-98 -102 -227.667 -153 -389 -153h-274v335h258l-224 560v4
c0 60.667 34.667 91 104 91h293c156.667 0 269 -41 337 -123c70.667 -90 106 -177.667 106 -263v-21c0 -80.667 -24.333 -163.334 -73 -248.001h114v-335h-189v226z" />
    <glyph glyph-name="uniFECE" unicode="&#x63a;" horiz-adv-x="1395" arabic-form="final" 
d="M875 645l-0.000976562 -8l123 -302h14c78.667 0 128.334 41.333 149.001 124v62c0 88.667 -43 133 -129 133h-148c-6 -0.666992 -9 -3.66699 -9 -9zM662.999 1337l224 223l223 -223l-223 -224zM1307 335h112.998v-335h-188v226c-19.333 -24 -40.333 -48.333 -63 -73
c-98 -102 -227.667 -153 -389 -153h-264v1h-55c-8.66699 -2.66699 -16.334 -5.66699 -23.001 -9c-30 -16 -52.667 -38 -68 -66c-16.667 -26.667 -25.334 -54.667 -26.001 -84c0.666992 -29.333 9.33398 -57.666 26.001 -84.999c15.333 -28 38 -50 68 -66
c24.667 -12.667 62.334 -20 113.001 -22v1h462v-324h-463c-53.333 0 -100.666 4.33301 -141.999 13c-44.667 8 -84.667 21 -120 39c-36.667 17.333 -70.667 40 -102 68c-55.333 50 -97 106 -125 168c-27.333 62.667 -41 132 -41 208s13.667 145 41 207
c28 61.333 69.667 117 125 167c31.333 28 65.333 50.667 102 68c35.333 18 75.333 31 120 39c36.667 8 78.334 12.333 125.001 13v-1h231l-224 560v4c0 60.667 34.667 91 104 91h293c156.667 0 269 -41 337 -123c70.667 -90 106 -177.667 106 -263v-21
c0 -80.667 -24.333 -163.334 -73 -248.001z" />
    <glyph glyph-name="uniFECF" unicode="&#x63a;" horiz-adv-x="905" arabic-form="initial" 
d="M54 335c-15.333 50 -22.998 103.666 -22.998 160.999c0 76 13.667 145 41 207c28 61.333 69.667 117 125 167c31.333 28 65.333 50.667 102 68c35.333 18 75.333 31 120 39c41.333 8.66699 88.666 13 141.999 13h299v-335h-388
c-8.66699 -2.66699 -16.334 -5.66699 -23.001 -9c-30 -16 -52.667 -38 -68 -66c-16.667 -26.667 -25.334 -54.667 -26.001 -84c0.666992 -29.333 9.33398 -57.666 26.001 -84.999c15.333 -28 38 -50 68 -66c7.33301 -4 16 -7.33301 26 -10h381v-11h2v-324h-868v335h64z
M400.002 1337l224 223l223 -223l-223 -224z" />
    <glyph glyph-name="uniFED0" unicode="&#x63a;" horiz-adv-x="873" arabic-form="medial" 
d="M353 645l-0.000976562 -8l123 -302h14c78.667 0 128.334 41.333 149.001 124v62c0 88.667 -43 133 -129 133h-148c-6 -0.666992 -9 -3.66699 -9 -9zM699.999 213c-16.667 -20 -34.333 -39.999 -53 -59.999c-98 -102 -227.667 -153 -389 -153h-264v335h248l-224 560v4
c0 60.667 34.667 91 104 91h293c156.667 0 269 -41 337 -123c70.667 -90 106 -177.667 106 -263v-21c0 -80.667 -24.333 -163.334 -73 -248.001h109v-335h-194v213zM141 1337l224 223l223 -223l-223 -224z" />
    <glyph glyph-name="uniFED2" unicode="&#x641;" horiz-adv-x="1900" arabic-form="final" 
d="M1130 1337l224 223l223 -223l-223 -224zM1751 191c-5.33301 -6.66699 -10.668 -12.999 -16.001 -18.999c-52 -57.333 -110 -100.333 -174 -129c-58.667 -26 -123.334 -40.333 -194.001 -43h-805c-118.667 0.666992 -215.334 22.667 -290.001 66
c-59.333 33.333 -109 81 -149 143c-40.667 61.333 -67 131.666 -79 210.999c-24 150.667 10 292.334 102 425.001l280 -210c-33.333 -53.333 -46.333 -109 -39 -167c7.33301 -52.667 28 -87.667 62 -105c34.667 -18 94.334 -27.333 179.001 -28h675
c39.333 0.666992 72 4 98 10c11.333 4.66699 22.333 10.334 33 17.001c29.333 16 52 39.333 68 70c10.667 20 17.334 48 20.001 84c-3.33301 39.333 -19 73.333 -47 102c-32.667 32 -71.667 48 -117 48c-47.333 0 -86.666 -16.667 -117.999 -50
c-32.667 -32.667 -49 -74 -49 -124c0 -28 6.33301 -59 19 -93h-293c-14 53.333 -21 102.666 -21 147.999c0 85.333 20.333 162.333 61 231c40 70 94.667 124 164 162c70.667 40 149 60 235 60c90.667 0 178.334 -22.667 263.001 -68
c76.667 -44.667 137.334 -105.334 182.001 -182.001c37.333 -62.667 56.666 -130 57.999 -202c0 -55.333 -4.33301 -104.333 -13 -147c-4.66699 -23.333 -10.334 -45.333 -17.001 -66h85v-335h-163v191z" />
    <glyph glyph-name="uniFED3" unicode="&#x641;" horiz-adv-x="1074" arabic-form="initial" 
d="M-13 335l483.999 0.000976562c39.333 0.666992 72 4 98 10c11.333 4.66699 22.333 10.334 33 17.001c29.333 16 52 39.333 68 70c10.667 20 17.334 48 20.001 84c-3.33301 39.333 -19 73.333 -47 102c-32.667 32 -71.667 48 -117 48
c-47.333 0 -86.666 -16.667 -117.999 -50c-32.667 -32.667 -49 -74 -49 -124c0 -28 6.33301 -59 19 -93h-293c-14 53.333 -21 102.666 -21 147.999c0 85.333 20.333 162.333 61 231c40 70 94.667 124 164 162c70.667 40 149 60 235 60c90.667 0 178.334 -22.667 263.001 -68
c76.667 -44.667 137.334 -105.334 182.001 -182.001c37.333 -62.667 56.666 -130 57.999 -202c0 -55.333 -4.33301 -104.333 -13 -147c-8.66699 -46 -22.334 -87.333 -41.001 -124c-18 -37.333 -41.333 -72.333 -70 -105c-52 -57.333 -110 -100.333 -174 -129
c-58.667 -26 -123.334 -40.333 -194.001 -43h-548v335zM283.999 1337l224 223l223 -223l-223 -224z" />
    <glyph glyph-name="uniFED4" unicode="&#x641;" horiz-adv-x="1074" arabic-form="medial" 
d="M284 1337l224 223l223 -223l-223 -224zM919 191c-5.33301 -6.66699 -10.668 -12.999 -16.001 -18.999c-52 -57.333 -110 -100.333 -174 -129c-58.667 -26 -123.334 -40.333 -194.001 -43h-548v335h484c39.333 0.666992 72 4 98 10
c11.333 4.66699 22.333 10.334 33 17.001c29.333 16 52 39.333 68 70c10.667 20 17.334 48 20.001 84c-3.33301 39.333 -19 73.333 -47 102c-32.667 32 -71.667 48 -117 48c-47.333 0 -86.666 -16.667 -117.999 -50c-32.667 -32.667 -49 -74 -49 -124
c0 -28 6.33301 -59 19 -93h-293c-14 53.333 -21 102.666 -21 147.999c0 85.333 20.333 162.333 61 231c40 70 94.667 124 164 162c70.667 40 149 60 235 60c90.667 0 178.334 -22.667 263.001 -68c76.667 -44.667 137.334 -105.334 182.001 -182.001
c37.333 -62.667 56.666 -130 57.999 -202c0 -55.333 -4.33301 -104.333 -13 -147c-4.66699 -23.333 -10.334 -45.333 -17.001 -66h100v-335h-178v191z" />
    <glyph glyph-name="uniFED6" unicode="&#x642;" horiz-adv-x="1362" arabic-form="final" 
d="M1052 1560l223 -223l-223 -224l-224 224zM1337 335h45.0029v-335h-93c-10.667 -26 -23.334 -51.667 -38.001 -77c-56.667 -99.333 -135.334 -177.666 -236.001 -234.999c-98.667 -58 -206.334 -87 -323.001 -87c-115.333 0 -223 28.667 -323 86s-178.667 136 -236 236
c-57.333 99.333 -86 207 -86 323l330 1v-1c0 -56.667 14.333 -109.334 43 -158.001c28 -48 66 -85.667 114 -113c48.667 -29.333 101.334 -44 158.001 -44s109.334 14.667 158.001 44c49.333 27.333 87.666 65 114.999 113c28 48 42 100.667 42 158h-2v204
c0 62.667 -7.66699 108.667 -23 138c-14 27.333 -33.667 48 -59 62c-24 15.333 -51.667 23 -83 23c-48 0 -88 -16.333 -120 -49c-33.333 -33.333 -50 -72.666 -50 -117.999c0 -48 17.333 -88.333 52 -121c32 -32.667 73.333 -49 124 -49c29.333 0 60.666 6.66699 93.999 20
v-287c-54 -20.667 -103.333 -31 -148 -31c-87.333 0 -165.333 20.333 -234 61c-71.333 40.667 -126.666 96 -165.999 166c-39.333 71.333 -59 151 -59 239c0 91.333 22.667 175.666 68 252.999c44.667 77.333 106 138.666 184 183.999c77.333 45.333 161 68 251 68
c57.333 0 114.333 -9.33301 171 -28c53.333 -20 103.666 -48.667 150.999 -86c44.667 -37.333 82 -80.333 112 -129c24.667 -41.333 42 -83.666 52 -126.999c10 -44.667 15 -102.667 15 -174v-130zM605.003 1560l223 -223l-223 -224l-224 224z" />
    <glyph glyph-name="uniFED7" unicode="&#x642;" horiz-adv-x="1074" arabic-form="initial" 
d="M-8 335l483.999 0.000976562c39.333 0.666992 72 4 98 10c11.333 4.66699 22.333 10.334 33 17.001c29.333 16 52 39.333 68 70c10.667 20 17.334 48 20.001 84c-3.33301 39.333 -19 73.333 -47 102c-32.667 32 -71.667 48 -117 48
c-47.333 0 -86.666 -16.667 -117.999 -50c-32.667 -32.667 -49 -74 -49 -124c0 -28 6.33301 -59 19 -93h-293c-14 53.333 -21 102.666 -21 147.999c0 85.333 20.333 162.333 61 231c40 70 94.667 124 164 162c70.667 40 149 60 235 60c90.667 0 178.334 -22.667 263.001 -68
c76.667 -44.667 137.334 -105.334 182.001 -182.001c37.333 -62.667 56.666 -130 57.999 -202c0 -55.333 -4.33301 -104.333 -13 -147c-8.66699 -46 -22.334 -87.333 -41.001 -124c-18 -37.333 -41.333 -72.333 -70 -105c-52 -57.333 -110 -100.333 -174 -129
c-58.667 -26 -123.334 -40.333 -194.001 -43h-548v335zM761.999 1560l223 -223l-223 -224l-224 224zM313.999 1560l224 -223l-224 -224l-223 224z" />
    <glyph glyph-name="uniFED8" unicode="&#x642;" horiz-adv-x="1066" arabic-form="medial" 
d="M762 1560l223 -223l-223 -224l-224 224zM924 191c-5.33301 -6.66699 -10.668 -12.999 -16.001 -18.999c-52 -57.333 -110 -100.333 -174 -129c-58.667 -26 -123.334 -40.333 -194.001 -43h-548v335h484c39.333 0.666992 72 4 98 10
c11.333 4.66699 22.333 10.334 33 17.001c29.333 16 52 39.333 68 70c10.667 20 17.334 48 20.001 84c-3.33301 39.333 -19 73.333 -47 102c-32.667 32 -71.667 48 -117 48c-47.333 0 -86.666 -16.667 -117.999 -50c-32.667 -32.667 -49 -74 -49 -124
c0 -28 6.33301 -59 19 -93h-293c-14 53.333 -21 102.666 -21 147.999c0 85.333 20.333 162.333 61 231c40 70 94.667 124 164 162c70.667 40 149 60 235 60c90.667 0 178.334 -22.667 263.001 -68c76.667 -44.667 137.334 -105.334 182.001 -182.001
c37.333 -62.667 56.666 -130 57.999 -202c0 -55.333 -4.33301 -104.333 -13 -147c-4.66699 -23.333 -10.334 -45.333 -17.001 -66h76v-335h-154v191zM313.998 1560l224 -223l-224 -224l-223 224z" />
    <glyph glyph-name="uniFEDA" unicode="&#x643;" horiz-adv-x="2000" arabic-form="final" 
d="M1279 878v-168.002h-383c-125.333 0 -194 72.667 -206 218h82c26.667 -30.667 48.667 -46.667 66 -48c-24 42.667 -36.333 90.334 -37 143.001l2 28c0 33.333 11.333 61.333 34 84c24 23.333 53.333 35 88 35h335v-164h-296c4 -33.333 20.667 -61.666 50 -84.999
c28 -22.667 62.333 -37 103 -43h162zM1831 199.998l-23 -28c-52 -57.333 -110 -100.333 -174 -129c-65.333 -28.667 -138 -43 -218 -43h-579c-270 0 -472.667 67.833 -608 203.5s-206.333 286.167 -213 451.5h339c34.667 -212.667 175.334 -319 422.001 -319h75v-1h564
c32 0 62.333 9 91 27c29.333 16 52 39.333 68 70c13.333 26 21 65 23 117h-1v788h335v-789c0 -55.333 -4.33301 -104.333 -13 -147c-4.66699 -23.333 -10.334 -45.333 -17.001 -66h106v-335h-177v200z" />
    <glyph glyph-name="uniFEDB" unicode="&#x643;" horiz-adv-x="1532" arabic-form="initial" 
d="M350 989h574c94 0 173.667 -11.333 239 -34s125.333 -60.334 180 -113.001c51.333 -49.333 90.666 -107 117.999 -173s41 -122.333 41 -169c0 -58.667 -15 -122 -45 -190c-29.333 -66.667 -74 -127 -134 -181c-34 -30 -70.333 -54.333 -109 -73
c-38 -19.333 -81 -33.666 -129 -42.999c-44 -8.66699 -97.667 -13 -161 -13h-938v335h939c60 0 103.667 7 131 21c26.667 14 47.334 34 62.001 60c16 26 24 57.333 24 94c0 35.333 -17 68.333 -51 99c-34 30 -77.667 45 -131 45h-914v394h304v-59zM1499 959
c-173.333 0 -361.667 45.667 -565 137c-138 54 -267.667 81 -389 81c-141.333 0 -307 -38 -497 -114v277c190 75.333 355.333 113 496 113c122 0 251.667 -26.667 389 -80c204 -91.333 392.667 -137 566 -137v-277z" />
    <glyph glyph-name="uniFEDC" unicode="&#x643;" horiz-adv-x="1532" arabic-form="medial" 
d="M1499 959c-173.333 0 -361.667 45.667 -565 137c-138 54 -267.667 81 -389 81c-141.333 0 -307 -38 -497 -114v277c190 75.333 355.333 113 496 113c122 0 251.667 -26.667 389 -80c204 -91.333 392.667 -137 566 -137v-277zM1391 205
c-20.667 -26.667 -44.333 -52 -71 -76c-34 -30 -70.333 -54.333 -109 -73c-38 -19.333 -81 -33.666 -129 -42.999c-44 -8.66699 -97.667 -13 -161 -13h-935v335h936c60 0 103.667 7 131 21c26.667 14 47.334 34 62.001 60c16 26 24 57.333 24 94c0 35.333 -17 68.333 -51 99
c-34 30 -77.667 45 -131 45h-911v394h304v-59h571c94 0 173.667 -11.333 239 -34s125.333 -60.334 180 -113.001c51.333 -49.333 90.666 -107 117.999 -173s41 -122.333 41 -169c0 -51.333 -11.667 -106.333 -35 -165h79v-335h-152v205z" />
    <glyph glyph-name="uniFEDE" unicode="&#x644;" horiz-adv-x="1164" arabic-form="final" 
d="M950 0c-68 -59.333 -158.331 -104.002 -270.998 -134.002l-72 -8h-103c-194 0 -347.333 106.667 -460 320c-21.333 56.667 -32 108.334 -32 155.001v75c0 194.667 112.333 348.667 337 462c55.333 20 102.666 30 141.999 30v-305c-116 0 -174 -67.333 -174 -202v-38
c26 -133.333 88.333 -200 187 -200h96c99.333 0 161.666 66.667 186.999 200v986h316v-972c0 -11.333 -0.333008 -22.666 -1 -33.999h87v-335h-239z" />
    <glyph glyph-name="uniFEDF" unicode="&#x644;" horiz-adv-x="559" arabic-form="initial" 
d="M171 549l0.000976562 788h335v-789c0 -55.333 -4.33301 -104.333 -13 -147c-8.66699 -46 -22.334 -87.333 -41.001 -124c-18 -37.333 -41.333 -72.333 -70 -105c-52 -57.333 -110 -100.333 -174 -129c-65.333 -28.667 -138 -43 -218 -43v335c32 0 62.333 9 91 27
c29.333 16 52 39.333 68 70c13.333 26 21 65 23 117h-1z" />
    <glyph glyph-name="uniFEE0" unicode="&#x644;" horiz-adv-x="559" arabic-form="medial" 
d="M398 191c-5.33301 -6.66699 -10.666 -13 -15.999 -19c-52 -57.333 -110 -100.333 -174 -129c-65.333 -28.667 -138 -43 -218 -43v335c32 0 62.333 9 91 27c29.333 16 52 39.333 68 70c13.333 26 21 65 23 117h-1v788h335v-789c0 -55.333 -4.33301 -104.333 -13 -147
c-4.66699 -23.333 -10.334 -45.333 -17.001 -66h101v-335h-179v191z" />
    <glyph glyph-name="uniFEE2" unicode="&#x645;" horiz-adv-x="1138" arabic-form="final" 
d="M1003 164c-33.333 -40 -73.666 -73.667 -120.999 -101c-70.667 -42 -150.334 -63 -239.001 -63c-46 -0 -96.667 7.33301 -152 22v303c34.667 -13.333 66.667 -20 96 -20c52 0 94.333 16.667 127 50c35.333 32.667 53 73.334 53 122.001c0 47.333 -17 87.666 -51 120.999
c-32.667 33.333 -74 50 -124 50c-30.667 0 -58.667 -7.66699 -84 -23c-25.333 -14 -45 -35.333 -59 -64c-16 -29.333 -24 -76 -24 -140v-319c0 -76 6.66699 -131.667 20 -167c17.333 -46.667 47.333 -82.334 90 -107.001c44 -24.667 98.333 -37 163 -37
c33.333 0 61.666 2.66699 84.999 8c27.333 5.33301 56.333 13.333 87 24v-299c-43.333 -9.33301 -81.333 -15.666 -114 -18.999c-36 -3.33301 -69 -5 -99 -5c-76 0 -144 8 -204 24c-61.333 15.333 -114.333 40 -159 74c-48.667 35.333 -89 78 -121 128
c-32 47.333 -54.333 98.333 -67 153c-13.333 52.667 -20 121.334 -20 206.001v351c0 73.333 5 132.666 15 177.999c10.667 44 28.667 87 54 129c30.667 49.333 68.667 93 114 131c48 38.667 99.333 68 154 88c57.333 19.333 115 29 173 29c92.667 0 178.667 -23 258 -69
c78.667 -46 141.334 -108.667 188.001 -188c46 -78.667 69 -165 69 -259c0 -49.333 -6.33301 -96 -19 -140h59v-335h-148v164z" />
    <glyph glyph-name="uniFEE3" unicode="&#x645;" horiz-adv-x="1200" arabic-form="initial" 
d="M173 503c2 42 6.67285 83 14.0059 123c10 42.667 27.333 84.334 52 125.001c29.333 48 66 90.333 110 127c46.667 37.333 96.334 65.666 149.001 84.999c55.333 18.667 114.666 28 177.999 28c96 0 182.333 -22.333 259 -67c76 -44.667 136.667 -105.334 182 -182.001
c44.667 -76 67 -162.667 67 -260c0 -93.333 -19.667 -178.333 -59 -255c-38.667 -69.333 -93 -124 -163 -164c-68 -40.667 -148.333 -61 -241 -61c-44.667 0 -97 7 -157 21v303c33.333 -12.667 67.666 -19 102.999 -19c56.667 0 101 16 133 48c34 32 51 75 51 129
c0 52 -16.333 94.333 -49 127c-32 32 -75.333 48 -130 48c-36.667 0 -67.334 -7.33301 -92.001 -22c-24 -14 -43 -34.667 -57 -62c-4.66699 -22 -8.66699 -45.667 -12 -71c0 -27.333 -4.33301 -61.666 -13 -102.999c-8.66699 -46 -22.334 -87.333 -41.001 -124
c-18 -37.333 -41.333 -72.333 -70 -105c-52 -57.333 -110 -100.333 -174 -129c-58.667 -26 -123.334 -40.333 -194.001 -43h-24v335c7.33301 0 14.666 0.333008 21.999 1c24 3.33301 47 12 69 26c29.333 16 52 39.333 68 70c9.33301 18 15.666 41.667 18.999 71z" />
    <glyph glyph-name="uniFEE4" unicode="&#x645;" horiz-adv-x="1200" arabic-form="medial" 
d="M1076 156c-32 -36.667 -69.9941 -67.667 -113.994 -93c-68 -40.667 -148.333 -61 -241 -61c-44.667 0 -97 7 -157 21v303c33.333 -12.667 67.666 -19 102.999 -19c56.667 0 101 16 133 48c34 32 51 75 51 129c0 52 -16.333 94.333 -49 127c-32 32 -75.333 48 -130 48
c-36.667 0 -67.334 -7.33301 -92.001 -22c-24 -14 -43 -34.667 -57 -62c-4.66699 -22 -8.66699 -45.667 -12 -71c0 -27.333 -4.33301 -61.666 -13 -102.999c-8.66699 -46 -22.334 -87.333 -41.001 -124c-18 -37.333 -41.333 -72.333 -70 -105
c-52 -57.333 -110 -100.333 -174 -129c-58.667 -26 -123.334 -40.333 -194.001 -43h-24v335c7.33301 0 14.666 0.333008 21.999 1c24 3.33301 47 12 69 26c29.333 16 52 39.333 68 70c9.33301 18 15.666 41.667 18.999 71c2 42 6.66699 83 14 123
c10 42.667 27.333 84.334 52 125.001c29.333 48 66 90.333 110 127c46.667 37.333 96.334 65.666 149.001 84.999c55.333 18.667 114.666 28 177.999 28c96 0 182.333 -22.333 259 -67c76 -44.667 136.667 -105.334 182 -182.001c44.667 -76 67 -162.667 67 -260
c0 -51.333 -6 -100.333 -18 -147h45v-335h-135v156z" />
    <glyph glyph-name="uniFEE6" unicode="&#x646;" horiz-adv-x="1400" arabic-form="final" 
d="M1273 335l147.001 -0.00195312v-335h-232v216c-45.333 -50 -98.333 -92.667 -159 -128c-99.333 -58.667 -208.333 -88 -327 -88c-117.333 0 -226 29 -326 87c-100.667 58.667 -180.334 138.334 -239.001 239.001c-56 96.667 -85 201.334 -87 314.001v350h334v-333
c2.66699 -51.333 17 -99.333 43 -144c28.667 -48.667 67.334 -87.334 116.001 -116.001c49.333 -28.667 102.333 -43 159 -43c57.333 0 110.666 14.333 159.999 43c50 28.667 89 67.334 117 116.001c25.333 44.667 39.333 93 42 145v332h334v-354
c-2.66699 -108 -30 -208.333 -82 -301zM479.001 989.998l224 223l223 -223l-223 -224z" />
    <glyph glyph-name="uniFEE7" unicode="&#x646;" horiz-adv-x="571" arabic-form="initial" 
d="M147 362c29.333 16 52.0039 39.333 68.0039 70c13.333 26 20.666 65 21.999 117v442h335v-443c0 -55.333 -4.33301 -104.333 -13 -147c-8.66699 -46 -22.334 -87.333 -41.001 -124c-18 -37.333 -41.333 -72.333 -70 -105c-52 -57.333 -110 -100.333 -174 -129
c-58.667 -26 -123.334 -40.333 -194.001 -43h-84v335c47.333 0 74.666 0.333008 81.999 1c24 3.33301 47 12 69 26zM0.00390625 1337l224 223l223 -223l-223 -224z" />
    <glyph glyph-name="uniFEE8" unicode="&#x646;" horiz-adv-x="571" arabic-form="medial" 
d="M464 191c-5.33301 -6.66699 -10.6631 -13 -15.9961 -19c-52 -57.333 -110 -100.333 -174 -129c-58.667 -26 -123.334 -40.333 -194.001 -43h-84v335c47.333 0 74.666 0.333008 81.999 1c24 3.33301 47 12 69 26c29.333 16 52 39.333 68 70
c13.333 26 20.666 65 21.999 117v442h335v-443c0 -55.333 -4.33301 -104.333 -13 -147c-4.66699 -23.333 -10.334 -45.333 -17.001 -66h30v-335h-108v191zM0.00292969 1337l224 223l223 -223l-223 -224z" />
    <glyph glyph-name="uniFEEA" unicode="&#x647;" horiz-adv-x="1073" arabic-form="final" 
d="M1034 335l66.002 -0.000976562v-335h-404v504c-3.33301 25.333 -7.33301 49 -12 71c-14 27.333 -33 48 -57 62c-24.667 14.667 -55.334 22 -92.001 22c-54.667 0 -98 -16 -130 -48c-32.667 -32.667 -49 -75 -49 -127c0 -54 17 -97 51 -129c32 -32 76.333 -48 133 -48
c35.333 0 63 -0.333008 83 -1v-303c-46.667 -0.666992 -92.334 -1 -137.001 -1c-92.667 0 -173 20.333 -241 61c-70 40 -124.333 94.667 -163 164c-39.333 76.667 -59 161.667 -59 255c0 97.333 22.333 184 67 260c45.333 76.667 106 137.334 182 182.001
c76.667 44.667 163 67 259 67c63.333 0 122.666 -9.33301 177.999 -28c52.667 -19.333 102.334 -47.666 149.001 -84.999c44 -36.667 80.667 -79 110 -127c24.667 -40.667 42 -82.334 52 -125.001c7.33301 -40 12 -81 14 -123v-168z" />
    <glyph glyph-name="uniFEEB" unicode="&#x647;" horiz-adv-x="1243" arabic-form="initial" 
d="M761 344c30 16 52.667 38.001 68 66.001c16.667 26.667 25.334 54.667 26.001 84c-0.666992 29.333 -9.33398 57.666 -26.001 84.999c-15.333 28 -38 50 -68 66c-24.667 12.667 -62.334 20 -113.001 22v-1h-161v-331h251c8.66699 2.66699 16.334 5.66699 23.001 9z
M490 0.000976562c4 -28 10.334 -50.667 19.001 -68c16 -30.667 38.667 -54 68 -70c22 -14 45 -22.667 69 -26c7.33301 -0.666992 21.166 -0.666992 41.499 0s38.5 5 54.5 13c30.667 16.667 53.667 39 69 67c17.333 28 26.333 56 27 84h-348zM-29.999 328.001
l182.003 0.00195312v662h497c53.333 0 100.666 -4.33301 141.999 -13c44.667 -8 84.667 -21 120 -39c36.667 -17.333 70.667 -40 102 -68c55.333 -50 97 -106 125 -168c27.333 -62.667 41 -132 41 -208s-13.667 -145 -41 -207c-7.33301 -16.667 -16 -32.667 -26 -48
c4.66699 -8.66699 9 -17.334 13 -26.001c28 -62.667 42 -132.667 42 -210s-14 -148 -42 -212c-28.667 -62.667 -71 -119.334 -127 -170.001c-32 -28.667 -66.667 -51.667 -104 -69c-35.333 -18.667 -75.666 -32 -120.999 -40c-28.667 -6 -60.334 -10 -95.001 -12h-34
c-70.667 2.66699 -135.334 17 -194.001 43c-64 28.667 -122 71.667 -174 129c-28.667 32.667 -52 67.667 -70 105c-18.667 36.667 -32.334 78 -41.001 124c-5.33301 28 -9.33301 58.667 -12 92h-183v335z" />
    <glyph glyph-name="uniFEEC" unicode="&#x647;" horiz-adv-x="1214" arabic-form="medial" 
d="M761 344c30 16 52.667 38.001 68 66.001c16.667 26.667 25.334 54.667 26.001 84c-0.666992 29.333 -9.33398 57.666 -26.001 84.999c-15.333 28 -38 50 -68 66c-24.667 12.667 -62.334 20 -113.001 22v-1h-161v-331h251c8.66699 2.66699 16.334 5.66699 23.001 9z
M490 0.000976562c4 -28 10.334 -50.667 19.001 -68c16 -30.667 38.667 -54 68 -70c22 -14 45 -22.667 69 -26c7.33301 -0.666992 21.166 -0.666992 41.499 0s38.5 5 54.5 13c30.667 16.667 53.667 39 69 67c17.333 28 26.333 56 27 84h-348zM1229 -6.99902h-190v335h190
v-335zM-29.999 328.001l182.003 0.00195312v662h497c53.333 0 100.666 -4.33301 141.999 -13c44.667 -8 84.667 -21 120 -39c36.667 -17.333 70.667 -40 102 -68c55.333 -50 97 -106 125 -168c27.333 -62.667 41 -132 41 -208s-13.667 -145 -41 -207
c-7.33301 -16.667 -16 -32.667 -26 -48c4.66699 -8.66699 9 -17.334 13 -26.001c28 -62.667 42 -132.667 42 -210s-14 -148 -42 -212c-28.667 -62.667 -71 -119.334 -127 -170.001c-32 -28.667 -66.667 -51.667 -104 -69c-35.333 -18.667 -75.666 -32 -120.999 -40
c-28.667 -6 -60.334 -10 -95.001 -12h-34c-70.667 2.66699 -135.334 17 -194.001 43c-64 28.667 -122 71.667 -174 129c-28.667 32.667 -52 67.667 -70 105c-18.667 36.667 -32.334 78 -41.001 124c-5.33301 28 -9.33301 58.667 -12 92h-183v335z" />
    <glyph glyph-name="uniFEEE" unicode="&#x648;" horiz-adv-x="1205" arabic-form="final" 
d="M1156 335h70.0029v-335h-71c-2 -36 -6 -69 -12 -99c-8.66699 -46 -22.334 -87.333 -41.001 -124c-18 -37.333 -41.333 -72.333 -70 -105c-52 -57.333 -110 -100.333 -174 -129c-58.667 -26 -123.334 -40.333 -194.001 -43h-84v335c47.333 0 74.666 0.333008 81.999 1
c24 3.33301 47 12 69 26c29.333 16 52 39.333 68 70c8.66699 17.333 15 40 19 68h-209c-53.333 -0 -100.666 4.33301 -141.999 13c-44.667 8 -84.667 21 -120 39c-36.667 17.333 -70.667 40 -102 68c-55.333 50 -97 105.667 -125 167c-27.333 62 -41 131 -41 207
s13.667 145.333 41 208c28 62 69.667 118 125 168c31.333 28 65.333 50.667 102 68c35.333 18 75.333 31 120 39c41.333 8.66699 88.666 13 141.999 13h547v-655zM520.003 335l301 -0.000976562v331h-211v1c-50.667 -2 -88.334 -9.33301 -113.001 -22
c-30 -16 -52.667 -38 -68 -66c-16.667 -27.333 -25.334 -55.666 -26.001 -84.999c0.666992 -29.333 9.33398 -57.333 26.001 -84c15.333 -28 38 -50 68 -66c6.66699 -3.33301 14.334 -6.33301 23.001 -9z" />
    <glyph glyph-name="uniFEF0" unicode="&#x649;" horiz-adv-x="1556" arabic-form="final" 
d="M805 990l234 -0.00195312c188 0 320.333 -84.667 397 -254c17.333 -47.333 26 -91.666 26 -132.999v-156c0 -70.667 31.667 -108 95 -112h7v-340h-22c-217.333 0 -326 103 -326 309v221c0 116.667 -22.667 175 -68 175h-8v-700h-557
c-53.333 0 -100.666 4.33301 -141.999 13c-44.667 8 -84.667 21 -120 39c-36.667 17.333 -70.667 40 -102 68c-55.333 50 -97 106 -125 168c-27.333 62.667 -41 132 -41 208s13.667 145 41 207c28 61.333 69.667 117 125 167c31.333 28 65.333 50.667 102 68
c35.333 18 75.333 31 120 39c41.333 8.66699 88.666 13 141.999 13h107v-335h-196c-8.66699 -2.66699 -16.334 -5.66699 -23.001 -9c-30 -16 -52.667 -38 -68 -66c-16.667 -26.667 -25.334 -54.667 -26.001 -84c0.666992 -29.333 9.33398 -57.666 26.001 -84.999
c15.333 -28 38 -50 68 -66c24.667 -12.667 62.334 -20 113.001 -22v1h221v666z" />
    <glyph glyph-name="uniFEF2" unicode="&#x64a;" horiz-adv-x="1556" arabic-form="final" 
d="M805 990l234 -0.00195312c188 0 320.333 -84.667 397 -254c17.333 -47.333 26 -91.666 26 -132.999v-156c0 -70.667 31.667 -108 95 -112h7v-340h-22c-217.333 0 -326 103 -326 309v221c0 116.667 -22.667 175 -68 175h-8v-700h-557
c-53.333 0 -100.666 4.33301 -141.999 13c-44.667 8 -84.667 21 -120 39c-36.667 17.333 -70.667 40 -102 68c-55.333 50 -97 106 -125 168c-27.333 62.667 -41 132 -41 208s13.667 145 41 207c28 61.333 69.667 117 125 167c31.333 28 65.333 50.667 102 68
c35.333 18 75.333 31 120 39c41.333 8.66699 88.666 13 141.999 13h107v-335h-196c-8.66699 -2.66699 -16.334 -5.66699 -23.001 -9c-30 -16 -52.667 -38 -68 -66c-16.667 -26.667 -25.334 -54.667 -26.001 -84c0.666992 -29.333 9.33398 -57.666 26.001 -84.999
c15.333 -28 38 -50 68 -66c24.667 -12.667 62.334 -20 113.001 -22v1h221v666zM684 -269.002l223 223l223 -224l-223 -223l-223 223l-224 -223l-223 223l223 224z" />
    <glyph glyph-name="uniFEF3" unicode="&#x64a;" horiz-adv-x="1005" arabic-form="initial" 
d="M457 362c29.333 16 52.0029 39.333 68.0029 70c13.333 26 20.666 65 21.999 117v442h335v-443c0 -55.333 -4.33301 -104.333 -13 -147c-8.66699 -46 -22.334 -87.333 -41.001 -124c-18 -37.333 -41.333 -72.333 -70 -105c-52 -57.333 -110 -100.333 -174 -129
c-58.667 -26 -123.334 -40.333 -194.001 -43h-394v335c254 0 384.667 0.333008 392 1c24 3.33301 47 12 69 26zM444.003 -269l223 223l223 -224l-223 -223l-223 223l-224 -223l-223 223l223 224z" />
    <glyph glyph-name="uniFEF4" unicode="&#x64a;" horiz-adv-x="900" arabic-form="medial" 
d="M554 204c-8 -10.667 -16.6641 -21.333 -25.9971 -32c-52 -57.333 -110 -100.333 -174 -129c-58.667 -26 -123.334 -40.333 -194.001 -43h-164v335c100.667 0 154.667 0.333008 162 1c24 3.33301 47 12 69 26c29.333 16 52 39.333 68 70c13.333 26 20.666 65 21.999 117
v442h335v-443c0 -55.333 -4.33301 -104.333 -13 -147c-4.66699 -23.333 -10.334 -45.333 -17.001 -66h289v-335h-357v204zM444.003 -268.999l223 223l223 -224l-223 -223l-223 223l-224 -223l-223 223l223 224z" />
    <glyph glyph-name=".notdef" horiz-adv-x="1024" 
d="M0 1365h860v-1365h-860v1365zM41 1324v-1283h778v1283h-778z" />
    <glyph glyph-name=".notdef" horiz-adv-x="1024" 
d="M0 1365h860v-1365h-860v1365zM41 1324v-1283h778v1283h-778z" />
    <glyph glyph-name="space" unicode=" " horiz-adv-x="400" 
 />
    <glyph glyph-name="exclam" unicode="!" horiz-adv-x="633" 
d="M123 166c0 33.333 8.66797 65.665 26.001 96.998c17.333 30.667 41.333 54.334 72 71.001c30.667 17.333 62.667 26 96 26c28 0 53.333 -5 76 -15c25.333 -12 45.666 -25.667 60.999 -41s29 -35.666 41 -60.999c10 -22.667 15 -48.334 15 -77.001
c0 -53.333 -19 -98.666 -57 -135.999c-38.667 -38 -84 -57 -136 -57c-36 0 -68.667 8.66699 -98 26c-30.667 18 -54 41.667 -70 71c-17.333 30.667 -26 62.667 -26 96zM469.001 436.999h-305l-27 928h359z" />
    <glyph glyph-name="quotedbl" unicode="&#x22;" horiz-adv-x="978" 
d="M720 859l-6.00098 -9.00098h-49l-5 9c-5.33301 8 -13.666 23 -24.999 45l-28 50c-6 10 -13.667 25 -23 45c-1.33301 3.33301 -10 20 -26 50c-17.333 36 -29.666 67 -36.999 93c-6.66699 22 -10 46 -10 72c0 31.333 8 61 24 89c16 27.333 38 49 66 65s57.667 24 89 24
s60.666 -7.66699 87.999 -23c27.333 -16 49.333 -38 66 -66c16 -28 24 -57.333 24 -88c0 -47.333 -18 -107.666 -54 -180.999c-28 -58.667 -59.333 -117 -94 -175zM317.999 858.999l-5.99902 -9h-49l-6 9c-36.667 61.333 -70.334 124.666 -101.001 189.999
c-17.333 36 -29.666 67 -36.999 93c-6.66699 22 -10 46 -10 72c0 31.333 8 61 24 89c16 27.333 38 49 66 65s57.667 24 89 24s60.666 -7.66699 87.999 -23c27.333 -16 49.333 -38 66 -66c16 -28 24 -57.333 24 -88c0 -47.333 -18 -107.666 -54 -180.999
c-28 -58.667 -59.333 -117 -94 -175z" />
    <glyph glyph-name="numbersign" unicode="#" horiz-adv-x="883" 
d="M195 330h-151v121h168l29 207h-152v121h170l46 330h121l-47 -330h188l46 330h121l-46 -330h150v-121h-168l-29 -207h152v-121h-169l-46 -330h-120l45 330h-187l-46 -330h-120zM550 658h-188l-29 -207h188z" />
    <glyph glyph-name="dollar" unicode="$" horiz-adv-x="858" 
d="M321 1306v167.998h225v-93c26.667 1.33301 40.334 2 41.001 2c46.667 0 98.334 -6 155.001 -18v-341c-35.333 9.33301 -65.333 14 -90 14c-40.667 0 -74.334 -10.667 -101.001 -32c-26.667 -20.667 -40 -48.667 -40 -84c0 -41.333 24.333 -98.666 73 -171.999
c62.667 -97.333 101 -162 115 -194c27.333 -60 41 -123.333 41 -190c0 -78.667 -17.667 -147.667 -53 -207c-34.667 -59.333 -86.334 -106.666 -155.001 -141.999v-167h-225v115c-2.66699 -0.666992 -7.66699 -1 -15 -1c-60 0 -127.667 12 -203 36v341
c48.667 -24.667 93 -37 133 -37c43.333 0 78.333 10.333 105 31c26 21.333 39 47 39 77c0 21.333 -5 42.333 -15 63c-8.66699 18.667 -29.334 51 -62.001 97c-57.333 82 -97.666 152 -120.999 210c-22.667 55.333 -34 112.666 -34 171.999
c0 70.667 16.667 137.334 50 200.001c34 62 79.667 112.667 137 152z" />
    <glyph glyph-name="percent" unicode="%" horiz-adv-x="1626" 
d="M302 1054c0 -27.333 10.333 -51.333 31 -72c20 -21.333 44.333 -32 73 -32s53.334 10.333 74.001 31s31 45 31 73c0 28.667 -10.333 53.334 -31 74.001s-45.334 31 -74.001 31s-53 -10.333 -73 -31c-20.667 -20.667 -31 -45.334 -31 -74.001zM1115 311
c0 -28.667 10.332 -53.334 30.999 -74.001s45 -31 73 -31c28.667 0 53.334 10.333 74.001 31s31 45.334 31 74.001c0 29.333 -10.333 54 -31 74s-45.334 30 -74.001 30c-27.333 0 -51.666 -10 -72.999 -30c-20.667 -20 -31 -44.667 -31 -74zM67.999 1054
c0 61.333 15.3291 117.669 45.9961 169.002c30 51.333 71 92.666 123 123.999c52 30 108.333 45 169 45c48.667 0 93.334 -9 134.001 -27c40 -17.333 75.333 -41 106 -71c30 -30.667 53.667 -66 71 -106c18 -40.667 27 -85.334 27 -134.001c0 -60.667 -15 -116.667 -45 -168
c-31.333 -52 -72.666 -93 -123.999 -123c-51.333 -30.667 -107.666 -46 -168.999 -46s-117.666 15.333 -168.999 46c-52 30 -93 71 -123 123c-30.667 50.667 -46 106.667 -46 168zM881.995 311.003c0 61.333 15.3301 117.668 45.9971 169.001c30 51.333 71 92.333 123 123
c51.333 30 107.333 45 168 45c48.667 0 93.334 -9 134.001 -27c40 -17.333 75.333 -41 106 -71c30 -30.667 53.667 -66 71 -106c18 -40.667 27 -85 27 -133c0 -60.667 -15 -117 -45 -169c-31.333 -52 -72.666 -93 -123.999 -123c-51.333 -30.667 -107.666 -46 -168.999 -46
s-117.333 15.333 -168 46c-52 30 -93 71 -123 123c-30.667 51.333 -46 107.666 -46 168.999zM542.992 0.00488281h-329l864 1365h329z" />
    <glyph glyph-name="ampersand" unicode="&#x26;" horiz-adv-x="1207" 
d="M787 587h280c0 -126 -19.667 -234 -59 -324l199 -263h-359l-43 55c-40 -30.667 -79 -52 -117 -64c-36 -12.667 -79 -19 -129 -19c-86.667 0 -166.667 21 -240 63c-72.667 40.667 -130.334 97 -173.001 169c-42.667 70.667 -64 148.667 -64 234
c0 151.333 57.333 266.333 172 345c-45.333 68.667 -68 141 -68 217c0 71.333 17.333 137.333 52 198c34.667 59.333 81.667 106.666 141 141.999c58.667 34.667 123.334 52 194.001 52c71.333 0 136.666 -17.333 195.999 -52s106.666 -81.667 141.999 -141
c34.667 -58.667 52 -123.667 52 -195c0 -70.667 -16.667 -134.667 -50 -192c-32.667 -56.667 -82 -105.334 -148 -146.001l-168 220c64.667 18.667 97 58 97 118c0 35.333 -11 64.333 -33 87c-22.667 22.667 -51.667 34 -87 34c-33.333 0 -61.666 -11 -84.999 -33
c-23.333 -23.333 -35 -51.666 -35 -84.999c0 -16.667 4 -34 12 -52c8 -19.333 22.333 -42.666 43 -69.999l135 -178c-159.333 -58 -239 -142 -239 -252c0 -50.667 17 -92.667 51 -126c34.667 -33.333 77.334 -50 128.001 -50c46 0 86.667 14.667 122 44
c34 28.667 56.333 66 67 112c9.33301 39.333 14 90 14 152z" />
    <glyph glyph-name="quotesingle" unicode="'" horiz-adv-x="575" 
d="M318 859l-5.99902 -9h-49l-6 9c-36.667 61.333 -70.334 124.666 -101.001 189.999c-17.333 36 -29.666 67 -36.999 93c-6.66699 22 -10 46 -10 72c0 31.333 8 61 24 89c16 27.333 38 49 66 65s57.667 24 89 24s60.666 -7.66699 87.999 -23c27.333 -16 49.333 -38 66 -66
c16 -28 24 -57.333 24 -88c0 -47.333 -18 -107.666 -54 -180.999c-28 -58.667 -59.333 -117 -94 -175z" />
    <glyph glyph-name="parenleft" unicode="(" horiz-adv-x="819" 
d="M796 -238l-273.001 -0.00195312c-58 74.667 -106.667 147 -146 217c-43.333 76.667 -77.666 151 -102.999 223c-26.667 75.333 -46.667 152.333 -60 231c-12.667 76 -19 159.333 -19 250s6.33301 174.334 19 251.001c13.333 81.333 33 158 59 230
c28 76.667 62.333 150.334 103 221.001c42.667 74 91.667 146.667 147 218h273c-52 -88.667 -93.333 -167.667 -124 -237c-35.333 -77.333 -63 -151.666 -83 -222.999c-22 -74.667 -38 -149.667 -48 -225c-10.667 -72.667 -16 -151.334 -16 -236.001
c0 -84 5.33301 -162.333 16 -235c10 -75.333 26 -150 48 -224c20 -72 47.667 -146.333 83 -223c30.667 -68.667 72 -148 124 -238z" />
    <glyph glyph-name="parenright" unicode=")" horiz-adv-x="819" 
d="M296 -238h-272.999c94.667 160 163.667 312.333 207 457c42.667 142 64 296.667 64 464c0 82 -5 160.333 -15 235c-10 74 -25.667 148.333 -47 223c-22 73.333 -50 148.333 -84 225c-37.333 80.667 -79 159.667 -125 237h273c78 -100 140.667 -197 188 -291
c48 -98.667 83.333 -198.667 106 -300c22.667 -102.667 34 -212.667 34 -330c0 -54 -3 -110.667 -9 -170s-14.333 -112.333 -25 -159c-22.667 -101.333 -58 -201 -106 -299c-46.667 -94 -109.334 -191.333 -188.001 -292z" />
    <glyph glyph-name="asterisk" unicode="*" horiz-adv-x="1048" 
d="M426 1365h194v-269l259 83l59 -184l-256 -83l159 -220l-159 -116l-160 221l-157 -221l-159 116l159 220l-256 83l60 184l257 -82v268z" />
    <glyph glyph-name="plus" unicode="+" horiz-adv-x="953" 
d="M655 679h245v-301h-245v-245h-301v245h-245v301h245v245h301v-245z" />
    <glyph glyph-name="comma" unicode="," horiz-adv-x="611" 
d="M319 -246l-203.999 -0.000976562c39.333 65.333 79 141.333 119 228c-92 43.333 -138 110.333 -138 201c0 38 9.66699 73.333 29 106c18.667 32 44 57.333 76 76c30.667 18.667 66 28 106 28c38.667 0 73.667 -9.33301 105 -28s56.666 -43.667 75.999 -75
c18.667 -31.333 28 -66 28 -104c0 -45.333 -15.667 -103 -47 -173c-32 -71.333 -82 -157.666 -150 -258.999z" />
    <glyph glyph-name="hyphen" unicode="-" horiz-adv-x="1000" 
d="M900 378h-791v301h791v-301z" />
    <glyph glyph-name="period" unicode="." horiz-adv-x="611" 
d="M96 183c0 39.333 9.33398 74.666 28.001 105.999c18.667 32 44 57.333 76 76c31.333 18.667 66.333 28 105 28c39.333 0 74.666 -9.33301 105.999 -28c32 -18.667 57.333 -44 76 -76c18.667 -31.333 28 -66.666 28 -105.999c0 -58 -20.333 -107.333 -61 -148
c-41.333 -41.333 -91 -62 -149 -62c-56.667 0 -105.667 21 -147 63c-41.333 41.333 -62 90.333 -62 147z" />
    <glyph glyph-name="slash" unicode="/" horiz-adv-x="1066" 
d="M331 -137h-331l735 1639h331z" />
    <glyph glyph-name="zero" unicode="0" horiz-adv-x="1529" 
d="M418 683c0 -62.667 15.668 -120.667 47.001 -174c31.333 -52.667 73.333 -94.667 126 -126c53.333 -31.333 111 -47 173 -47c62.667 0 120.667 15.667 174 47c54 31.333 96.333 73.333 127 126s46 110.667 46 174s-15.333 121.333 -46 174s-73 94.667 -127 126
c-52.667 30.667 -110.667 46 -174 46c-62.667 0 -120.334 -15.333 -173.001 -46s-94.667 -72.667 -126 -126s-47 -111.333 -47 -174zM55.001 683c0 128 31.667 246.667 95 356c62.667 108.667 149 194.667 259 258c109.333 63.333 227.666 95 354.999 95
c128 0 246.667 -31.667 356 -95c110 -64.667 196.333 -151 259 -259c63.333 -109.333 95 -227.666 95 -354.999c0 -128 -31.667 -246.667 -95 -356c-62.667 -108.667 -149 -194.667 -259 -258c-108.667 -64 -227.334 -96 -356.001 -96
c-127.333 0 -245.666 31.667 -354.999 95s-195.666 149.666 -258.999 258.999s-95 228 -95 356z" />
    <glyph glyph-name="one" unicode="1" horiz-adv-x="583" 
d="M474 0h-365v1365h365v-1365z" />
    <glyph glyph-name="two" unicode="2" horiz-adv-x="1139" 
d="M799 334l267.001 0.000976562v-334h-925l484 694c3.33301 3.33301 7 8.66602 11 15.999c2 2.66699 4 5.5 6 8.5l5 7.5l30 46c27.333 41.333 41 80.666 41 117.999c0 27.333 -6.66699 53.333 -20 78c-14.667 24 -33 42.333 -55 55c-22.667 12.667 -48.667 19 -78 19
c-44.667 0 -82.667 -15.667 -114 -47s-47 -69.333 -47 -114c0 -32.667 8.33301 -60.667 25 -84c17.333 -24.667 43 -45.667 77 -63l-202 -289c-166 113.333 -249 258.333 -249 435c0 67.333 13.667 133 41 197s64 119 110 165s100.333 82.667 163 110
c60 26.667 125.333 40 196 40c90.667 0 174.667 -22.667 252 -68c77.333 -46 139 -107.667 185 -185c45.333 -77.333 68 -160.666 68 -249.999c0 -60 -10.667 -118 -32 -174c-20.667 -54 -59.334 -122 -116.001 -204z" />
    <glyph glyph-name="three" unicode="3" horiz-adv-x="914" 
d="M68 47l0.00488281 324c40.667 -24.667 74 -41 100 -49c29.333 -9.33301 60.666 -14 93.999 -14c63.333 0 116.333 19.667 159 59c41.333 39.333 62 89.333 62 150c0 49.333 -13.333 92.333 -40 129s-64 65 -112 85c-50 19.333 -107.667 29 -173 29l146 271h-236v334h765
l-247 -437c61.333 -36 110.333 -73.667 147 -113c37.333 -40.667 65.666 -87 84.999 -139c18.667 -51.333 28 -109.333 28 -174c0 -97.333 -22.333 -186.333 -67 -267s-106.334 -144.667 -185.001 -192c-78.667 -46.667 -165.334 -70 -260.001 -70
c-48 0 -92 5.66699 -132 17c-40.667 11.333 -85.334 30.333 -134.001 57z" />
    <glyph glyph-name="four" unicode="4" horiz-adv-x="1170" 
d="M979 0h-365v1002l-214 -374h153v-307h-498v296l434 748h490v-737h123v-307h-123v-321z" />
    <glyph glyph-name="five" unicode="5" horiz-adv-x="953" 
d="M90 57l-0.000976562 318c52 -29.333 97 -50 135 -62c36 -11.333 71.333 -17 106 -17c38.667 0 72.667 7.33301 102 22c30 14.667 53.333 36 70 64c16 27.333 24 58 24 92c0 152 -128 228 -384 228c-28.667 0 -49 -0.333008 -61 -1l89 664h693v-334h-428l-12 -98
c72 -4.66699 137.667 -18.667 197 -42c58 -24 107.667 -55.667 149 -95c41.333 -40 73.333 -86.333 96 -139c22 -52.667 33 -111.667 33 -177c0 -91.333 -22.667 -176.333 -68 -255c-45.333 -78 -107.666 -139.667 -186.999 -185c-78.667 -44.667 -164.334 -67 -257.001 -67
c-53.333 0 -103.666 6.66699 -150.999 20c-43.333 12 -92 33.333 -146 64z" />
    <glyph glyph-name="six" unicode="6" horiz-adv-x="1242" 
d="M152 878l249.999 486.998h410l-330 -642c-42 -80.667 -63 -144.667 -63 -192c0 -55.333 19.667 -102.666 59 -141.999s87 -59 143 -59c58 0 107 20 147 60c39.333 39.333 59 88 59 146c0 65.333 -21.333 116.333 -64 153s-102.667 55 -180 55h-22l177 342
c66.667 -14 128.334 -37.667 185.001 -71s104.334 -74.333 143.001 -123c40 -50.667 70.333 -104.667 91 -162c20.667 -59.333 31 -123.333 31 -192c0 -103.333 -25.333 -198.333 -76 -285c-52 -88.667 -120.667 -157 -206 -205c-86.667 -50 -183 -75 -289 -75
c-74 0 -146 14.667 -216 44c-70.667 29.333 -131.334 70.333 -182.001 123c-50.667 52 -90.667 112.667 -120 182c-29.333 70 -44 142 -44 216c0 51.333 8.33301 106 25 164c17.333 58.667 41.333 117.334 72 176.001z" />
    <glyph glyph-name="seven" unicode="7" horiz-adv-x="990" 
d="M539 0h-382l328 1003h-417v362h922z" />
    <glyph glyph-name="eight" unicode="8" horiz-adv-x="1109" 
d="M444 1014c0 -28.667 10.999 -53.667 32.999 -75c21.333 -21.333 47 -32 77 -32s56.333 10.667 79 32c21.333 21.333 32 47 32 77c0 32 -10.667 58.667 -32 80c-21.333 20.667 -47.666 31 -78.999 31c-30.667 0 -56.667 -10.667 -78 -32
c-21.333 -22.667 -32 -49.667 -32 -81zM392.999 453c0 -46 15.667 -85.332 47 -117.999c30.667 -32.667 68.667 -49 114 -49c46 0 84.333 16 115 48c30.667 30.667 46 69 46 115c0 43.333 -15.667 80.666 -47 111.999s-69 47 -113 47c-28 0 -54.667 -7 -80 -21
c-24.667 -14 -44.667 -32.667 -60 -56c-14.667 -23.333 -22 -49.333 -22 -78zM212.999 797.001c-15.333 24 -27.999 46.665 -37.999 67.998c-10.667 20.667 -18 41.667 -22 63c-4 20 -6 42.333 -6 67c0 72.667 18 139.334 54 200.001c35.333 62 84.333 110.333 147 145
s131.334 52 206.001 52c56.667 0 110 -9.66699 160 -29c50.667 -20.667 94 -49 130 -85c37.333 -37.333 66.333 -79.666 87 -126.999c20 -48.667 30 -100.667 30 -156c0 -36 -4.66699 -68.667 -14 -98c-8 -26.667 -25.333 -60 -52 -100c34 -36 63.333 -72.667 88 -110
c21.333 -34 37.666 -71 48.999 -111c10 -38.667 15 -80 15 -124c0 -67.333 -12.333 -129.666 -37 -186.999c-24.667 -56.667 -60 -107.667 -106 -153c-44.667 -44 -97.334 -78 -158.001 -102c-59.333 -24.667 -123.333 -37 -192 -37c-69.333 0 -133 12.333 -191 37
c-59.333 24 -112.333 58.667 -159 104c-46 44.667 -81.333 96 -106 154c-24.667 57.333 -37 118.666 -37 183.999c0 66 11.667 126 35 180c23.333 53.333 62.333 108.333 117 165z" />
    <glyph glyph-name="nine" unicode="9" horiz-adv-x="1245" 
d="M840 0h-409.999l330 642c25.333 47.333 42 84 50 110c9.33301 30 14 57.333 14 82c0 36.667 -9 70.334 -27 101.001c-18.667 30.667 -43.667 55 -75 73c-32 18 -66.333 27 -103 27c-56.667 0 -104.667 -19.667 -144 -59c-39.333 -40.667 -59 -89.334 -59 -146.001
c0 -60 21.333 -110 64 -150c42 -40 95.333 -60 160 -60c8.66699 0 14.667 0.333008 18 1h23l-176 -342c-131.333 25.333 -239 89.333 -323 192c-84.667 102.667 -127 221.667 -127 357c0 103.333 24.667 198.666 74 285.999c48.667 86.667 116.334 154.667 203.001 204
c85.333 49.333 179.666 74 282.999 74c81.333 0 156.666 -14.333 225.999 -43c69.333 -29.333 130.333 -69.666 183 -120.999c53.333 -53.333 94.333 -114 123 -182s43 -142 43 -222c0 -50 -7.66699 -102 -23 -156c-16.667 -56 -42 -116.333 -76 -181z" />
    <glyph glyph-name="colon" unicode=":" horiz-adv-x="611" 
d="M96 752c0 39.333 9.33398 74.666 28.001 105.999c18.667 32 44 57.333 76 76c31.333 18.667 66.333 28 105 28c39.333 0 74.666 -9.33301 105.999 -28c32 -18.667 57.333 -44 76 -76c18.667 -31.333 28 -66.666 28 -105.999c0 -58 -20.333 -107.333 -61 -148
c-41.333 -41.333 -91 -62 -149 -62c-56.667 0 -105.667 21 -147 63c-41.333 41.333 -62 90.333 -62 147zM96.001 183c0 39.333 9.33398 74.666 28.001 105.999c18.667 32 44 57.333 76 76c31.333 18.667 66.333 28 105 28c39.333 0 74.666 -9.33301 105.999 -28
c32 -18.667 57.333 -44 76 -76c18.667 -31.333 28 -66.666 28 -105.999c0 -58 -20.333 -107.333 -61 -148c-41.333 -41.333 -91 -62 -149 -62c-56.667 0 -105.667 21 -147 63c-41.333 41.333 -62 90.333 -62 147z" />
    <glyph glyph-name="semicolon" unicode=";" horiz-adv-x="611" 
d="M96 752c0 39.333 9.33398 74.666 28.001 105.999c18.667 32 44 57.333 76 76c31.333 18.667 66.333 28 105 28c39.333 0 74.666 -9.33301 105.999 -28c32 -18.667 57.333 -44 76 -76c18.667 -31.333 28 -66.666 28 -105.999c0 -58 -20.333 -107.333 -61 -148
c-41.333 -41.333 -91 -62 -149 -62c-56.667 0 -105.667 21 -147 63c-41.333 41.333 -62 90.333 -62 147zM319.001 -246l-203.999 -0.000976562c39.333 65.333 79 141.333 119 228c-92 43.333 -138 110.333 -138 201c0 38 9.66699 73.333 29 106c18.667 32 44 57.333 76 76
c30.667 18.667 66 28 106 28c38.667 0 73.667 -9.33301 105 -28s56.666 -43.667 75.999 -75c18.667 -31.333 28 -66 28 -104c0 -45.333 -15.667 -103 -47 -173c-32 -71.333 -82 -157.666 -150 -258.999z" />
    <glyph glyph-name="less" unicode="&#x3c;" horiz-adv-x="953" 
d="M950 653l-574 -251l574 -252v-216l-877 384v167l877 386v-218z" />
    <glyph glyph-name="equal" unicode="=" horiz-adv-x="953" 
d="M74 688h905v-239h-905v239zM74 355h905v-240h-905v240z" />
    <glyph glyph-name="greater" unicode="&#x3e;" horiz-adv-x="953" 
d="M73 150l574 252l-574 251v218l877 -386v-167l-877 -384v216z" />
    <glyph glyph-name="question" unicode="?" horiz-adv-x="1045" 
d="M666 451l0.00292969 -14h-314v22c0 90.667 11.333 158.334 34 203.001c21.333 44 64 85.667 128 125c58.667 34.667 94 59.667 106 75c20.667 22.667 31 51 31 85c0 37.333 -13.333 69.333 -40 96s-58.667 40 -96 40c-36.667 0 -68.334 -12.667 -95.001 -38
c-26.667 -26 -40 -57.667 -40 -95c0 -14.667 1.33301 -28.667 4 -42h-314c-1.33301 32 -2 45.667 -2 41c0 81.333 20.333 155.666 61 222.999c40 68 94.667 121.667 164 161s144.666 59 225.999 59c79.333 0 153.666 -19.667 222.999 -59c68 -40 122 -94 162 -162
c39.333 -69.333 59 -143.666 59 -222.999c0 -55.333 -8.33301 -106 -25 -152c-17.333 -48 -42.333 -91.333 -75 -130c-32 -38 -74.333 -75 -127 -111c-32.667 -20.667 -52.667 -36.334 -60 -47.001c-6.66699 -9.33301 -10 -28.333 -10 -57zM283.003 166l224 224l223 -224
l-223 -223z" />
    <glyph glyph-name="at" unicode="@" horiz-adv-x="1400" 
d="M989 625v-254.001h-189v229v26c0 36 -4.66699 62 -14 78c-8.66699 16 -20.667 28.333 -36 37s-32 13 -50 13c-28 0 -52 -10 -72 -30c-20 -21.333 -30 -46.333 -30 -75s10 -52.667 30 -72s45 -29 75 -29c18 0 38.667 4.33301 62 13v-194c-22 -5.33301 -42 -8 -60 -8
c-53.333 0 -103 13 -149 39c-46 25.333 -81.667 60.333 -107 105c-26 44 -39 92.667 -39 146c0 52.667 13 101.667 39 147c25.333 44.667 60 80.334 104 107.001c44 26 92.333 39 145 39c53.333 0 102.333 -12.667 147 -38c44 -25.333 79.333 -60.333 106 -105
c25.333 -44.667 38 -93 38 -145v-29zM267 650.999c0 -78.667 19.666 -150.999 58.999 -216.999c39.333 -65.333 91.666 -117.666 156.999 -156.999c66 -39.333 138 -59 216 -59c78.667 0 151 19.667 217 59c68 39.333 121 91.666 159 156.999s57 137.666 57 216.999
s-19 151.666 -57 216.999c-38 66.667 -91 119.334 -159 158.001c-65.333 38 -137.666 57 -216.999 57c-78.667 0 -150.667 -19 -216 -57s-117.666 -90.667 -156.999 -158c-39.333 -66 -59 -138.333 -59 -217zM48.999 651c0 117.333 29.001 225.999 87.001 325.999
c57.333 100 136.666 179 237.999 237c100 58 208.333 87 325 87c117.333 0 226 -29 326 -87c101.333 -59.333 180.666 -138.666 237.999 -237.999c58 -100 87 -208.333 87 -325c0 -117.333 -29 -226 -87 -326c-57.333 -100 -136.666 -179 -237.999 -237
c-99.333 -58.667 -208 -88 -326 -88c-116.667 0 -225 29 -325 87c-100.667 58 -180 137.333 -238 238c-58 100 -87 208.667 -87 326z" />
    <glyph glyph-name="A" unicode="A" horiz-adv-x="1263" 
d="M467 683l329.001 -0.000976562v132c0 58.667 -6.66699 102.334 -20 131.001c-12.667 25.333 -32 46.333 -58 63c-26.667 15.333 -55.334 23 -86.001 23c-32.667 0 -62.667 -9 -90 -27s-47 -41.667 -59 -71c-10.667 -24 -16 -63.667 -16 -119v-132zM1161 763.999
l-0.000976562 -763.999h-365v373h-329v-373h-365v764v50c0 60.667 4.33301 112.667 13 156c8 44 21 85.667 39 125s41 75.333 69 108c49.333 60 109.666 106.667 180.999 140c70 32.667 146 49 228 49c78.667 0 152.334 -15 221.001 -45
c68.667 -30.667 128.334 -75.334 179.001 -134.001c45.333 -52.667 78.333 -109.667 99 -171c20 -60.667 30 -136.667 30 -228v-50z" />
    <glyph glyph-name="B" unicode="B" horiz-adv-x="1234" 
d="M474 0h-365.004v1365h465h52c84 0 151 -7 201 -21c50 -15.333 94.333 -40.666 133 -75.999c39.333 -35.333 70 -77.666 92 -126.999c21.333 -50 32 -101.667 32 -155c0 -72 -21.333 -144.333 -64 -217c106.667 -84.667 160 -195.667 160 -333
c0 -82 -19.667 -156.667 -59 -224c-38.667 -66.667 -93 -118.667 -163 -156c-69.333 -37.333 -147.666 -56 -234.999 -56h-41h-147v341h91h32c42.667 2 77.334 15.667 104.001 41c25.333 25.333 38 58 38 98c0 23.333 -5.33301 44.666 -16 63.999
c-11.333 19.333 -26.666 34.666 -45.999 45.999c-22 14 -60 21 -114 21h-89v219h60h32c35.333 1.33301 63 11 83 29s30 42.333 30 73c0 28 -9.66699 51.667 -29 71c-19.333 18.667 -44.666 28 -75.999 28h-37h-124v-1031z" />
    <glyph glyph-name="C" unicode="C" horiz-adv-x="990" 
d="M935 363l0.00292969 -369.999c-54.667 -13.333 -109 -20 -163 -20c-66.667 0 -129.667 7 -189 21c-34.667 8.66699 -63.334 17.5 -86.001 26.5s-48.667 21.5 -78 37.5c-54.667 30.667 -103 66.334 -145 107.001c-71.333 69.333 -125.333 148.666 -162 237.999
c-38 89.333 -57 182.666 -57 279.999c0 129.333 32 248.333 96 357c62.667 108.667 149 194.667 259 258c108.667 62.667 227.667 94 357 94c56 0 112 -7.33301 168 -22v-369c-30 9.33301 -58 16.333 -84 21c-24 4.66699 -50 7 -78 7
c-64.667 0 -124.334 -15.333 -179.001 -46c-55.333 -31.333 -98.333 -73 -129 -125c-31.333 -53.333 -47 -112 -47 -176s15.667 -122.667 47 -176c31.333 -54 74.666 -95.667 129.999 -125c54.667 -30.667 115.667 -46 183 -46c46.667 0 99 9.33301 157 28z" />
    <glyph glyph-name="D" unicode="D" horiz-adv-x="1335" 
d="M474 0l-365 0.00195312v1365h342h44c134.667 0 242.334 -12 323.001 -36c81.333 -25.333 157.666 -68.666 228.999 -129.999c48.667 -42.667 91 -91.334 127 -146.001c33.333 -50.667 60 -108.334 80 -173.001c18 -62 27 -126.667 27 -194
c0 -62.667 -8 -123.667 -24 -183c-16.667 -60.667 -40 -116.334 -70 -167.001c-30.667 -52 -67.667 -99 -111 -141c-43.333 -42.667 -92 -78.667 -146 -108c-56.667 -31.333 -112.667 -53.666 -168 -66.999s-121.333 -20 -198 -20h-29v364h38c68 0 128.333 13 181 39
c52 25.333 92.667 62 122 110c28 47.333 42 102.333 42 165c0 67.333 -15.667 126.333 -47 177c-30.667 49.333 -75.334 87.666 -134.001 114.999c-57.333 26.667 -124.666 40 -201.999 40h-61v-1010z" />
    <glyph glyph-name="E" unicode="E" horiz-adv-x="1035" 
d="M653 308h280v-308h-432h-56c-120.667 3.33301 -216.667 44.333 -288 123c-31.333 35.333 -55 74.666 -71 117.999c-16.667 42 -25 85 -25 129c0 122 55.333 226.333 166 313c-95.333 81.333 -143 180.333 -143 297c0 44 7.66699 88 23 132
c14.667 42 36.667 80.667 66 116s62.333 63.333 99 84c60.667 35.333 137 53 229 53h25h407v-308h-280h-54c-38 -2 -67.667 -12.667 -89 -32c-22 -20 -33 -45.667 -33 -77c0 -32.667 12.333 -59.334 37 -80.001c24 -22 54 -33 90 -33h46h283v-305h-283h-29
c-39.333 -1.33301 -70.333 -11.666 -93 -30.999c-23.333 -21.333 -35 -48 -35 -80c0 -31.333 11.667 -57.666 35 -78.999s52.333 -32 87 -32h38z" />
    <glyph glyph-name="F" unicode="F" horiz-adv-x="1209" 
d="M467 0h-365v764v50c0.666992 90 11.334 166 32.001 228c18.667 60 51 117 97 171c32 38.667 69 71 111 97c44 27.333 90 48 138 62c50 13.333 100.667 20 152 20c68 0 132 -11.333 192 -34c61.333 -23.333 116 -56.333 164 -99c48 -44 86.667 -95.667 116 -155
c20.667 -42 35.667 -84.667 45 -128c8 -44 12 -102 12 -174v-24h-364v16v20c0 59.333 -7 103.333 -21 132c-12.667 25.333 -32 46.333 -58 63c-26.667 15.333 -55.334 23 -86.001 23c-32.667 0 -62.667 -8.66699 -90 -26c-26.667 -18 -46.667 -41.667 -60 -71
c-10 -24 -15 -64 -15 -120v-132h423v-314h-423v-369z" />
    <glyph glyph-name="G" unicode="G" horiz-adv-x="1229" 
d="M771 342l0.000976562 450.002h355v-785c-35.333 -7.33301 -71.833 -13.5 -109.5 -18.5s-73.5 -8.83301 -107.5 -11.5s-69.333 -4 -106 -4c-227.333 0 -411.666 73 -552.999 219c-64 66 -112.333 140.333 -145 223c-33.333 84 -50 171.667 -50 263c0 60 7 118.333 21 175
c14 55.333 35 109.666 63 162.999c27.333 51.333 61 99.666 101 144.999c40.667 44.667 82.334 81.334 125.001 110.001c62.667 42.667 131 73.667 205 93s159.333 29 256 29c50 0 97.333 -2 142 -6c52 -6 104.667 -13.333 158 -22v-366c-86.667 24 -174.334 36 -263.001 36
c-137.333 0 -243.333 -28.667 -318 -86c-39.333 -30 -69.333 -68.333 -90 -115c-22 -46.667 -33 -96 -33 -148c0 -58 14.667 -114.667 44 -170c12 -22 23.5 -40 34.5 -54s23.667 -27.333 38 -40s28.166 -23.334 41.499 -32.001c28 -16.667 56.333 -28.334 85 -35.001
c27.333 -7.33301 62.666 -11.666 105.999 -12.999z" />
    <glyph glyph-name="H" unicode="H" horiz-adv-x="1276" 
d="M474 0h-365v1365h365v-475h329v475h364v-1365h-364v549h-329v-549z" />
    <glyph glyph-name="I" unicode="I" horiz-adv-x="583" 
d="M474 0h-365v1365h365v-1365z" />
    <glyph glyph-name="J" unicode="J" horiz-adv-x="699" 
d="M232 1365l364.999 0.00195312v-835v-63c0 -34.667 -2 -70 -6 -106c-4.66699 -36 -11.667 -69.667 -21 -101c-8 -28.667 -19.667 -56.334 -35 -83.001c-15.333 -27.333 -31.666 -51 -48.999 -71c-74.667 -88.667 -172.667 -133 -294 -133c-46.667 0 -97 6 -151 18v316
c26 -9.33301 48.333 -14 67 -14c44 0 75.667 15.667 95 47s29 81.666 29 150.999v28v846z" />
    <glyph glyph-name="K" unicode="K" horiz-adv-x="1224" 
d="M474 0l-364.998 -0.000976562v1365h365v-489h55h28c51.333 0 90.666 8.33301 117.999 25c28 16.667 47.333 44.667 58 84c11.333 40 17 95.667 17 167v46v167h365v-245v-47c-0.666992 -82.667 -10.667 -147.667 -30 -195c-20 -46.667 -57 -92 -111 -136
c39.333 -35.333 70.333 -70.666 93 -105.999c23.333 -37.333 39.333 -80 48 -128c8.66699 -47.333 13 -108 13 -182v-39v-287h-364v326v34c-1.33301 84 -26.666 142 -75.999 174c-16.667 11.333 -34.334 19 -53.001 23s-49.334 6 -92.001 6h-20h-49v-563z" />
    <glyph glyph-name="L" unicode="L" horiz-adv-x="703" 
d="M640 312l22 -0.00195312v-312h-68h-76c-170 4 -289.333 75 -358 213c-38.667 74.667 -58 186.334 -58 335.001v50v767h365v-802v-44c0 -49.333 2.66699 -85.666 8 -108.999c5.33301 -22.667 15.333 -41.667 30 -57c27.333 -27.333 72.333 -41 135 -41z" />
    <glyph glyph-name="M" unicode="M" horiz-adv-x="1876" 
d="M467 792l-0.000976562 -792.003h-365v778v47c0 59.333 5 112.333 15 159c8.66699 44.667 23.334 87.334 44.001 128.001c20.667 38.667 47 75.667 79 111c49.333 53.333 108.333 95 177 125c68.667 29.333 140 44 214 44c108 0 209.333 -32 304 -96
c95.333 64 197 96 305 96c53.333 0 105 -7.33301 155 -22s98 -37.334 144 -68.001c44 -29.333 83.333 -64.333 118 -105c28.667 -35.333 51 -69.666 67 -102.999c16.667 -34.667 29 -73.667 37 -117c8 -42 12 -88.333 12 -139v-60v-778h-364v792v42
c0 62.667 -8 106.334 -24 131.001c-10.667 19.333 -27 35.333 -49 48c-22.667 11.333 -46.334 17 -71.001 17c-26 0 -49.667 -6 -71 -18c-22 -13.333 -39 -30.666 -51 -51.999c-15.333 -25.333 -23 -71.333 -23 -138v-30v-792h-364v792v30c-1.33301 70 -9 116 -23 138
c-12.667 22.667 -29.667 40 -51 52c-20.667 12 -44.667 18 -72 18c-33.333 0 -61.333 -8.33301 -84 -25c-24 -16.667 -40 -39.667 -48 -69c-5.33301 -20 -8.66602 -48.667 -9.99902 -86v-17c-0.666992 -3.33301 -1 -9.33301 -1 -18v-23z" />
    <glyph glyph-name="N" unicode="N" horiz-adv-x="1263" 
d="M467 815l-0.00390625 -814.998h-365v764v50c0.666992 97.333 12.334 178 35.001 242c20.667 61.333 58.334 120.333 113.001 177c102 106 229 159 381 159c79.333 0 153.333 -15 222 -45c68.667 -30.667 128.334 -75.334 179.001 -134.001
c45.333 -52.667 78.333 -109.667 99 -171c20 -60.667 30 -136.667 30 -228v-50v-764h-365v815v35c0 59.333 -13.667 104.666 -41 135.999c-28 30.667 -68 46 -120 46c-49.333 0 -89.666 -16.667 -120.999 -50c-31.333 -34.667 -47 -78.667 -47 -132v-35z" />
    <glyph glyph-name="O" unicode="O" horiz-adv-x="1529" 
d="M418 683c0 -62.667 15.668 -120.667 47.001 -174c31.333 -52.667 73.333 -94.667 126 -126c53.333 -31.333 111 -47 173 -47c62.667 0 120.667 15.667 174 47c54 31.333 96.333 73.333 127 126s46 110.667 46 174s-15.333 121.333 -46 174s-73 94.667 -127 126
c-52.667 30.667 -110.667 46 -174 46c-62.667 0 -120.334 -15.333 -173.001 -46s-94.667 -72.667 -126 -126s-47 -111.333 -47 -174zM55.001 683c0 128 31.667 246.667 95 356c62.667 108.667 149 194.667 259 258c109.333 63.333 227.666 95 354.999 95
c128 0 246.667 -31.667 356 -95c110 -64.667 196.333 -151 259 -259c63.333 -109.333 95 -227.666 95 -354.999c0 -128 -31.667 -246.667 -95 -356c-62.667 -108.667 -149 -194.667 -259 -258c-108.667 -64 -227.334 -96 -356.001 -96
c-127.333 0 -245.666 31.667 -354.999 95s-195.666 149.666 -258.999 258.999s-95 228 -95 356z" />
    <glyph glyph-name="P" unicode="P" horiz-adv-x="1182" 
d="M474 0l-364.999 -0.000976562v1365h438h40c75.333 0 138 -6 188 -18c50.667 -13.333 97 -33.666 139 -60.999c65.333 -40.667 118.666 -99.334 159.999 -176.001c40.667 -75.333 61 -154.666 61 -237.999c0 -90.667 -22 -174 -66 -250
c-44.667 -76 -105 -136.333 -181 -181c-76.667 -45.333 -159 -68 -247 -68c-28.667 0 -64 4 -106 12v366c29.333 -8 55 -12 77 -12c46 0 83.667 13.667 113 41c28.667 26.667 43 62 43 106c0 45.333 -15.333 81 -46 107s-72.667 39 -126 39h-32h-90v-1032z" />
    <glyph glyph-name="Q" unicode="Q" horiz-adv-x="1529" 
d="M418 683c0 -62.667 15.668 -120.667 47.001 -174c31.333 -52.667 73.333 -94.667 126 -126c53.333 -31.333 111 -47 173 -47c62.667 0 120.667 15.667 174 47c54 31.333 96.333 73.333 127 126s46 110.667 46 174s-15.333 121.333 -46 174s-73 94.667 -127 126
c-52.667 30.667 -110.667 46 -174 46c-62.667 0 -120.334 -15.333 -173.001 -46s-94.667 -72.667 -126 -126s-47 -111.333 -47 -174zM1373 317l84.002 -87.999l-244 -244l-88 86c-62.667 -34.667 -121.334 -59.667 -176.001 -75c-55.333 -15.333 -113.333 -23 -174 -23
c-126.667 0 -245.334 32.333 -356.001 97c-112 65.333 -200.333 152.333 -265 261c-66 109.333 -99 226.666 -99 351.999c0 122 32.667 238.333 98 349c65.333 110 152.333 197.333 261 262c109.333 65.333 224.333 98 345 98c92.667 0 182 -19 268 -57
c87.333 -39.333 164 -92.666 230 -159.999c67.333 -68 120.333 -146.333 159 -235c38.667 -88 58 -179 58 -273c0 -120.667 -32.333 -235.334 -97 -344.001z" />
    <glyph glyph-name="R" unicode="R" horiz-adv-x="1225" 
d="M474 0h-364.999v1365h399h45c88 0 159 -4.66699 213 -14c52 -10 100.333 -27 145 -51c34.667 -18 66 -40 94 -66c28.667 -26.667 52.667 -56.334 72 -89.001s33.333 -66.667 42 -102c9.33301 -37.333 14 -76 14 -116c0 -64 -11.667 -121 -35 -171
c-22.667 -48 -60.334 -94.333 -113.001 -139c57.333 -43.333 98 -90.666 122 -141.999c24 -52 36 -117.333 36 -196v-35v-244h-364v242v33c-0.666992 70 -16.334 120.333 -47.001 151c-31.333 29.333 -81.666 44 -150.999 44h-46v267h40c62 0 109.667 12.667 143 38
c32.667 24.667 49 61.334 49 110.001c0 29.333 -6.66699 55.666 -20 78.999c-13.333 22 -33 38.667 -59 50c-28 11.333 -59.333 17 -94 17h-43h-77v-1031z" />
    <glyph glyph-name="S" unicode="S" horiz-adv-x="762" 
d="M34 8l-0.00195312 338.001c45.333 -22 88.333 -33 129 -33c43.333 0 79 10 107 30c28 19.333 42 44.333 42 75c0 32.667 -19 76.334 -57 131.001l-76 115c-15.333 24 -30.333 50.667 -45 80c-36.667 74 -55 147 -55 219c0 81.333 19.667 154.666 59 219.999
c38.667 64.667 93.334 115.667 164.001 153s148.334 56 233.001 56c28.667 0 54 -1.33301 76 -4c23.333 -2.66699 48.666 -7.66699 75.999 -15v-343c-34 11.333 -63.667 17 -89 17c-41.333 0 -75.333 -10.667 -102 -32c-26.667 -22 -40 -50.333 -40 -85
c0 -40 24.333 -97.333 73 -172c58.667 -90 97.334 -154.333 116.001 -193c26.667 -59.333 40 -123 40 -191c0 -78.667 -18.333 -148.334 -55 -209.001c-37.333 -62 -89.333 -109.333 -156 -142c-68.667 -33.333 -146 -50 -232 -50c-64.667 0 -134 11.667 -208 35z" />
    <glyph glyph-name="T" unicode="T" horiz-adv-x="1020" 
d="M692 0h-364v1003h-287v362h938v-362h-287v-1003z" />
    <glyph glyph-name="U" unicode="U" horiz-adv-x="1263" 
d="M102 601l-0.000976562 764h365v-815c0 -60 7 -103.667 21 -131c14 -26.667 34 -47.334 60 -62.001c26 -16 54 -24 84 -24c48.667 0 88.334 17 119.001 51c30 34 45 77.667 45 131v35v815h365v-764v-50c0 -94 -11.333 -173.667 -34 -239s-60.334 -125.333 -113.001 -180
c-49.333 -51.333 -107 -90.666 -173 -117.999s-135.667 -41 -209 -41c-78.667 0 -152 15 -220 45c-66.667 29.333 -127 74 -181 134c-30 34 -54.333 70.333 -73 109c-19.333 38 -33.666 81 -42.999 129c-8.66699 44 -13 97.667 -13 161v50z" />
    <glyph glyph-name="V" unicode="V" horiz-adv-x="1195" 
d="M71 1365l363 0.000976562v-46c0 -84.667 1.66699 -158.667 5 -222c3.33301 -64.667 9 -123 17 -175c7.33301 -55.333 17 -109.666 29 -162.999c13.333 -59.333 28.666 -115.666 45.999 -168.999c14 -44.667 36 -100.334 66 -167.001c61.333 136 104 270.333 128 403
c24 133.333 36 297.666 36 492.999v46h363c2 -48 3 -84 3 -108c0 -126.667 -8 -251 -24 -373c-8 -62.667 -18 -121.834 -30 -177.501s-25.333 -107.5 -40 -155.5c-15.333 -52 -31.666 -100.667 -48.999 -146c-18.667 -48.667 -37 -92 -55 -130
c-16.667 -36 -37.667 -77.667 -63 -125c-24 -42.667 -54 -92.667 -90 -150h-357c-119.333 190 -205 373.667 -257 551c-62.667 212 -94 447.667 -94 707c0 23.333 1 59 3 107z" />
    <glyph glyph-name="W" unicode="W" horiz-adv-x="1876" 
d="M102 587v777.998h365v-792c0 -13.333 0.333008 -23 1 -29v-39c3.33301 -113.333 50.666 -170 141.999 -170c28 0 53.333 7.33301 76 22c24 14.667 41.667 34 53 58c11.333 26 17 68.667 17 128v30v792h364v-792v-32c0 -37.333 2 -66.666 6 -87.999
c2.66699 -20 10 -38.667 22 -56c27.333 -41.333 66.333 -62 117 -62c58 0 100 24.667 126 74c12 23.333 18 65 18 125v39v792h364v-778v-60c-1.33301 -86 -12.666 -159 -33.999 -219c-23.333 -62 -58.333 -117.333 -105 -166c-52 -54 -112 -95.333 -180 -124
c-68.667 -30 -140 -45 -214 -45c-108 0 -209.667 32 -305 96c-94.667 -64 -196 -96 -304 -96c-80.667 0 -157 17.333 -229 52c-73.333 34 -135 81.667 -185 143c-19.333 24.667 -36.666 51.334 -51.999 80.001c-14.667 28 -26.334 56.333 -35.001 85
c-10 31.333 -17 63 -21 95c-4.66699 30 -7 67.333 -7 112v47z" />
    <glyph glyph-name="X" unicode="X" horiz-adv-x="1222" 
d="M446 0l-363.998 0.000976562v242v43c0 61.333 6 117 18 167s31 95.333 57 136c27.333 42.667 62.666 85.334 105.999 128.001c-66 64 -112.333 128.333 -139 193c-28 66 -42 148 -42 246v40v170h364v-258v-44c0.666992 -53.333 16 -96 46 -128
c29.333 -31.333 68.666 -47 117.999 -47c50.667 0 91 16 121 48c30 31.333 45 73.666 45 126.999v44v258h364v-170v-40c0 -66 -5.66699 -124.333 -17 -175c-12.667 -50.667 -32 -96.334 -58 -137.001c-26.667 -42 -62.667 -84.333 -108 -127
c66 -62.667 113 -127.334 141 -194.001s42 -145.667 42 -237v-43v-242h-364v275v40c0 38.667 -2.33301 67.334 -7 86.001c-4.66699 17.333 -14 36.333 -28 57c-32.667 44 -76.334 66 -131.001 66c-55.333 0 -98.666 -22 -129.999 -66c-14 -20 -23 -39.667 -27 -59
c-4.66699 -18 -7 -46 -7 -84v-40v-275z" />
    <glyph glyph-name="Y" unicode="Y" horiz-adv-x="1195" 
d="M780 0h-365v434c-102.667 42 -184 102.667 -244 182c-37.333 51.333 -64 105.666 -80 162.999c-15.333 56 -23 128.667 -23 218v42v326h365v-372v-37c1.33301 -62 16.333 -109.333 45 -142c29.333 -33.333 69.333 -50 120 -50c51.333 0 91.333 17.333 120 52
c29.333 35.333 44 82 44 140v37v372h365v-326v-42c0 -98.667 -9 -177.667 -27 -237s-51 -116.666 -99 -171.999c-32 -36 -63.667 -65 -95 -87c-35.333 -24.667 -77.333 -47 -126 -67v-434z" />
    <glyph glyph-name="Z" unicode="Z" horiz-adv-x="1092" 
d="M577 314h488v-314h-1024l464 1051h-444v314h976z" />
    <glyph glyph-name="bracketleft" unicode="[" horiz-adv-x="819" 
d="M223 -238v1841h453v-273h-122v-1295h122v-273h-453z" />
    <glyph glyph-name="backslash" unicode="\" horiz-adv-x="1066" 
d="M331 1502l735 -1639h-331l-735 1639h331z" />
    <glyph glyph-name="bracketright" unicode="]" horiz-adv-x="819" 
d="M143 1603h453v-1841h-453v273h122v1295h-122v273z" />
    <glyph glyph-name="asciicircum" unicode="^" horiz-adv-x="422" 
d="M175 732c-35.333 -75.333 -83.333 -114 -144 -116v6c39.333 7.33301 79 54.333 119 141l73 157h19l90 -196c18.667 -42.667 35 -64 49 -64c2 0 3.66699 0.666992 5 2l1 -3c-8.66699 -4.66699 -17.667 -7 -27 -7c-21.333 0 -38 13.333 -50 40l-76 165z" />
    <glyph glyph-name="underscore" unicode="_" horiz-adv-x="1024" 
d="M1024 -573h-1024v300h1024v-300z" />
    <glyph glyph-name="grave" unicode="`" horiz-adv-x="771" 
d="M478 1381l157 -266h-239l-259 266h341z" />
    <glyph glyph-name="a" unicode="a" horiz-adv-x="1167" 
d="M1072 448l0.000976562 -447.998h-335v404v46c0 63.333 -8 109.333 -24 138c-15.333 28 -36.333 49.333 -63 64c-27.333 15.333 -57 23 -89 23c-50 0 -92.667 -17.667 -128 -53c-35.333 -36.667 -53 -80.334 -53 -131.001s18 -93 54 -127
c35.333 -34.667 79.333 -52 132 -52c31.333 0 68 7.66699 110 23v-343c-38.667 -8.66699 -74.334 -13 -107.001 -13c-94 0 -181.333 22.667 -262 68c-81.333 45.333 -144.666 107 -189.999 185c-46 78 -69 164 -69 258c0 93.333 23 180 69 260
c45.333 79.333 107 142 185 188c77.333 46 162.666 69 255.999 69c94 0 180.333 -22.333 259 -67c78 -44.667 140.333 -106.334 187 -185.001c45.333 -78.667 68 -163.667 68 -255v-52z" />
    <glyph glyph-name="b" unicode="b" horiz-adv-x="1167" 
d="M96 539l-0.00292969 826h334v-783v-45c0 -60.667 8 -106.667 24 -138c15.333 -28 36.333 -49.333 63 -64c27.333 -15.333 57 -23 89 -23c34 0 64.667 8.33301 92 25c28 16.667 49.667 39 65 67c16 28 24 58.667 24 92c0 32.667 -8 63 -24 91
c-17.333 28 -39.666 49.667 -66.999 65c-29.333 15.333 -61 23 -95 23c-31.333 0 -68 -7.66699 -110 -23v343c38.667 8.66699 74.334 13 107.001 13c94.667 0 182.334 -22.333 263.001 -67c80 -44.667 143 -106.334 189 -185.001s69 -165 69 -259
c0 -93.333 -22.667 -179.666 -68 -258.999c-46 -80 -107.667 -143 -185 -189c-78 -46 -163.667 -69 -257 -69s-179.333 22.333 -258 67c-79.333 45.333 -141.333 107 -186 185c-46 78 -69 163 -69 255v52z" />
    <glyph glyph-name="c" unicode="c" horiz-adv-x="865" 
d="M687 366l162.999 -294.001c-87.333 -61.333 -186.333 -92 -297 -92c-91.333 0 -175.666 23 -252.999 69s-138.333 108.333 -183 187c-46 79.333 -69 165 -69 257c0 94 23 180.333 69 259c44.667 78.667 106.667 141 186 187c79.333 45.333 165.666 68 258.999 68
c104 0 200.333 -30.667 289 -92l-164 -294c-21.333 18.667 -41.666 32 -60.999 40c-18.667 8 -40.667 12 -66 12c-32.667 0 -63 -8 -91 -24c-28.667 -16 -50.667 -37.667 -66 -65c-16 -28 -24 -58.333 -24 -91c0 -33.333 8.33301 -63.666 25 -90.999c16 -28 38 -50 66 -66
s58.333 -24 91 -24c24.667 0 46.667 4.33301 66 13c21.333 9.33301 41.333 23 60 41z" />
    <glyph glyph-name="d" unicode="d" horiz-adv-x="1167" 
d="M737 1365h335v-826v-52c-0.666992 -64.667 -9.66699 -121.667 -27 -171c-18 -50 -46 -98 -84 -144c-49.333 -61.333 -108.666 -108.666 -177.999 -141.999c-70.667 -33.333 -145.667 -50 -225 -50c-93.333 0 -178.666 23 -255.999 69
c-78.667 46 -140.334 109 -185.001 189c-46 79.333 -69 165.666 -69 258.999c0 94 23 180.333 69 259c46.667 78.667 110 140.334 190 185.001c79.333 44.667 166.666 67 261.999 67c32.667 0 68.334 -4.33301 107.001 -13v-343c-42.667 15.333 -79.334 23 -110.001 23
c-52.667 0 -96.667 -17 -132 -51c-36 -34.667 -54 -77.334 -54 -128.001c0 -33.333 8 -64 24 -92c16 -28.667 38 -51 66 -67c26.667 -16.667 57 -25 91 -25c32 0 62 8 90 24c27.333 15.333 48 36.333 62 63c16 30 24 76 24 138v45v783z" />
    <glyph glyph-name="e" unicode="e" horiz-adv-x="1016" 
d="M404 410l233 252.999c-26 12.667 -52 19 -78 19c-32 0 -61.667 -8 -89 -24c-28 -17.333 -49.667 -39.666 -65 -66.999c-16.667 -28.667 -25 -59 -25 -91c0 -28.667 8 -58.667 24 -90zM864 391.999l81.001 -327c-102.667 -56.667 -213 -85 -331 -85
c-108 0 -204.333 22.333 -289 67c-44 23.333 -82.667 50.5 -116 81.5s-62.333 66.167 -87 105.5c-49.333 79.333 -74 167 -74 263c0 93.333 23 179 69 257c44.667 77.333 107 139.333 187 186c79.333 45.333 165.666 68 258.999 68c90.667 0 174.334 -21 251.001 -63
c38 -20.667 72.667 -46 104 -76s59.333 -65 84 -105l-416 -450c15.333 -4 29.666 -6 42.999 -6c72 0 150.333 28 235 84z" />
    <glyph glyph-name="f" unicode="f" horiz-adv-x="662" 
d="M437 0l-335 -0.00292969v816c0 90.667 7 165.334 21 224.001s36.667 111.334 68 158.001c24 36.667 56.667 70 98 100c39.333 28.667 84 50.334 134 65.001c50 15.333 101 23 153 23c20.667 0 44.667 -2.33301 72 -7v-273c-64.667 0 -113.667 -9 -147 -27
c-34 -18.667 -55.333 -48 -64 -88h211v-314h-211v-677z" />
    <glyph glyph-name="g" unicode="g" horiz-adv-x="1139" 
d="M283 -373l0.00390625 295.003c30.667 -11.333 59 -19.666 85 -24.999c23.333 -4.66699 51.333 -7 84 -7c63.333 0 116.333 12.333 159 37c42 23.333 71.667 58 89 104c12.667 34 19 88.667 19 164v253c0 62.667 -7.66699 108.667 -23 138
c-14 27.333 -33.333 48.333 -58 63s-52.334 22 -83.001 22c-48 0 -88.333 -16.333 -121 -49s-49 -72 -49 -118c0 -48 17 -88 51 -120c32.667 -32.667 74.334 -49 125.001 -49c28.667 0 60 6.33301 94 19v-296c-54 -14 -103.667 -21 -149 -21
c-86.667 0 -164.667 20.333 -234 61c-70.667 40.667 -125.334 96 -164.001 166c-40 71.333 -60 150.666 -60 237.999c0 91.333 22.667 175.666 68 252.999s106.666 138.666 183.999 183.999s161 68 251 68c57.333 0 114 -9.66699 170 -29
c53.333 -19.333 103.666 -48 150.999 -86c44.667 -36.667 81.667 -79.334 111 -128.001c25.333 -41.333 43 -83.666 53 -126.999c10 -44 15 -101.667 15 -173v-287c0 -82.667 -6.33301 -149.667 -19 -201c-12.667 -53.333 -34.667 -103.333 -66 -150
c-31.333 -48.667 -70.666 -90.334 -117.999 -125.001c-44 -32.667 -96 -57 -156 -73c-58.667 -16 -125.334 -24 -200.001 -24c-29.333 0 -61.333 1.66699 -96 5c-32.667 3.33301 -70.334 9.33301 -113.001 18z" />
    <glyph glyph-name="h" unicode="h" horiz-adv-x="1099" 
d="M437 0h-334.999v1365h335v-423c67.333 43.333 145.666 65 234.999 65c48 0 93 -8.66699 135 -26c41.333 -18 76.333 -43 105 -75c28.667 -32.667 51 -70.667 67 -114c16 -44 24 -93 24 -147v-31v-614h-334v506v32c0 44 -10 78 -30 102c-20.667 24 -50 36 -88 36
c-36 0 -64 -11.667 -84 -35c-20 -24 -30 -56.667 -30 -98v-40v-503z" />
    <glyph glyph-name="i" unicode="i" horiz-adv-x="539" 
d="M434 0h-335v991h335v-991zM43 1245l224 224l223 -224l-223 -223z" />
    <glyph glyph-name="j" unicode="j" horiz-adv-x="539" 
d="M-116 -385v250.001c24.667 -5.33301 46 -8 64 -8c65.333 0 110.333 24.333 135 73c8.66699 16 14 33 16 51c2 17.333 3 46.666 3 87.999v53v25v844h335v-841v-38c0 -90 -5 -158.333 -15 -205c-10.667 -47.333 -30.667 -93.333 -60 -138
c-23.333 -34.667 -52 -64.667 -86 -90s-71 -44 -111 -56c-40 -12.667 -85.333 -19 -136 -19c-38 0 -86.333 3.66699 -145 11zM43 1245l224 224l223 -224l-223 -223z" />
    <glyph glyph-name="k" unicode="k" horiz-adv-x="1072" 
d="M437 0l-334.998 -0.000976562v1365h335v-607c139.333 4 209.666 81.667 210.999 233h335c-2.66699 -73.333 -20.334 -137.333 -53.001 -192c-32 -53.333 -81 -100.666 -147 -141.999c51.333 -32.667 93.666 -68.667 126.999 -108c32.667 -40.667 56.334 -87 71.001 -139
s22 -112.667 22 -182v-44v-184h-334v141v40v43c0 69.333 -16.333 126.333 -49 171c-24 32 -50 55.333 -78 70c-28.667 14.667 -63.667 22 -105 22v-487z" />
    <glyph glyph-name="l" unicode="l" horiz-adv-x="539" 
d="M437 0h-335v1365h335v-1365z" />
    <glyph glyph-name="m" unicode="m" horiz-adv-x="1658" 
d="M430 0l-333.996 0.000976562v453v42c0 78 6.66699 142.667 20 194c13.333 49.333 36.333 96.333 69 141c40.667 54.667 93.667 98 159 130c66 31.333 132.667 47 200 47c50.667 0 97 -7.33301 139 -22c41.333 -14.667 86.666 -38.667 135.999 -72
c54 35.333 101.667 60 143 74s88.333 21 141 21c73.333 0 143 -16 209 -48c65.333 -31.333 118.666 -75 159.999 -131c22.667 -32 40 -63 52 -93c12.667 -32 22.667 -67.667 30 -107c6 -40 9 -84.667 9 -134v-42v-453h-334v488v42c-0.666992 98.667 -39 148 -115 148
c-78.667 0 -118 -52 -118 -156v-34v-488h-334v488v34c0 51.333 -9.66699 90.333 -29 117c-18.667 26 -48.334 39 -89.001 39c-38.667 0 -67.334 -12.333 -86.001 -37s-28 -64.334 -28 -119.001v-34v-488z" />
    <glyph glyph-name="n" unicode="n" horiz-adv-x="1092" 
d="M430 492v-492h-334v457v35c0 72.667 5 132.334 15 179.001c10 45.333 28 89.666 54 132.999c41.333 65.333 95 115.333 161 150c66.667 35.333 139.334 53 218.001 53c91.333 0 173.666 -22.667 246.999 -68c73.333 -46 127.333 -108 162 -186
c16.667 -34 28 -69.333 34 -106c6 -36 9 -87.667 9 -155v-35v-457h-334v492v34c-1.33301 101.333 -40 152 -116 152c-77.333 0 -116 -50.667 -116 -152v-34z" />
    <glyph glyph-name="o" unicode="o" horiz-adv-x="1123" 
d="M381 493c0 -33.333 8.33398 -63.334 25.001 -90.001c16 -28 38 -50 66 -66s58 -24 90 -24s62 8 90 24c27.333 16 49.666 38 66.999 66c16 27.333 24 57.333 24 90s-8 63 -24 91c-16.667 27.333 -38.667 49.333 -66 66c-28 16 -58.333 24 -91 24s-62.667 -8 -90 -24
c-28 -16.667 -50 -38.667 -66 -66c-16.667 -27.333 -25 -57.666 -25 -90.999zM48.001 492.999c0 70.667 13.333 136.999 40 198.999c27.333 63.333 64.333 118.333 111 165c47.333 47.333 102.333 84.333 165 111c62 26 128 39 198 39c72 0 139 -13.333 201 -40
c63.333 -26.667 117.666 -63 162.999 -109c46.667 -46.667 83.334 -101 110.001 -163s40 -129.333 40 -202c0 -71.333 -13.333 -137.666 -40 -198.999c-27.333 -62.667 -64 -117 -110 -163s-101 -82.667 -165 -110s-130.333 -41 -199 -41c-94 0 -180 23 -258 69
c-78.667 46 -141 108.333 -187 187c-46 78 -69 163.667 -69 257z" />
    <glyph glyph-name="p" unicode="p" horiz-adv-x="1167" 
d="M430 -375l-334.001 0.00292969v768v66c0 52 4 99 12 141c6.66699 40 18.334 78.333 35.001 115c14.667 33.333 35.667 66.666 63 99.999c25.333 32.667 52.666 60.334 81.999 83.001c32 23.333 64.333 43.333 97 60c31.333 15.333 67 27.666 107 36.999
c37.333 8 76.333 12 117 12c92.667 0 178.667 -22.667 258 -68c78.667 -45.333 140.334 -107.333 185.001 -186s67 -165 67 -259c0 -72 -12.667 -139.333 -38 -202c-26.667 -63.333 -64 -118 -112 -164c-49.333 -48.667 -105.333 -85.334 -168 -110.001
c-64 -26 -133 -39 -207 -39c-33.333 0 -67.666 4.33301 -102.999 13v343c40 -15.333 76 -23 108 -23c56 0 101.667 16.667 137 50c34 33.333 51 76.333 51 129c0 36.667 -7.33301 68.667 -22 96c-15.333 27.333 -36 49 -62 65c-27.333 15.333 -58 23 -92 23
c-33.333 0 -64 -8 -92 -24c-28 -16.667 -49 -37.667 -63 -63c-10.667 -20 -17.334 -39.667 -20.001 -59c-4 -20.667 -6 -47.334 -6 -80.001v-45v-779z" />
    <glyph glyph-name="q" unicode="q" horiz-adv-x="1167" 
d="M1072 393l-0.00292969 -767.999h-335v779v45c0 61.333 -8.66699 107.666 -26 138.999c-14.667 26.667 -35.667 48 -63 64c-27.333 15.333 -58 23 -92 23c-50.667 0 -92.667 -17 -126 -51c-33.333 -35.333 -50 -79.666 -50 -132.999s17.333 -96.333 52 -129
c35.333 -33.333 81 -50 137 -50c32.667 0 68.334 7.66699 107.001 23v-343c-35.333 -8.66699 -69.666 -13 -102.999 -13c-74 0 -143 13 -207 39c-63.333 26 -119.333 62.667 -168 110c-48 46.667 -85 101.334 -111 164.001c-26 62 -39 129.333 -39 202
c0 93.333 22.667 179.666 68 258.999s107 141.333 185 186c78.667 45.333 164.334 68 257.001 68c43.333 0 83.333 -4.33301 120 -13c37.333 -8.66699 72.333 -20.667 105 -36c32 -14.667 63.667 -34.334 95 -59.001c32 -26 59.667 -54 83 -84
c40 -49.333 68.333 -101.333 85 -156c17.333 -58 26 -124.667 26 -200v-66z" />
    <glyph glyph-name="r" unicode="r" horiz-adv-x="607" 
d="M430 0l-334.001 0.000976562v462v48c0 57.333 5.33301 109.666 16 156.999c11.333 50.667 28 93.667 50 129c24 38.667 53 73 87 103c82.667 72.667 182.334 109 299.001 109c10.667 0 26 -1 46 -3v-339c-20 6.66699 -37.333 10 -52 10c-48.667 0 -82 -23.667 -100 -71
c-8 -20 -12 -58.667 -12 -116v-24v-465z" />
    </font>
</defs>
</svg>
